<svg xmlns="http://www.w3.org/2000/svg" width="106.558" height="104.425" viewBox="0 0 106.558 104.425">
  <g id="Group_346" data-name="Group 346" transform="translate(-204 -1046.002)">
    <path id="Path_4" data-name="Path 4" d="M389.818,270.613a1.551,1.551,0,0,0-1.551,1.551,1.969,1.969,0,0,1-3.938,0,1.551,1.551,0,1,0-3.1,0,5.071,5.071,0,0,0,10.141,0,1.55,1.55,0,0,0-1.552-1.551Z" transform="translate(-97.887 830.643)" fill="#174896"/>
    <path id="Path_5" data-name="Path 5" d="M102.488,60.624l-4.365-1.4a1.826,1.826,0,0,1-1.178-1.194,28.141,28.141,0,0,0-4.126-8.161,29.949,29.949,0,0,0-2.756-3.251,38.466,38.466,0,0,0,.949-8.784c-.065-3.951-.855-6.269-2.414-7.085-.84-.44-3.4-1.778-17.229,4.554a5.032,5.032,0,0,0-.917.546c-.933-.251-1.886-.482-2.845-.691-.116-.025-.235-.047-.351-.072a21.125,21.125,0,0,0,1.9-7.854,1.552,1.552,0,1,0-3.1-.139A18.043,18.043,0,0,1,54.251,43.228a44.971,44.971,0,0,0-12.482,0,18.058,18.058,0,1,1,22.382-25.07,1.551,1.551,0,1,0,2.77-1.4A21.168,21.168,0,1,0,36.778,44.224h0q-1.446.376-2.867.848a1.551,1.551,0,1,0,.983,2.942,41.617,41.617,0,0,1,26.23,0,1.551,1.551,0,1,0,.983-2.942q-1.419-.475-2.867-.848h0a21.145,21.145,0,0,0,6.437-6.294c.427.083.852.17,1.27.261q.835.181,1.661.387c-.017.067-.035.135-.049.2a18.494,18.494,0,0,0,.146,9.434A11.227,11.227,0,0,0,72.819,54a13.046,13.046,0,0,0,7.633,2.422A10.233,10.233,0,0,0,85.4,55.274c1.458-.826,2.679-2.565,3.646-5.177q.67.782,1.27,1.6a25.04,25.04,0,0,1,3.672,7.263,4.932,4.932,0,0,0,3.191,3.217l4.365,1.4a2.746,2.746,0,0,1,1.915,2.624v7.237a2.746,2.746,0,0,1-1.915,2.624L94.51,78.315a4.791,4.791,0,0,0-2.681,2.177A30.909,30.909,0,0,1,78.917,92.236a2.43,2.43,0,0,0-1.275,1.713L75.39,105.875a.7.7,0,0,1-.685.567H67.383a.7.7,0,0,1-.685-.567l-1.247-6.591a2.437,2.437,0,0,0-2.771-1.96,64.825,64.825,0,0,1-9.661.719,61.822,61.822,0,0,1-7.107-.4,2.457,2.457,0,0,0-2.687,1.971l-1.185,6.263a.7.7,0,0,1-.685.567H34.032a.7.7,0,0,1-.685-.572L31.178,94.606a2.434,2.434,0,0,0-1.251-1.693C20.032,87.63,14.8,78.805,14.8,67.392a29.812,29.812,0,0,1,3.75-15.156A27.056,27.056,0,0,1,28.63,42.4a1.551,1.551,0,1,0-1.553-2.685A29.517,29.517,0,0,0,12.1,61.76h0c-.149-.014-.3-.026-.447-.042a7.721,7.721,0,0,0-.568-3.094,6.352,6.352,0,0,0-4.709-4.112,4.286,4.286,0,0,0-4.036,1.8c-1.48,1.955-1.238,3.5-.776,4.456.781,1.609,2.789,2.748,6.121,3.464q-.137.206-.3.413a7.609,7.609,0,0,1-5.794,3.066A1.628,1.628,0,0,0,0,69.328v.007a1.624,1.624,0,0,0,1.556,1.62q.167.008.349.008c1.906,0,4.964-.7,7.9-4.387a8.844,8.844,0,0,0,1.132-1.829q.439.05.843.086c-.053.84-.082,1.693-.082,2.561a31.958,31.958,0,0,0,4.575,17.114A31.352,31.352,0,0,0,28.192,95.5L30.3,106.45a3.8,3.8,0,0,0,3.732,3.092h7.323a3.8,3.8,0,0,0,3.732-3.092l1.072-5.663a65.359,65.359,0,0,0,6.861.355,68.131,68.131,0,0,0,9.5-.662l1.13,5.97a3.8,3.8,0,0,0,3.732,3.092h7.323a3.8,3.8,0,0,0,3.732-3.092L80.63,94.84A33.811,33.811,0,0,0,94.513,82.045a1.7,1.7,0,0,1,.943-.777l7.032-2.252a5.839,5.839,0,0,0,4.07-5.578V66.2a5.838,5.838,0,0,0-4.07-5.576ZM87.676,42.193c-.6,5.1-2.2,9.471-3.807,10.382-1.829,1.036-6.05,1.236-9.22-1.083S70.42,45,71.6,39.42h0a1.871,1.871,0,0,1,1.064-1.3c7.764-3.554,12.24-4.716,13.9-4.716a1.622,1.622,0,0,1,.562.075C87.624,34.016,88.279,37.042,87.676,42.193ZM4.354,59.411c-.16-.331.218-.913.458-1.23a1.237,1.237,0,0,1,1-.606,1.166,1.166,0,0,1,.156.011,3.38,3.38,0,0,1,2.241,2.2,4.709,4.709,0,0,1,.324,1.462C6.384,60.8,4.716,60.158,4.354,59.411Z" transform="translate(204 1040.885)" fill="#174896"/>
    <path id="Path_6" data-name="Path 6" d="M210.144,62.391v-5.55c1.914.137,2.625,1.011,3.281,1.011.82,0,1.2-1.039,1.2-1.558,0-1.34-2.625-1.914-4.484-1.968v-.738c0-.328-.41-.629-.82-.629a.721.721,0,0,0-.793.629v.793c-2.6.273-5.194,1.64-5.194,5.085,0,3.5,2.734,4.484,5.194,5.358v6.424c-2.789-.219-3.527-2.132-4.429-2.132-.683,0-1.257.9-1.257,1.558,0,1.339,2.3,3.171,5.686,3.226h0v.847a.721.721,0,0,0,.793.629c.41,0,.82-.3.82-.629v-.929a5.3,5.3,0,0,0,4.976-5.632C215.12,64.468,212.523,63.265,210.144,62.391Zm-1.449-.519c-1.449-.547-2.624-1.121-2.624-2.679,0-1.422,1.093-2.1,2.624-2.3Zm1.285,9.322V65.425c1.339.574,2.406,1.339,2.406,3.062a2.6,2.6,0,0,1-2.406,2.706Z" transform="translate(43.371 1002.998)" fill="#174896"/>
  </g>
</svg>
