<svg xmlns="http://www.w3.org/2000/svg" width="98.275" height="111.546" viewBox="0 0 98.275 111.546"><defs><style>.a{fill:#1176b0;}</style></defs><g transform="translate(-0.36)"><path class="a" d="M194,174.257a1.742,1.742,0,0,0-.627-.021,4.16,4.16,0,0,1-3.679-4.125,1.83,1.83,0,0,0-3.659,0,7.827,7.827,0,0,0,5.755,7.537v1.83a1.83,1.83,0,1,0,3.659,0v-1.719a7.813,7.813,0,0,0-1.6-15.46,4.154,4.154,0,1,1,4.154-4.154,1.83,1.83,0,0,0,3.659,0,7.828,7.828,0,0,0-6.213-7.648V148.83a1.83,1.83,0,0,0-3.659,0v1.777a7.813,7.813,0,0,0,2.058,15.349,4.152,4.152,0,0,1,.152,8.3Zm0,0" transform="translate(-143.212 -113.38)"/><path class="a" d="M104.2,133.024a26.532,26.532,0,1,0,26.532-26.532A26.532,26.532,0,0,0,104.2,133.024Zm26.532-22.873a22.873,22.873,0,1,1-22.873,22.873A22.872,22.872,0,0,1,130.727,110.152Zm0,0" transform="translate(-80.087 -82.136)"/><path class="a" d="M86.192,333.646l-14.333,6.772a11.674,11.674,0,0,0-9.952-6.141l-13.231-.364a13.975,13.975,0,0,1-6.013-1.553l-1.346-.7a23.748,23.748,0,0,0-22,.023l.084-3.05a1.83,1.83,0,0,0-1.779-1.88l-14.509-.4a1.829,1.829,0,0,0-1.879,1.779L.361,359.975a1.83,1.83,0,0,0,1.779,1.88l14.509.4h.05a1.83,1.83,0,0,0,1.83-1.78l.042-1.523,3.769-2.018a6.466,6.466,0,0,1,4.825-.528l22.508,6.317c.039.012.079.021.119.029a24.092,24.092,0,0,0,4.947.51,24.412,24.412,0,0,0,10.2-2.225,1.694,1.694,0,0,0,.227-.125L97.8,339.8a1.831,1.831,0,0,0,.6-2.437A9.243,9.243,0,0,0,86.192,333.646Zm-82.123,24.6.775-28.181,10.85.3-.775,28.182Zm59.219-.479A20.746,20.746,0,0,1,50.6,359.184l-22.447-6.3a10.117,10.117,0,0,0-7.542.825l-1.926,1.032L19.2,336a20.112,20.112,0,0,1,20.432-1.09l1.346.7a17.672,17.672,0,0,0,7.6,1.962l13.232.364a8.025,8.025,0,0,1,7.627,6.395l-19.709-.544a1.83,1.83,0,1,0-.1,3.658l21.751.6h.051a1.83,1.83,0,0,0,1.828-1.78,11.612,11.612,0,0,0-.177-2.374l14.7-6.946.043-.021a5.59,5.59,0,0,1,6.322.885Zm0,0" transform="translate(0 -251.715)"/><path class="a" d="M215.862,19.212V1.83a1.83,1.83,0,0,0-3.659,0V19.212a1.83,1.83,0,0,0,3.659,0Zm0,0" transform="translate(-163.392)"/><path class="a" d="M275.862,50.063V41.83a1.83,1.83,0,0,0-3.659,0v8.234a1.83,1.83,0,0,0,3.659,0Zm0,0" transform="translate(-209.67 -30.852)"/><path class="a" d="M155.862,50.063V41.83a1.83,1.83,0,1,0-3.659,0v8.234a1.83,1.83,0,1,0,3.659,0Zm0,0" transform="translate(-117.115 -30.852)"/></g></svg>