<svg xmlns="http://www.w3.org/2000/svg" width="79.741" height="79.741" viewBox="0 0 79.741 79.741"><defs><style>.a{fill:#1176b0;stroke:#fff;stroke-width:0.5px;}</style></defs><g transform="translate(-15.75 -15.75)"><path class="a" d="M214.148,16H161.321A1.321,1.321,0,0,0,160,17.321V38.452h2.641V18.641h50.186v70H187.734v2.641h26.414a1.321,1.321,0,0,0,1.321-1.321V17.321A1.321,1.321,0,0,0,214.148,16Z" transform="translate(-120.228)"/><path class="a" d="M195.962,48a3.962,3.962,0,1,0,3.962,3.962A3.962,3.962,0,0,0,195.962,48Zm0,5.283a1.321,1.321,0,1,1,1.321-1.321A1.321,1.321,0,0,1,195.962,53.283Z" transform="translate(-146.945 -26.717)"/><path class="a" d="M256,48h10.565v2.641H256Z" transform="translate(-200.379 -26.717)"/><path class="a" d="M256,80h7.924v2.641H256Z" transform="translate(-200.379 -53.434)"/><path class="a" d="M320,80h5.283v2.641H320Z" transform="translate(-253.814 -53.434)"/><path class="a" d="M216,112h5.283v2.641H216Z" transform="translate(-166.983 -80.152)"/><path class="a" d="M264,112h18.49v2.641H264Z" transform="translate(-207.059 -80.152)"/><path class="a" d="M240,176h36.979v2.641H240Z" transform="translate(-187.021 -133.586)"/><path class="a" d="M200,144h5.283v2.641H200Z" transform="translate(-153.624 -106.869)"/><path class="a" d="M264,144h13.207v2.641H264Z" transform="translate(-207.059 -106.869)"/><path class="a" d="M416,144h5.283v2.641H416Z" transform="translate(-333.966 -106.869)"/><path class="a" d="M304,208h13.207v2.641H304Z" transform="translate(-240.455 -160.303)"/><path class="a" d="M416,208h5.283v2.641H416Z" transform="translate(-333.966 -160.303)"/><path class="a" d="M336,240h7.924v2.641H336Z" transform="translate(-267.172 -187.021)"/><path class="a" d="M416,240h5.283v2.641H416Z" transform="translate(-333.966 -187.021)"/><path class="a" d="M336,272h7.924v2.641H336Z" transform="translate(-267.172 -213.738)"/><path class="a" d="M416,272h5.283v2.641H416Z" transform="translate(-333.966 -213.738)"/><path class="a" d="M312,304h11.886v2.641H312Z" transform="translate(-247.135 -240.455)"/><path class="a" d="M416,304h5.283v2.641H416Z" transform="translate(-333.966 -240.455)"/><path class="a" d="M312,336h25.093v2.641H312Z" transform="translate(-247.135 -267.172)"/><path class="a" d="M320,368h5.283v2.641H320Z" transform="translate(-253.814 -293.89)"/><path class="a" d="M368,368h13.207v2.641H368Z" transform="translate(-293.89 -293.89)"/><path class="a" d="M304,400h2.641v2.641H304Z" transform="translate(-240.455 -320.607)"/><path class="a" d="M336,400h5.283v2.641H336Z" transform="translate(-267.172 -320.607)"/><path class="a" d="M384,400h2.641v2.641H384Z" transform="translate(-307.248 -320.607)"/><path class="a" d="M416,400h5.283v2.641H416Z" transform="translate(-333.966 -320.607)"/><path class="a" d="M17.321,189.131h2.641v6.6A3.968,3.968,0,0,0,22.6,199.47v9.7a3.968,3.968,0,0,0-2.641,3.735v1.548a3.968,3.968,0,0,0-2.641,3.735v2.641a1.321,1.321,0,0,0,1.321,1.321h44.9a1.321,1.321,0,0,0,1.321-1.321v-2.641a3.968,3.968,0,0,0-2.641-3.735V212.9a3.968,3.968,0,0,0-2.641-3.735v-9.7a3.968,3.968,0,0,0,2.641-3.735v-6.6h2.641a1.321,1.321,0,0,0,1.321-1.321v-6.6a1.321,1.321,0,0,0-.73-1.181L41.684,168.14a1.321,1.321,0,0,0-1.181,0L16.73,180.026a1.321,1.321,0,0,0-.73,1.181v6.6a1.321,1.321,0,0,0,1.321,1.321Zm42.262,25.093H56.941V212.9a3.943,3.943,0,0,0-.227-1.321h1.548a1.322,1.322,0,0,1,1.321,1.321Zm-7.924-5.283H49.017V199.7h2.641ZM47.7,211.583h5.283A1.322,1.322,0,0,1,54.3,212.9v1.321H46.376V212.9A1.322,1.322,0,0,1,47.7,211.583Zm6.6-2.641V199.7h2.641v9.245Zm-1.321-11.886H47.7a1.322,1.322,0,0,1-1.321-1.321v-1.321H54.3v1.321A1.322,1.322,0,0,1,52.979,197.055Zm-6.6,2.414v9.7a3.968,3.968,0,0,0-2.641,3.735v1.321H38.452V212.9a3.968,3.968,0,0,0-2.641-3.735v-9.7a3.968,3.968,0,0,0,2.641-3.735v-1.321h5.283v1.321A3.968,3.968,0,0,0,46.376,199.47Zm-18.49.227v9.245H25.245V199.7Zm5.283,9.245H30.528V199.7h2.641Zm-3.962,2.641H34.49A1.322,1.322,0,0,1,35.81,212.9v1.321H27.886V212.9A1.322,1.322,0,0,1,29.207,211.583Zm6.6-15.848a1.322,1.322,0,0,1-1.321,1.321H29.207a1.322,1.322,0,0,1-1.321-1.321v-1.321H35.81Zm-10.338,1.321H23.924a1.322,1.322,0,0,1-1.321-1.321v-1.321h2.641v1.321A3.943,3.943,0,0,0,25.472,197.055Zm-1.548,14.528h1.548a3.943,3.943,0,0,0-.227,1.321v1.321H22.6V212.9A1.322,1.322,0,0,1,23.924,211.583Zm38.3,7.924H19.962v-1.321a1.322,1.322,0,0,1,1.321-1.321H60.9a1.322,1.322,0,0,1,1.321,1.321Zm-3.962-22.452H56.714a3.943,3.943,0,0,0,.227-1.321v-1.321h2.641v1.321A1.322,1.322,0,0,1,58.262,197.055Zm1.321-5.283H22.6v-2.641H59.583Zm-40.941-9.749L41.093,170.8l22.452,11.226v4.466h-44.9Z" transform="translate(0 -126.907)"/><path class="a" d="M147.962,223.924A3.962,3.962,0,1,0,144,219.962,3.962,3.962,0,0,0,147.962,223.924Zm0-5.283a1.321,1.321,0,1,1-1.321,1.321A1.321,1.321,0,0,1,147.962,218.641Z" transform="translate(-106.869 -166.983)"/><path class="a" d="M112,232h2.641v2.641H112Z" transform="translate(-80.152 -180.341)"/><path class="a" d="M208,232h2.641v2.641H208Z" transform="translate(-160.303 -180.341)"/></g></svg>