<svg xmlns="http://www.w3.org/2000/svg" width="77.573" height="77.61" viewBox="0 0 77.573 77.61"><defs><style>.a{fill:#1176b0;stroke:#fff;}</style></defs><g transform="translate(0.5 0.5)"><path class="a" d="M116.768,288a12.768,12.768,0,1,0,12.768,12.768A12.768,12.768,0,0,0,116.768,288Zm0,22.983a10.215,10.215,0,1,1,10.215-10.215A10.214,10.214,0,0,1,116.768,310.983Zm0,0" transform="translate(-87.401 -242.034)"/><path class="a" d="M157.107,323.831c1.559,0,2.554.756,2.554,1.277h2.554c0-1.814-1.607-3.284-3.831-3.7V320h-2.554v1.4c-2.223.416-3.831,1.886-3.831,3.7,0,2.149,2.243,3.831,5.107,3.831,1.559,0,2.554.756,2.554,1.277s-.994,1.277-2.554,1.277-2.554-.756-2.554-1.277H152c0,1.814,1.607,3.284,3.831,3.7v1.4h2.554v-1.4c2.223-.416,3.831-1.886,3.831-3.7,0-2.149-2.243-3.831-5.107-3.831-1.559,0-2.554-.756-2.554-1.277S155.548,323.831,157.107,323.831Zm0,0" transform="translate(-127.74 -268.926)"/><path class="a" d="M65.119,74.057H11.492V43.413H31.921a3.831,3.831,0,0,0,3.831-3.831V7.661H49.8V22.983H65.119V40.859h2.554V21.178L51.6,5.107H35.752V3.831A3.831,3.831,0,0,0,31.921,0H3.831A3.831,3.831,0,0,0,0,3.831V39.582a3.831,3.831,0,0,0,3.831,3.831H8.938v33.2H67.673V58.735H65.119ZM52.35,9.467,63.313,20.429H52.35ZM2.554,39.582V3.831A1.277,1.277,0,0,1,3.831,2.554H31.921A1.277,1.277,0,0,1,33.2,3.831V39.582a1.277,1.277,0,0,1-1.277,1.277H3.831A1.277,1.277,0,0,1,2.554,39.582Zm0,0"/><path class="a" d="M256,200h2.554v2.554H256Zm0,0" transform="translate(-215.141 -168.079)"/><path class="a" d="M288,200h15.322v2.554H288Zm0,0" transform="translate(-242.034 -168.079)"/><path class="a" d="M256,168h2.554v2.554H256Zm0,0" transform="translate(-215.141 -141.186)"/><path class="a" d="M288,168h15.322v2.554H288Zm0,0" transform="translate(-242.034 -141.186)"/><path class="a" d="M256,232h2.554v2.554H256Zm0,0" transform="translate(-215.141 -194.972)"/><path class="a" d="M288,232h15.322v2.554H288Zm0,0" transform="translate(-242.034 -194.972)"/><path class="a" d="M256,264h2.554v2.554H256Zm0,0" transform="translate(-215.141 -221.864)"/><path class="a" d="M288,264h15.322v2.554H288Zm0,0" transform="translate(-242.034 -221.864)"/><path class="a" d="M52.091,24H24v8.938H52.091Zm-2.554,6.384H26.554V26.554H49.537Zm0,0" transform="translate(-20.169 -20.169)"/><path class="a" d="M37.107,88H34.554A2.554,2.554,0,0,0,32,90.554v2.554a2.554,2.554,0,0,0,2.554,2.554h2.554a2.554,2.554,0,0,0,2.554-2.554V90.554A2.554,2.554,0,0,0,37.107,88Zm-2.554,5.107V90.554h2.554v2.554Zm0,0" transform="translate(-26.893 -73.955)"/><path class="a" d="M93.107,88H90.554A2.554,2.554,0,0,0,88,90.554v2.554a2.554,2.554,0,0,0,2.554,2.554h2.554a2.554,2.554,0,0,0,2.554-2.554V90.554A2.554,2.554,0,0,0,93.107,88Zm-2.554,5.107V90.554h2.554v2.554Zm0,0" transform="translate(-73.955 -73.955)"/><path class="a" d="M149.107,88h-2.554A2.554,2.554,0,0,0,144,90.554v2.554a2.554,2.554,0,0,0,2.554,2.554h2.554a2.554,2.554,0,0,0,2.554-2.554V90.554A2.554,2.554,0,0,0,149.107,88Zm-2.554,5.107V90.554h2.554v2.554Zm0,0" transform="translate(-121.017 -73.955)"/><path class="a" d="M37.107,144H34.554A2.554,2.554,0,0,0,32,146.554v2.554a2.554,2.554,0,0,0,2.554,2.554h2.554a2.554,2.554,0,0,0,2.554-2.554v-2.554A2.554,2.554,0,0,0,37.107,144Zm-2.554,5.107v-2.554h2.554v2.554Zm0,0" transform="translate(-26.893 -121.017)"/><path class="a" d="M93.107,144H90.554A2.554,2.554,0,0,0,88,146.554v2.554a2.554,2.554,0,0,0,2.554,2.554h2.554a2.554,2.554,0,0,0,2.554-2.554v-2.554A2.554,2.554,0,0,0,93.107,144Zm-2.554,5.107v-2.554h2.554v2.554Zm0,0" transform="translate(-73.955 -121.017)"/><path class="a" d="M149.107,144h-2.554A2.554,2.554,0,0,0,144,146.554v2.554a2.554,2.554,0,0,0,2.554,2.554h2.554a2.554,2.554,0,0,0,2.554-2.554v-2.554A2.554,2.554,0,0,0,149.107,144Zm-2.554,5.107v-2.554h2.554v2.554Zm0,0" transform="translate(-121.017 -121.017)"/><path class="a" d="M37.107,200H34.554A2.554,2.554,0,0,0,32,202.554v2.554a2.554,2.554,0,0,0,2.554,2.554h2.554a2.554,2.554,0,0,0,2.554-2.554v-2.554A2.554,2.554,0,0,0,37.107,200Zm-2.554,5.107v-2.554h2.554v2.554Zm0,0" transform="translate(-26.893 -168.079)"/><path class="a" d="M93.107,200H90.554A2.554,2.554,0,0,0,88,202.554v2.554a2.554,2.554,0,0,0,2.554,2.554h2.554a2.554,2.554,0,0,0,2.554-2.554v-2.554A2.554,2.554,0,0,0,93.107,200Zm-2.554,5.107v-2.554h2.554v2.554Zm0,0" transform="translate(-73.955 -168.079)"/><path class="a" d="M149.107,200h-2.554A2.554,2.554,0,0,0,144,202.554v2.554a2.554,2.554,0,0,0,2.554,2.554h2.554a2.554,2.554,0,0,0,2.554-2.554v-2.554A2.554,2.554,0,0,0,149.107,200Zm-2.554,5.107v-2.554h2.554v2.554Zm0,0" transform="translate(-121.017 -168.079)"/><path class="a" d="M310.773,249.551a3.921,3.921,0,0,0-5.416,0l-21.889,21.888a1.292,1.292,0,0,0-.256.369L280.13,278.5a1.277,1.277,0,0,0,1.693,1.693l6.693-3.082a1.279,1.279,0,0,0,.369-.256l21.887-21.889A3.83,3.83,0,0,0,310.773,249.551ZM287.24,274.888l-3.345,1.541,1.541-3.345,16.32-16.322,1.806,1.806Zm18.131-18.131-1.806-1.8.894-.894,1.806,1.806Zm3.6-3.6-.9.9-1.806-1.806.9-.9a1.305,1.305,0,0,1,1.8,0A1.278,1.278,0,0,1,308.972,253.157Zm0,0" transform="translate(-235.322 -208.809)"/></g></svg>