<svg xmlns="http://www.w3.org/2000/svg" width="16.993" height="19.335" viewBox="0 0 16.993 19.335">
  <g id="Group_343" data-name="Group 343" transform="translate(-729.956 -16)">
    <path id="Path_22" data-name="Path 22" d="M46.294,0H32.7A1.7,1.7,0,0,0,31,1.7V17.635a1.7,1.7,0,0,0,1.7,1.7H46.294a1.7,1.7,0,0,0,1.7-1.7V1.7A1.7,1.7,0,0,0,46.294,0Zm.566,17.635a.567.567,0,0,1-.566.566H32.7a.567.567,0,0,1-.566-.566V1.7a.567.567,0,0,1,.566-.566H46.294a.567.567,0,0,1,.566.566Z" transform="translate(698.956 16)" fill="#fff"/>
    <path id="Path_23" data-name="Path 23" d="M102.9,60H91.566a.566.566,0,0,0-.566.566v4.607a.566.566,0,0,0,.566.566H102.9a.566.566,0,0,0,.566-.566V60.566A.566.566,0,0,0,102.9,60Zm-.566,4.607h-10.2V61.133h10.2Z" transform="translate(641.222 -41.734)" fill="#fff"/>
    <path id="Path_24" data-name="Path 24" d="M93.832,242H91.566a.566.566,0,0,0-.566.566v2.266a.566.566,0,0,0,.566.566h2.266a.566.566,0,0,0,.566-.566v-2.266A.566.566,0,0,0,93.832,242Zm-.566,2.266H92.133v-1.133h1.133Z" transform="translate(641.222 -216.861)" fill="#fff"/>
    <path id="Path_25" data-name="Path 25" d="M93.832,362H91.566a.566.566,0,0,0-.566.566v2.266a.566.566,0,0,0,.566.566h2.266a.566.566,0,0,0,.566-.566v-2.266A.566.566,0,0,0,93.832,362Zm-.566,2.266H92.133v-1.133h1.133Z" transform="translate(641.222 -332.33)" fill="#fff"/>
    <path id="Path_26" data-name="Path 26" d="M213.832,242h-2.266a.566.566,0,0,0-.566.566v2.266a.566.566,0,0,0,.566.566h2.266a.566.566,0,0,0,.566-.566v-2.266A.566.566,0,0,0,213.832,242Zm-.566,2.266h-1.133v-1.133h1.133Z" transform="translate(525.753 -216.861)" fill="#fff"/>
    <path id="Path_27" data-name="Path 27" d="M213.832,362h-2.266a.566.566,0,0,0-.566.566v2.266a.566.566,0,0,0,.566.566h2.266a.566.566,0,0,0,.566-.566v-2.266A.566.566,0,0,0,213.832,362Zm-.566,2.266h-1.133v-1.133h1.133Z" transform="translate(525.753 -332.33)" fill="#fff"/>
    <path id="Path_28" data-name="Path 28" d="M333.832,242h-2.266a.566.566,0,0,0-.566.566v6.8a.566.566,0,0,0,.566.566h2.266a.566.566,0,0,0,.566-.566v-6.8A.566.566,0,0,0,333.832,242Zm-.566,6.8h-1.133v-5.664h1.133Z" transform="translate(410.285 -216.861)" fill="#fff"/>
  </g>
</svg>
