<svg xmlns="http://www.w3.org/2000/svg" width="170" height="75.441" viewBox="0 0 170 75.441">
  <g id="surface1" transform="translate(1.5 1.627)">
    <path id="Path_57" data-name="Path 57" d="M2.783,64.456H16.2a16.615,16.615,0,0,0,28.824,0h76.943a16.611,16.611,0,0,0,28.863-.072,2.75,2.75,0,0,0,.9-.326l13.917-8.35A2.783,2.783,0,0,0,167,53.322V28.273a2.756,2.756,0,0,0-.195-.958c-.031-.083-.065-.161-.1-.241a1.937,1.937,0,0,0-.1-.234l-7.562-12.605,2.1-4.2a2.783,2.783,0,0,0-2.032-3.989L144.794,3.657,138,2.527A154.558,154.558,0,0,0,40.637,18.479l-8.205,4.378L19.907,25.64A28.824,28.824,0,0,0,.3,40.948,2.782,2.782,0,0,0,0,42.19V61.673a2.784,2.784,0,0,0,2.783,2.783Zm38.026-3.9A11.107,11.107,0,1,1,41.75,56.1a11.107,11.107,0,0,1-.941,4.453Zm105.767,0a11.107,11.107,0,1,1,.941-4.453,11.107,11.107,0,0,1-.941,4.453ZM161.434,36.62h-6.958L150.3,31.056h11.134ZM105.36,6.285A146.688,146.688,0,0,1,137.09,8.03l1.462.245L124.1,22.706H103.01Zm19.89,21.988a2.779,2.779,0,0,0,1.967-.815L145.289,9.382l9.186,1.533-1.114,2.2a2.782,2.782,0,0,0,.106,2.677l5.834,9.7H144.733a2.783,2.783,0,0,0-2.227,4.453l8.35,11.134a2.782,2.782,0,0,0,2.227,1.113h8.35V51.75l-8.35,5.018c0-.22.014-.439.014-.659a16.7,16.7,0,1,0-33.4,0,16.061,16.061,0,0,0,.212,2.488c.014.1,0,.2.023.3H97.842l4.373-30.617ZM99.679,6.674,97.388,22.706H44.547A148.581,148.581,0,0,1,99.679,6.674ZM5.566,47.756h5.566V42.19H5.975A23.237,23.237,0,0,1,21.106,31.072l12.6-2.8H96.581L92.219,58.889H47.082a1.292,1.292,0,0,1,.023-.294,16.507,16.507,0,0,0,.212-2.489,16.7,16.7,0,0,0-33.4,0,16.077,16.077,0,0,0,.212,2.489c.014.1,0,.2.022.294H5.566Zm0,0" transform="translate(0 -0.492)" fill="#fff" stroke="#174896" stroke-width="3"/>
    <path id="Path_58" data-name="Path 58" d="M249.6,115.512h11.134v5.566H249.6Zm0,0" transform="translate(-177.232 -82.165)" fill="#fff" stroke="#174896" stroke-width="3"/>
  </g>
</svg>
