<svg xmlns="http://www.w3.org/2000/svg" width="83.241" height="83.241" viewBox="0 0 83.241 83.241"><defs><style>.a{fill:#1176b0;}</style></defs><g transform="translate(-0.004)"><path class="a" d="M1.391,83.24H33.3V80.465H2.779v-65.2H5.553V70.754a1.387,1.387,0,0,0,1.387,1.387A4.154,4.154,0,0,1,11.1,76.3a1.387,1.387,0,0,0,1.387,1.387H33.3V74.916H13.738a6.926,6.926,0,0,0-5.41-5.41V15.261h5.549a1.387,1.387,0,0,0,1.387-1.387V8.324H47.312a6.926,6.926,0,0,0,5.41,5.41V27.747H55.5V12.486A1.387,1.387,0,0,0,54.11,11.1a4.154,4.154,0,0,1-4.162-4.162,1.387,1.387,0,0,0-1.387-1.387h-33.3V2.775H58.272V27.747h2.775V1.387A1.387,1.387,0,0,0,59.659,0H14.571a2.944,2.944,0,0,0-.408.045A1.368,1.368,0,0,0,12.9.406L.41,12.892a1.372,1.372,0,0,0-.362,1.264A2.983,2.983,0,0,0,0,14.567V81.853A1.387,1.387,0,0,0,1.391,83.24ZM4.743,12.486,12.49,4.75v7.736Zm0,0"/><path class="a" d="M133.518,86.363l-2.547-7.372a4.126,4.126,0,0,0,.209-1.942,4.236,4.236,0,0,0,0-6.69,4.233,4.233,0,0,0-4.729-4.729,4.236,4.236,0,0,0-6.69,0,4.233,4.233,0,0,0-4.729,4.729,4.236,4.236,0,0,0,0,6.69,4.171,4.171,0,0,0-.016.822l-2.933,8.491a1.387,1.387,0,0,0,1.838,1.736l2.754-1.131,1.477,2.6a1.386,1.386,0,0,0,1.205.7h.129a1.387,1.387,0,0,0,1.183-.929l2.057-5.965c.051,0,.1.015.152.018l2.048,5.944a1.387,1.387,0,0,0,1.183.929h.129a1.387,1.387,0,0,0,1.205-.7l1.477-2.6,2.756,1.131a1.387,1.387,0,0,0,1.838-1.736ZM117.13,72.351a1.388,1.388,0,0,0,.79-1.9,1.443,1.443,0,0,1,1.922-1.922,1.388,1.388,0,0,0,1.9-.79,1.444,1.444,0,0,1,2.722,0,1.388,1.388,0,0,0,1.9.79,1.443,1.443,0,0,1,1.922,1.922,1.388,1.388,0,0,0,.79,1.9,1.444,1.444,0,0,1,0,2.722,1.388,1.388,0,0,0-.79,1.9,1.443,1.443,0,0,1-1.922,1.923,1.387,1.387,0,0,0-1.9.789,1.444,1.444,0,0,1-2.722,0,1.387,1.387,0,0,0-1.307-.923,1.412,1.412,0,0,0-.6.139,1.443,1.443,0,0,1-1.922-1.923,1.387,1.387,0,0,0-.79-1.9,1.445,1.445,0,0,1,0-2.723Zm1.92,13.18-.565-.993a1.387,1.387,0,0,0-1.733-.6l-1.043.429,1.143-3.306a4.116,4.116,0,0,0,2.913.719,4.165,4.165,0,0,0,.429.446Zm9.8-1.591a1.388,1.388,0,0,0-1.734.6l-.564.992-1-2.9a4.187,4.187,0,0,0,.9-.843,4.108,4.108,0,0,0,2.4-.425l1.042,3.012Zm0,0" transform="translate(-92.581 -52.895)"/><path class="a" d="M304,32h2.775v2.775H304Zm0,0" transform="translate(-251.281 -26.451)"/><path class="a" d="M32,432h2.775v2.775H32Zm0,0" transform="translate(-26.451 -357.084)"/><path class="a" d="M72,240h5.549v2.775H72Zm0,0" transform="translate(-59.514 -198.38)"/><path class="a" d="M120,240h8.324v2.775H120Zm0,0" transform="translate(-99.19 -198.38)"/><path class="a" d="M72,272H88.652v2.775H72Zm0,0" transform="translate(-59.514 -224.831)"/><path class="a" d="M72,304H83.1v2.775H72Zm0,0" transform="translate(-59.514 -251.281)"/><path class="a" d="M152,304h2.775v2.775H152Zm0,0" transform="translate(-125.641 -251.281)"/><path class="a" d="M72,336H88.652v2.775H72Zm0,0" transform="translate(-59.514 -277.732)"/><path class="a" d="M184,336h4.162v2.775H184Zm0,0" transform="translate(-152.091 -277.732)"/><path class="a" d="M184,304h4.162v2.775H184Zm0,0" transform="translate(-152.091 -251.281)"/><path class="a" d="M184,272h4.162v2.775H184Zm0,0" transform="translate(-152.091 -224.831)"/><path class="a" d="M184,240h8.324v2.775H184Zm0,0" transform="translate(-152.091 -198.38)"/><path class="a" d="M156.166,368a4.162,4.162,0,1,0,4.162,4.162A4.162,4.162,0,0,0,156.166,368Zm0,5.549a1.387,1.387,0,1,1,1.387-1.387A1.387,1.387,0,0,1,156.166,373.549Zm0,0" transform="translate(-125.641 -304.183)"/><path class="a" d="M88,384h8.324v2.775H88Zm0,0" transform="translate(-72.739 -317.408)"/><path class="a" d="M252.4,219.82V199.585a15.285,15.285,0,0,0-13.094-15.107l3.243-6.471A1.387,1.387,0,0,0,241.3,176H221.878a1.387,1.387,0,0,0-1.248,2.007l3.235,6.471a15.284,15.284,0,0,0-13.085,15.107V219.82l-1.505,1.505a4.331,4.331,0,0,0,3.052,7.395h38.528a4.331,4.331,0,0,0,3.052-7.395Zm-1.545,6.124H212.326a1.556,1.556,0,0,1-1.091-2.658l1.912-1.912a1.388,1.388,0,0,0,.406-.98v-20.81A12.5,12.5,0,0,1,226.04,187.1a1.387,1.387,0,0,0,1.248-2.007l-3.166-6.317h14.933l-3.159,6.317a1.387,1.387,0,0,0,1.242,2.007,12.5,12.5,0,0,1,12.486,12.486v20.81a1.388,1.388,0,0,0,.406.981l1.912,1.912a1.556,1.556,0,0,1-1.089,2.657Zm0,0" transform="translate(-171.93 -145.479)"/><path class="a" d="M313.022,289.711H308.86a2.081,2.081,0,0,1,0-4.162h7.63v-2.775h-4.162V280h-2.775v2.775h-.694a4.856,4.856,0,0,0,0,9.711h4.162a2.081,2.081,0,0,1,0,4.162h-7.63v2.775h4.162V302.2h2.775v-2.775h.694a4.856,4.856,0,0,0,0-9.711Zm0,0" transform="translate(-251.281 -231.443)"/></g></svg>