<?xml version="1.0" encoding="utf-8"?>
<!-- Generator: Adobe Illustrator 23.0.3, SVG Export Plug-In . SVG Version: 6.00 Build 0)  -->
<svg version="1.1" id="Capa_1" xmlns="http://www.w3.org/2000/svg" xmlns:xlink="http://www.w3.org/1999/xlink" x="0px" y="0px"
	 viewBox="0 0 83.2 83.2" style="enable-background:new 0 0 83.2 83.2;" xml:space="preserve">
<style type="text/css">
	.st0{fill:#1176B0;}
</style>
<g id="money_4_" transform="translate(-0.004)">
	<path id="Path_236" class="st0" d="M1.4,83.2h31.9v-2.8H2.8V15.3h2.8v55.5c0,0.8,0.6,1.4,1.4,1.4c0,0,0,0,0,0
		c2.3,0,4.2,1.9,4.2,4.1c0,0,0,0,0,0c0,0.8,0.6,1.4,1.4,1.4h0h20.8v-2.8H13.7c-0.6-2.7-2.7-4.9-5.4-5.4V15.3h5.5
		c0.8,0,1.4-0.6,1.4-1.4l0,0V8.3h32c0.6,2.7,2.7,4.9,5.4,5.4v14h2.8V12.5c0-0.8-0.6-1.4-1.4-1.4c0,0,0,0,0,0c-2.3,0-4.2-1.9-4.2-4.1
		c0,0,0,0,0,0c0-0.8-0.6-1.4-1.4-1.4l0,0H15.3V2.8h43v25H61V1.4C61,0.6,60.4,0,59.7,0c0,0,0,0,0,0H14.6c-0.1,0-0.3,0-0.4,0
		c-0.5-0.1-0.9,0-1.3,0.4L0.4,12.9c-0.3,0.3-0.5,0.8-0.4,1.3c0,0.1,0,0.3,0,0.4v67.3C0,82.6,0.6,83.2,1.4,83.2
		C1.4,83.2,1.4,83.2,1.4,83.2z M4.7,12.5l7.7-7.7v7.7H4.7z"/>
	<path id="Path_237" class="st0" d="M40.9,33.5l-2.5-7.4c0.2-0.6,0.3-1.3,0.2-1.9c1.8-1.4,2.2-4.1,0.7-5.9c-0.2-0.3-0.5-0.5-0.7-0.7
		c0.3-2.3-1.4-4.4-3.7-4.7c-0.4,0-0.7,0-1.1,0c-1.4-1.8-4.1-2.2-5.9-0.7c-0.3,0.2-0.5,0.5-0.7,0.7c-2.3-0.3-4.4,1.4-4.7,3.7
		c0,0.4,0,0.7,0,1.1c-1.8,1.4-2.2,4.1-0.7,5.9c0.2,0.3,0.5,0.5,0.7,0.7c0,0.3,0,0.5,0,0.8l-2.9,8.5c-0.3,0.7,0.1,1.5,0.9,1.8
		c0.3,0.1,0.7,0.1,1,0l2.8-1.1l1.5,2.6c0.2,0.4,0.7,0.7,1.2,0.7h0.1c0.5-0.1,1-0.4,1.2-0.9l2.1-6c0.1,0,0.1,0,0.2,0l2,5.9
		c0.2,0.5,0.6,0.9,1.2,0.9h0.1c0.5,0,1-0.3,1.2-0.7l1.5-2.6l2.8,1.1c0.7,0.3,1.5,0,1.8-0.8C41,34.1,41,33.8,40.9,33.5L40.9,33.5z
		 M24.5,19.5c0.7-0.3,1.1-1.1,0.8-1.8c0,0,0-0.1-0.1-0.1c-0.3-0.7,0-1.6,0.7-1.9c0.4-0.2,0.8-0.2,1.2,0c0.7,0.3,1.5,0,1.8-0.7
		c0,0,0-0.1,0.1-0.1c0.3-0.8,1.1-1.1,1.8-0.9c0.4,0.1,0.7,0.5,0.9,0.9c0.3,0.7,1.1,1.1,1.8,0.8c0,0,0.1,0,0.1-0.1
		c0.7-0.3,1.6,0,1.9,0.7c0.2,0.4,0.2,0.8,0,1.2c-0.3,0.7,0,1.5,0.7,1.8c0,0,0.1,0,0.1,0.1c0.8,0.3,1.1,1.1,0.9,1.8
		c-0.1,0.4-0.5,0.7-0.9,0.9c-0.7,0.3-1.1,1.1-0.8,1.8c0,0,0,0.1,0.1,0.1c0.3,0.7,0,1.6-0.7,1.9c-0.4,0.2-0.8,0.2-1.2,0
		c-0.7-0.3-1.5,0-1.8,0.7c0,0,0,0.1-0.1,0.1c-0.3,0.8-1.1,1.1-1.8,0.9c-0.4-0.1-0.7-0.5-0.9-0.9c-0.2-0.6-0.7-0.9-1.3-0.9
		c-0.2,0-0.4,0-0.6,0.1c-0.7,0.3-1.6,0-1.9-0.7c-0.2-0.4-0.2-0.8,0-1.2c0.3-0.7,0-1.5-0.7-1.8c0,0-0.1,0-0.1-0.1
		c-0.8-0.3-1.1-1.1-0.9-1.8C23.8,19.9,24.1,19.6,24.5,19.5L24.5,19.5z M26.5,32.6l-0.6-1c-0.3-0.6-1.1-0.9-1.7-0.6l-1,0.4l1.1-3.3
		c0.8,0.6,1.9,0.9,2.9,0.7c0.1,0.2,0.3,0.3,0.4,0.4L26.5,32.6z M36.3,31c-0.6-0.3-1.4,0-1.7,0.6l-0.6,1l-1-2.9
		c0.3-0.2,0.6-0.5,0.9-0.8c0.8,0.1,1.7,0,2.4-0.4l1,3L36.3,31z"/>
	<path id="Path_238" class="st0" d="M52.7,5.5h2.8v2.8h-2.8V5.5z"/>
	<path id="Path_239" class="st0" d="M5.5,74.9h2.8v2.8H5.5V74.9z"/>
	<path id="Path_240" class="st0" d="M12.5,41.6H18v2.8h-5.5V41.6z"/>
	<path id="Path_241" class="st0" d="M20.8,41.6h8.3v2.8h-8.3V41.6z"/>
	<path id="Path_242" class="st0" d="M12.5,47.2h16.7v2.8H12.5V47.2z"/>
	<path id="Path_243" class="st0" d="M12.5,52.7h11.1v2.8H12.5V52.7z"/>
	<path id="Path_244" class="st0" d="M26.4,52.7h2.8v2.8h-2.8V52.7z"/>
	<path id="Path_245" class="st0" d="M12.5,58.3h16.7V61H12.5V58.3z"/>
	<path id="Path_246" class="st0" d="M31.9,58.3h4.2V61h-4.2V58.3z"/>
	<path id="Path_247" class="st0" d="M31.9,52.7h4.2v2.8h-4.2V52.7z"/>
	<path id="Path_248" class="st0" d="M31.9,47.2h4.2v2.8h-4.2V47.2z"/>
	<path id="Path_249" class="st0" d="M31.9,41.6h8.3v2.8h-8.3V41.6z"/>
	<path id="Path_250" class="st0" d="M30.5,63.8c-2.3,0-4.2,1.9-4.2,4.2c0,2.3,1.9,4.2,4.2,4.2c2.3,0,4.2-1.9,4.2-4.2l0,0
		C34.7,65.7,32.8,63.8,30.5,63.8z M30.5,69.4c-0.8,0-1.4-0.6-1.4-1.4s0.6-1.4,1.4-1.4c0.8,0,1.4,0.6,1.4,1.4l0,0
		C31.9,68.7,31.3,69.4,30.5,69.4z"/>
	<path id="Path_251" class="st0" d="M15.3,66.6h8.3v2.8h-8.3V66.6z"/>
	<path id="Path_252" class="st0" d="M80.5,74.3V54.1c0-7.6-5.6-14-13.1-15.1l3.2-6.5c0.3-0.7,0.1-1.5-0.6-1.9
		c-0.2-0.1-0.4-0.1-0.6-0.1H49.9c-0.8,0-1.4,0.6-1.4,1.4c0,0.2,0,0.4,0.1,0.6l3.2,6.5c-7.5,1.1-13.1,7.5-13.1,15.1v20.2l-1.5,1.5
		c-1.7,1.7-1.7,4.4,0,6.1c0.8,0.8,1.9,1.3,3.1,1.3h38.5c2.4,0,4.3-1.9,4.3-4.3c0-1.1-0.5-2.2-1.3-3.1L80.5,74.3z M78.9,80.5H40.4
		c-0.9,0-1.6-0.7-1.5-1.6c0-0.4,0.2-0.8,0.5-1.1l1.9-1.9c0.3-0.3,0.4-0.6,0.4-1V54.1c0-6.9,5.6-12.5,12.5-12.5
		c0.8,0,1.4-0.6,1.4-1.4c0-0.2,0-0.4-0.1-0.6l-3.2-6.3h14.9L64,39.6c-0.3,0.7-0.1,1.5,0.6,1.9c0.2,0.1,0.4,0.1,0.6,0.1
		c6.9,0,12.5,5.6,12.5,12.5v20.8c0,0.4,0.1,0.7,0.4,1l1.9,1.9c0.6,0.6,0.6,1.6,0,2.2C79.7,80.3,79.3,80.5,78.9,80.5L78.9,80.5z"/>
	<path id="Path_253" class="st0" d="M61.7,58.3h-4.2c-1.1,0-2.1-0.9-2.1-2.1c0-1.1,0.9-2.1,2.1-2.1h7.6v-2.8H61v-2.8h-2.8v2.8h-0.7
		c-2.7,0-4.8,2.2-4.8,4.9c0,2.6,2.2,4.7,4.8,4.8h4.2c1.1,0,2.1,0.9,2.1,2.1c0,1.1-0.9,2.1-2.1,2.1h-7.6V68h4.2v2.8H61V68h0.7
		c2.7,0,4.8-2.2,4.8-4.9C66.5,60.4,64.4,58.3,61.7,58.3L61.7,58.3z"/>
</g>
</svg>
