<svg xmlns="http://www.w3.org/2000/svg" width="89.225" height="80.654" viewBox="0 0 89.225 80.654">
  <g id="contract" transform="translate(0.501 0.5)">
    <path id="Path_59" data-name="Path 59" d="M78.922,0H21.872a8.945,8.945,0,0,0-8.979,8.88l-.368,50.236H1.392A1.449,1.449,0,0,0,0,60.6v6.914A12.114,12.114,0,0,0,11.43,79.571v.083H59.472V79.56c.357.015.573.093.819.093h.034a12.077,12.077,0,0,0,12.006-12.14V23.575h14.5a1.463,1.463,0,0,0,1.392-1.5V9.387A9.371,9.371,0,0,0,78.922,0ZM12.055,76.8h-.01a9.259,9.259,0,0,1-9.188-9.282V61.973H48.221V67.49a12.093,12.093,0,0,0,3.53,8.581,5.131,5.131,0,0,1,.752.725Zm57.418-9.283a9.226,9.226,0,0,1-9.15,9.283h-.029A9.283,9.283,0,0,1,51.078,67.5V60.6a1.48,1.48,0,0,0-1.429-1.487H15.383l.368-50.226a6.086,6.086,0,0,1,6.122-6.032h50.3a9.749,9.749,0,0,0-2.7,6.568Zm15.895-58.1v11.3H72.331V9.422A6.617,6.617,0,0,1,78.88,2.857h.04A6.513,6.513,0,0,1,85.369,9.4Zm0,0" transform="translate(0 0)" fill="#fff" stroke="#174896" stroke-width="1"/>
    <path id="Path_60" data-name="Path 60" d="M167.436,79.174,174.8,84.21a1.407,1.407,0,0,0,1.6,0l7.344-5.035a11.1,11.1,0,0,0,4.436-8.465V60.521a1.4,1.4,0,0,0-.762-1.283L176.2,53.721a1.4,1.4,0,0,0-1.249,0l-11.195,5.5A1.394,1.394,0,0,0,163,60.5V70.71a11.1,11.1,0,0,0,4.44,8.464ZM165.855,61.4l9.733-4.8,9.733,4.816v9.3a8.233,8.233,0,0,1-3.19,6.1l-6.56,4.487-6.534-4.486a8.229,8.229,0,0,1-3.183-6.1Zm0,0" transform="translate(-133.886 -44.006)" fill="#fff" stroke="#174896" stroke-width="1"/>
    <path id="Path_61" data-name="Path 61" d="M204.832,124.251a1.427,1.427,0,0,0,1.012.428h0a1.431,1.431,0,0,0,1.01-.423l5.684-5.686a1.429,1.429,0,0,0-2.02-2.022l-4.669,4.668-1.866-1.884a1.43,1.43,0,1,0-2.031,2.013Zm0,0" transform="translate(-165.547 -95.389)" fill="#fff" stroke="#174896" stroke-width="1"/>
    <path id="Path_62" data-name="Path 62" d="M168.719,248h-34.29a1.429,1.429,0,1,0,0,2.858h34.29a1.429,1.429,0,1,0,0-2.858Zm0,0" transform="translate(-109.247 -203.708)" fill="#fff" stroke="#174896" stroke-width="1"/>
    <path id="Path_63" data-name="Path 63" d="M168.719,285h-34.29a1.429,1.429,0,0,0,0,2.858h34.29a1.429,1.429,0,1,0,0-2.858Zm0,0" transform="translate(-109.247 -234.1)" fill="#fff" stroke="#174896" stroke-width="1"/>
  </g>
</svg>
