<svg xmlns="http://www.w3.org/2000/svg" width="85.024" height="56.323" viewBox="0 0 85.024 56.323"><defs><style>.a{fill:#1176b0;}</style></defs><path class="a" d="M82.19,96.709V61.089c0-2.014-1.907-3.653-4.251-3.653H7.085c-2.344,0-4.251,1.639-4.251,3.653v44.145c0,2.014,1.907,3.653,4.251,3.653H77.939c2.344,0,4.251-1.639,4.251-3.653a1.433,1.433,0,0,1,2.834,0c0,3.357-3.178,6.089-7.085,6.089H7.085c-3.907,0-7.085-2.732-7.085-6.089V61.089C0,57.732,3.178,55,7.085,55H77.939c3.907,0,7.085,2.732,7.085,6.089v35.62a1.433,1.433,0,0,1-2.834,0ZM16.3,67.178h7.44a1.232,1.232,0,1,0,0-2.436H16.3c-3.126,0-5.668,2.185-5.668,4.871v7.916c0,2.686,2.543,4.871,5.668,4.871h9.211c3.126,0,5.668-2.185,5.668-4.871V69.614a1.433,1.433,0,0,0-2.834,0v7.916a2.661,2.661,0,0,1-2.834,2.436H16.3a2.661,2.661,0,0,1-2.834-2.436V69.614A2.661,2.661,0,0,1,16.3,67.178ZM57.984,79.553a2.687,2.687,0,1,1,2.657,2.283A2.49,2.49,0,0,1,57.984,79.553Zm9.17-3.875a1.1,1.1,0,0,0,0-1.722,10.3,10.3,0,0,0-13.026,0,1.1,1.1,0,0,0,0,1.722,1.586,1.586,0,0,0,2,0,7.132,7.132,0,0,1,9.018,0,1.586,1.586,0,0,0,2,0Zm5.261-4.521a1.1,1.1,0,0,0,0-1.722,18.622,18.622,0,0,0-23.548,0,1.1,1.1,0,0,0,0,1.722,1.586,1.586,0,0,0,2,0,15.451,15.451,0,0,1,19.539,0A1.586,1.586,0,0,0,72.415,71.157ZM43.043,91.077a1.329,1.329,0,0,0-1.417-1.218H12.045a1.232,1.232,0,1,0,0,2.436H41.626A1.329,1.329,0,0,0,43.043,91.077Zm9.388-1.218H48.889a1.232,1.232,0,1,0,0,2.436h3.543a1.232,1.232,0,1,0,0-2.436Zm6.908,2.436h3.366a1.232,1.232,0,1,0,0-2.436H59.34a1.232,1.232,0,1,0,0,2.436ZM12.045,98.232a1.232,1.232,0,1,0,0,2.436h12.4a1.232,1.232,0,1,0,0-2.436Zm18.245,0a1.232,1.232,0,1,0,0,2.436h.886a1.232,1.232,0,1,0,0-2.436Z" transform="translate(0 -55)"/></svg>