<svg id="customer-service" xmlns="http://www.w3.org/2000/svg" width="23.318" height="21.072" viewBox="0 0 23.318 21.072">
  <path id="Path_154" data-name="Path 154" d="M2.96,100.7V94.69a2.02,2.02,0,0,1,.085-.582q-.089.007-.176.019V89.683a.683.683,0,0,0-1.366,0v4.992A3.692,3.692,0,0,0,0,97.7a3.481,3.481,0,0,0,3.044,3.587,2.043,2.043,0,0,1-.084-.587Z" transform="translate(0.003 -86.05)" fill="#fff"/>
  <path id="Path_155" data-name="Path 155" d="M106.806,389.572h-2.914a2.143,2.143,0,0,0-2.028,1.457h-.158a2.234,2.234,0,0,1-2.123-1.548,4.954,4.954,0,0,1-1.421-.073,3.6,3.6,0,0,0,3.544,2.987h.158a2.143,2.143,0,0,0,2.028,1.457h2.914a2.14,2.14,0,0,0,0-4.28Z" transform="translate(-93.689 -372.78)" fill="#fff"/>
  <path id="Path_156" data-name="Path 156" d="M99.694,31.557a5.826,5.826,0,0,1,11.582,0,4.894,4.894,0,0,1,1.389.071,7.2,7.2,0,0,0-14.36,0,4.9,4.9,0,0,1,1.389-.071Z" transform="translate(-93.826 -24.964)" fill="#fff"/>
  <path id="Path_157" data-name="Path 157" d="M355.254,199h-1.547a.684.684,0,0,0-.683.683v6.01a.684.684,0,0,0,.683.683h1.547a.684.684,0,0,0,.683-.683v-6.01a.684.684,0,0,0-.683-.683Z" transform="translate(-336.947 -191.041)" fill="#fff"/>
  <path id="Path_158" data-name="Path 158" d="M95.683,206.376h1.548a.684.684,0,0,0,.683-.683v-6.01a.684.684,0,0,0-.683-.683H95.683a.684.684,0,0,0-.683.683v6.01A.684.684,0,0,0,95.683,206.376Z" transform="translate(-90.671 -191.041)" fill="#fff"/>
  <path id="Path_159" data-name="Path 159" d="M445.126,201.223a2.018,2.018,0,0,1,.085.582v6.01a2.03,2.03,0,0,1-.085.582,3.635,3.635,0,0,0,0-7.174Z" transform="translate(-424.854 -193.163)" fill="#fff"/>
</svg>
