<svg id="Facebook" xmlns="http://www.w3.org/2000/svg" width="24.997" height="24.998" viewBox="0 0 24.997 24.998">
  <path id="Path_31" data-name="Path 31" d="M23.618,25A1.38,1.38,0,0,0,25,23.618V1.38A1.38,1.38,0,0,0,23.618,0H1.38A1.379,1.379,0,0,0,0,1.38V23.618A1.38,1.38,0,0,0,1.38,25H23.618" fill="#1176b0"/>
  <path id="Path_32" data-name="Path 32" d="M110.529,59.887v-9.68h3.249l.486-3.773h-3.736V44.025c0-1.092.3-1.837,1.87-1.837h2V38.814a26.7,26.7,0,0,0-2.911-.149c-2.88,0-4.852,1.758-4.852,4.987v2.782h-3.258v3.773h3.258v9.68h3.9" transform="translate(-93.282 -34.89)" fill="#fff"/>
</svg>
