<svg xmlns="http://www.w3.org/2000/svg" width="88.808" height="88.112" viewBox="0 0 88.808 88.112">
  <g id="home-house-person-security-protect" transform="translate(0.642 0.5)">
    <path id="Path_66" data-name="Path 66" d="M47.515,44.737l-2.05,2.05,4.1,4.1a1.45,1.45,0,0,0,2.05,0l8.2-8.2-2.05-2.05-7.177,7.177Z" transform="translate(18.225 15.386)" fill="#fff" stroke="#174896" stroke-width="1"/>
    <path id="Path_67" data-name="Path 67" d="M88.307,49.966l-17.4-7.25a1.328,1.328,0,0,0-1.1,0l-9.6,3.987V31.986a4.293,4.293,0,0,0,1.856.42,4.118,4.118,0,0,0,1.015-.116A4.35,4.35,0,0,0,65.948,30l.261-.508a4.35,4.35,0,0,0-1.334-5.466l-3.219-2.334V10.439A4.35,4.35,0,0,0,60.206,2h-8.7a4.337,4.337,0,0,0-1.466,8.424v2.828L36.658,3.522a4.308,4.308,0,0,0-5.1,0L3.337,24.025A4.35,4.35,0,0,0,2,29.492L2.264,30a4.324,4.324,0,0,0,5.742,1.986V61.45H6.556a4.35,4.35,0,0,0,0,8.7H52.68a16.043,16.043,0,0,0,3.494,5.278L69.326,88.579a1.47,1.47,0,0,0,2.059,0L84.537,75.428a15.837,15.837,0,0,0,4.669-11.281V51.3a1.431,1.431,0,0,0-.9-1.334ZM51.506,4.9h8.7a1.45,1.45,0,0,1,0,2.9h-8.7a1.45,1.45,0,0,1,0-2.9Zm7.25,5.8v8.888l-5.814-4.234V10.7ZM7.02,29.216a1.353,1.353,0,0,1-1.2.247,1.415,1.415,0,0,1-.957-.754L4.6,28.2a1.45,1.45,0,0,1,.449-1.827L33.25,5.857a1.482,1.482,0,0,1,1.711,0l28.2,20.517A1.45,1.45,0,0,1,63.61,28.2l-.261.507a1.415,1.415,0,0,1-.957.754,1.353,1.353,0,0,1-1.2-.247L36.7,11.033a4.307,4.307,0,0,0-5.191,0ZM6.556,67.25a1.45,1.45,0,0,1-1.45-1.45,1.376,1.376,0,0,1,.45-1.03,1.346,1.346,0,0,1,1-.421H51.52a15.989,15.989,0,0,0,.29,2.9Zm20.3-32.567,2.334-1.566.725,1.435a1.452,1.452,0,0,0,1.827.7l6.539-2.624,3.074,2.059V36.8a7.25,7.25,0,0,1-14.5,0ZM24.971,32.45h-.913a10.15,10.15,0,0,1,20.1,0h-.914L39.253,29.8a1.414,1.414,0,0,0-1.334-.145l-6.019,2.4-.855-1.711a1.485,1.485,0,0,0-.914-.754,1.45,1.45,0,0,0-1.174.2Zm7.685,14.384a9.121,9.121,0,0,0,2.9,0V49.85h-2.9Zm8.7,5.916a4.363,4.363,0,0,1,4.35,4.35v4.35h-23.2V57.1a4.363,4.363,0,0,1,4.35-4.35ZM52.4,49.966a1.431,1.431,0,0,0-.9,1.334V61.45H48.6V57.1a7.25,7.25,0,0,0-7.25-7.25h-2.9v-3.9a10.127,10.127,0,0,0,5.8-9.149V35.35H45.7a1.45,1.45,0,0,0,1.45-1.45,13.05,13.05,0,0,0-26.1,0,1.45,1.45,0,0,0,1.45,1.45h1.45V36.8a10.127,10.127,0,0,0,5.8,9.149v3.9h-2.9A7.25,7.25,0,0,0,19.6,57.1v4.35H10.9V29.941L33.23,13.353a1.48,1.48,0,0,1,1.74,0L57.3,29.941v17.98ZM86.3,64.147a12.966,12.966,0,0,1-3.828,9.222L70.356,85.505,58.234,73.369a12.966,12.966,0,0,1-3.828-9.222V52.271l15.95-6.655,15.95,6.655Z" transform="translate(-1.54 -2)" fill="#fff" stroke="#174896" stroke-width="1"/>
  </g>
</svg>
