<svg xmlns="http://www.w3.org/2000/svg" width="25.003" height="24.997" viewBox="0 0 25.003 24.997">
  <path id="instagram" d="M12.429,37.915a6.409,6.409,0,1,0,6.409,6.409A6.4,6.4,0,0,0,12.429,37.915Zm0,10.576A4.167,4.167,0,1,1,16.6,44.324a4.174,4.174,0,0,1-4.167,4.167ZM20.6,37.653A1.495,1.495,0,1,1,19.1,36.158,1.491,1.491,0,0,1,20.6,37.653ZM24.84,39.17a7.4,7.4,0,0,0-2.019-5.238,7.446,7.446,0,0,0-5.238-2.019c-2.064-.117-8.25-.117-10.314,0a7.436,7.436,0,0,0-5.238,2.014A7.422,7.422,0,0,0,.013,39.164c-.117,2.064-.117,8.25,0,10.314a7.4,7.4,0,0,0,2.019,5.238A7.456,7.456,0,0,0,7.27,56.735c2.064.117,8.25.117,10.314,0a7.4,7.4,0,0,0,5.238-2.019,7.446,7.446,0,0,0,2.019-5.238C24.957,47.414,24.957,41.234,24.84,39.17ZM22.174,51.692A4.218,4.218,0,0,1,19.8,54.068c-1.645.653-5.55.5-7.368.5s-5.729.145-7.368-.5a4.218,4.218,0,0,1-2.376-2.376c-.653-1.645-.5-5.55-.5-7.368s-.145-5.729.5-7.368a4.218,4.218,0,0,1,2.376-2.376c1.645-.653,5.55-.5,7.368-.5s5.729-.145,7.368.5a4.218,4.218,0,0,1,2.376,2.376c.653,1.645.5,5.55.5,7.368S22.827,50.052,22.174,51.692Z" transform="translate(0.075 -31.825)" fill="#1176b0"/>
</svg>
