<svg xmlns="http://www.w3.org/2000/svg" width="13.142" height="13.499" viewBox="0 0 13.142 13.499">
  <g id="Group_71" data-name="Group 71" transform="translate(1.945 -2.836)">
    <path id="Path_29" data-name="Path 29" d="M6.974,146.286a1.75,1.75,0,1,0,1.75,1.75A1.75,1.75,0,0,0,6.974,146.286Zm0,2.786h0a1.036,1.036,0,1,1,1.036-1.036A1.036,1.036,0,0,1,6.974,149.072Z" transform="translate(-7.169 -138.451)" fill="#fff"/>
    <path id="Path_30" data-name="Path 30" d="M141.13,187.037h-8.071a.357.357,0,1,0,0,.714h8.071a.357.357,0,1,0,0-.714Z" transform="translate(-130.29 -177.809)" fill="#fff"/>
    <path id="Path_31" data-name="Path 31" d="M6.974,0a1.75,1.75,0,1,0,1.75,1.75A1.75,1.75,0,0,0,6.974,0Zm0,2.786A1.036,1.036,0,1,1,8.01,1.75,1.036,1.036,0,0,1,6.974,2.786Z" transform="translate(-7.169 2.836)" fill="#fff"/>
    <path id="Path_32" data-name="Path 32" d="M133.059,41.465h8.071a.357.357,0,1,0,0-.714h-8.071a.357.357,0,1,0,0,.714Z" transform="translate(-130.29 -36.523)" fill="#fff"/>
    <path id="Path_33" data-name="Path 33" d="M6.974,292.571a1.75,1.75,0,1,0,1.75,1.75A1.75,1.75,0,0,0,6.974,292.571Zm1.036,1.75a1.036,1.036,0,0,1-1.036,1.036h0a1.036,1.036,0,1,1,1.036-1.036Z" transform="translate(-7.169 -279.736)" fill="#fff"/>
    <path id="Path_34" data-name="Path 34" d="M141.13,333.322h-8.071a.357.357,0,1,0,0,.714h8.071a.357.357,0,1,0,0-.714Z" transform="translate(-130.29 -319.094)" fill="#fff"/>
  </g>
</svg>
