<svg id="Group_42" data-name="Group 42" xmlns="http://www.w3.org/2000/svg" width="9.68" height="12.321" viewBox="0 0 9.68 12.321">
  <path id="Path_1" data-name="Path 1" d="M60.441,4.4H60v-.44a3.961,3.961,0,1,0-7.921,0V4.4h-.44a.44.44,0,0,0-.44.44v7.041a.44.44,0,0,0,.44.44h8.8a.44.44,0,0,0,.44-.44V4.84a.44.44,0,0,0-.44-.44Zm-7.481-.44a3.08,3.08,0,0,1,6.161,0V4.4H52.961ZM60,11.441H52.081V5.28H60Z" transform="translate(-51.201)" fill="#fff"/>
  <path id="Path_2" data-name="Path 2" d="M189.837,256.712a1.071,1.071,0,1,0-1.368,1.364v.78a.357.357,0,1,0,.715,0v-.78A1.069,1.069,0,0,0,189.837,256.712Zm-1.01.715a.357.357,0,1,1,.357-.357.357.357,0,0,1-.357.357Z" transform="translate(-183.987 -248.319)" fill="#fff"/>
</svg>
