<svg xmlns="http://www.w3.org/2000/svg" xmlns:xlink="http://www.w3.org/1999/xlink" width="372.146" height="93.01" viewBox="0 0 372.146 93.01"><defs><style>.a,.c{fill:#fff;}.b{clip-path:url(#a);}.c{fill-rule:evenodd;}</style><clipPath id="a"><rect class="a" width="372.146" height="93.01" transform="translate(227.927 463.68)"/></clipPath></defs><g transform="translate(-227.927 -463.68)"><g class="b"><path class="c" d="M333.108,522.019c0,1.241-.895.633-.895,1.089a.2.2,0,0,0,.221.215c.37,0,.754-.051,1.12-.051.661,0,1.326.087,1.983.087a3.656,3.656,0,0,0,3.812-3.428c0-1.924-1.612-3.242-3.952-3.242-.409,0-3.222.075-3.222.582,0,.064.048.182.129.182.15-.008.282-.029.38-.029.3,0,.424.117.424.73Zm1.585-.252v-3.885c0-.4.025-.536.138-.622a1.057,1.057,0,0,1,.59-.126c1.454,0,2.207,1.5,2.207,2.864,0,1.693-.918,2.935-2.15,2.935-.746,0-.785-.526-.785-1.166"/><path class="c" d="M346.029,520.347c0-.339.026-.348.662-.348,1.019,0,.836,1.011,1.235,1.011.165,0,.2-.244.2-.506,0-.242-.035-.505-.035-.622l.044-1.071a.211.211,0,0,0-.2-.192c-.129,0-.216.109-.286.359-.168.564-.512.6-1.046.6h-.309c-.211,0-.264-.088-.264-.378V517.66c0-.418.156-.45.672-.45h.278c1.147,0,1.212,1.043,1.556,1.043.176,0,.211-.275.211-.593,0-.265-.019-.536-.019-.758,0-.166-.125-.166-.247-.166l-.4.018-1.473.041c-.3.008-.778,0-1.138,0-.594,0-1.185-.059-1.782-.059-.156,0-.237.067-.237.2,0,.3.438.109.749.4.122.11.147.256.147.7v3.984c0,.68-.092.766-.719.9a.187.187,0,0,0-.177.187c0,.136.081.214.232.214.223,0,.443-.022.664-.04.466-.023.937-.031,1.4-.031,1,0,2.005.049,3.008.049.221,0,.175-.561.26-1.039a3.312,3.312,0,0,0,.083-.5.2.2,0,0,0-.214-.213c-.14,0-.221.094-.351.365a1.646,1.646,0,0,1-1.591.973c-.7,0-.915-.367-.915-1.058Z"/><path class="c" d="M360.866,520.077c-.312.775-.523,1.6-.889,2.361-.257.555-.831.3-.831.628,0,.146.113.236.3.236.315,0,.636-.059.953-.059.3,0,.6.049.908.049.228,0,.332-.08.332-.226,0-.446-.98-.049-.98-.765a3.329,3.329,0,0,1,.268-1.077c.046-.164.084-.185.269-.185h1.536c.2,0,.222.021.3.221l.4,1.091a.879.879,0,0,1,.064.261c0,.329-.705.1-.705.454,0,.146.1.226.291.226.47,0,.928-.057,1.406-.057.446,0,.881.048,1.323.048.185,0,.3-.078.3-.223,0-.255-.3-.223-.463-.243-.2-.019-.317-.174-.5-.641l-2.141-5.3c-.109-.291-.138-.31-.4-.31-.284,0-.352.057-.489.417Zm1.111-1.649.7,1.9a.325.325,0,0,1,.037.146c0,.07-.037.088-.194.088H361.4c-.117,0-.175-.039-.175-.105a.789.789,0,0,1,.043-.2Z"/><path class="c" d="M373.356,519.581c-.2,0-.24-.058-.24-.251v-1.293c0-.556.01-.775.489-.855.149-.03.411-.047.411-.231a.2.2,0,0,0-.232-.215c-.493,0-.982.06-1.477.06s-.987-.06-1.477-.06c-.159,0-.24.066-.24.2,0,.3.436.11.748.4.122.109.148.256.148.7v3.983c0,.68-.091.764-.722.9a.184.184,0,0,0-.174.186c0,.133.081.211.23.211.49,0,.982-.059,1.472-.059s.99.059,1.482.059c.157,0,.242-.069.242-.2,0-.281-.5-.164-.752-.4-.12-.108-.148-.255-.148-.7V520.3c0-.253.01-.264.268-.264h2c.164,0,.174.108.174.235v1.748c0,.66-.067.764-.722.9a.183.183,0,0,0-.175.186.2.2,0,0,0,.23.211c.493,0,.979-.059,1.471-.059s.993.059,1.494.059c.155,0,.237-.069.237-.2,0-.215-.274-.215-.416-.241-.472-.1-.492-.391-.492-.856v-3.983c0-.009-.009-.087-.009-.183a.609.609,0,0,1,.5-.672h-.007c.063,0,.423-.047.423-.231,0-.137-.082-.215-.237-.215-.491,0-.986.06-1.474.06s-.988-.06-1.484-.06c-.155,0-.237.066-.237.2,0,.215.269.215.406.245.481.106.491.41.491.855v1.293c0,.212-.026.251-.2.251Z"/><path class="c" d="M389.3,519.991a3.5,3.5,0,0,0-3.669-3.362,3.447,3.447,0,0,0-3.444,3.442,3.56,3.56,0,0,0,7.113-.08m-1.7.271c0,1.647-.685,2.786-1.676,2.786-1.1,0-2.009-1.486-2.009-3.291,0-1.642.684-2.77,1.684-2.77,1.438,0,2,2.07,2,3.275"/><path class="c" d="M397.438,519.88c.878-.137,1.683-.464,1.683-1.534a1.622,1.622,0,0,0-1.813-1.611c-.769,0-1.533.059-2.3.059-.454,0-.916-.059-1.369-.059-.158,0-.242.067-.242.2,0,.305.434.111.749.4.121.109.149.256.149.7v3.983c0,.68-.091.765-.726.9a.184.184,0,0,0-.172.186c0,.134.084.212.233.212.48,0,.95-.061,1.434-.061s.951.061,1.436.061c.155,0,.238-.07.238-.2,0-.28-.507-.176-.748-.4-.124-.107-.15-.254-.15-.7v-1.65c0-.185.026-.224.168-.224.345,0,.442.1.76.778l1.015,2.143c.084.185.13.227.281.227.3,0,.6-.033.907-.033.249,0,.509.033.758.033.185,0,.285-.068.285-.205,0-.119-.052-.175-.209-.212-.337-.071-.382-.118-.624-.616l-.757-1.561a1.169,1.169,0,0,0-.982-.819m-1.6-.485v-1.681c0-.234.019-.509.52-.509a1.278,1.278,0,0,1-.258,2.538c-.227,0-.262-.056-.262-.348"/><path class="c" d="M407.781,519.88c.875-.137,1.685-.464,1.685-1.534a1.627,1.627,0,0,0-1.816-1.611c-.766,0-1.539.059-2.306.059-.454,0-.917-.059-1.368-.059-.157,0-.242.067-.242.2,0,.305.432.111.748.4.122.109.15.256.15.7v3.983c0,.68-.092.765-.724.9a.184.184,0,0,0-.174.186.2.2,0,0,0,.231.212c.481,0,.956-.061,1.435-.061s.954.061,1.433.061c.163,0,.241-.07.241-.2,0-.28-.5-.176-.748-.4-.123-.107-.151-.254-.151-.7v-1.65c0-.185.028-.224.17-.224.343,0,.444.1.759.778l1.02,2.143c.082.185.128.227.274.227.307,0,.606-.033.911-.033.249,0,.505.033.754.033.185,0,.286-.068.286-.205,0-.119-.05-.175-.208-.212-.337-.071-.379-.118-.624-.616l-.755-1.561a1.169,1.169,0,0,0-.981-.819m-1.606-.485v-1.681c0-.234.023-.509.522-.509a1.278,1.278,0,0,1-.259,2.538c-.224,0-.263-.056-.263-.348"/><path class="c" d="M421.1,519.991a3.5,3.5,0,0,0-3.667-3.362,3.446,3.446,0,0,0-3.442,3.442,3.558,3.558,0,0,0,7.109-.08m-1.7.271c0,1.647-.686,2.789-1.681,2.789-1.1,0-2.006-1.489-2.006-3.294,0-1.642.684-2.77,1.686-2.77,1.436,0,2,2.07,2,3.275"/><path class="c" d="M429.511,517.241c0-.194-.036-.271-.16-.341a3.237,3.237,0,0,0-1.283-.271,2.386,2.386,0,0,0-2.585,2.1c0,2.019,3.223,1.633,3.223,3.194,0,.641-.565,1.1-1.363,1.1-1.629,0-1.228-1.719-1.747-1.719-.165,0-.213.127-.213.57,0,.1-.012.257-.012.429a1.111,1.111,0,0,0,.131.673,3.749,3.749,0,0,0,1.868.455,2.43,2.43,0,0,0,2.6-2.32c0-2.422-3.19-1.759-3.19-3.129a1.039,1.039,0,0,1,1.1-.925c1.118,0,1.024,1.422,1.427,1.422.183,0,.208-.261.208-.594,0-.2-.007-.436-.007-.64"/><path class="c" d="M444.334,519.67l-1.21-1.857a.968.968,0,0,1-.2-.446c0-.338.74-.039.74-.431,0-.151-.1-.2-.333-.2-.507,0-1.015.049-1.53.049-.461,0-.933-.049-1.392-.049-.236,0-.325.049-.325.194,0,.251.288.241.453.264s.322.185.567.552l1.8,2.746v1.527c0,.66-.094.766-.725.9a.177.177,0,0,0-.171.187c0,.134.071.212.231.212.491,0,.987-.061,1.479-.061s.993.061,1.48.061c.158,0,.243-.068.243-.2,0-.215-.261-.215-.408-.242-.487-.105-.487-.4-.487-.855v-1.835l1.292-1.98c.453-.7.563-.926,1.2-1.01.167-.034.243-.1.243-.225,0-.138-.105-.205-.3-.205-.328,0-.652.038-.972.038-.355,0-.716-.049-1.069-.049-.194,0-.3.069-.3.206,0,.466.879.07.879.554a1.911,1.911,0,0,1-.263.631Z"/><path class="c" d="M459.79,520.463c0-.116.025-.154.125-.154.362,0,.849.283,1.347.283a1.932,1.932,0,0,0,1.931-1.99c0-1.379-1.164-1.866-2.285-1.866-.709,0-1.4.06-2.111.06-.425,0-.844-.06-1.267-.06-.16,0-.242.067-.242.2,0,.3.434.108.747.4.122.11.152.257.152.7v3.984c0,.679-.092.765-.725.9a.188.188,0,0,0-.174.186c0,.134.082.211.233.211.487,0,.972-.06,1.464-.06s.972.06,1.459.06c.158,0,.242-.069.242-.2,0-.215-.277-.215-.419-.242-.477-.1-.477-.409-.477-.854Zm0-.861v-1.556c0-.433.036-.894.58-.894a1.328,1.328,0,0,1,1.16,1.468c0,.853-.444,1.379-1.121,1.379-.269,0-.619-.056-.619-.4"/><path class="c" d="M471.15,519.88c.876-.137,1.683-.464,1.683-1.534a1.626,1.626,0,0,0-1.815-1.611c-.767,0-1.533.059-2.3.059-.453,0-.918-.059-1.37-.059-.154,0-.243.067-.243.2,0,.305.435.111.751.4.12.109.148.256.148.7v3.983c0,.68-.092.764-.726.9a.189.189,0,0,0-.173.186c0,.134.089.212.236.212.478,0,.951-.061,1.434-.061s.949.061,1.436.061c.155,0,.235-.07.235-.2,0-.28-.505-.176-.748-.4-.123-.107-.148-.254-.148-.7v-1.65c0-.185.025-.224.167-.224.343,0,.443.1.762.778l1.018,2.143c.08.185.13.227.273.227.309,0,.607-.033.911-.033.252,0,.505.033.757.033.183,0,.286-.068.286-.205,0-.119-.053-.175-.208-.212-.339-.071-.382-.118-.624-.616l-.757-1.56c-.266-.547-.49-.742-.982-.82m-1.6-.485v-1.681c0-.234.018-.509.522-.509a1.279,1.279,0,0,1-.264,2.538c-.222,0-.258-.056-.258-.348"/><path class="c" d="M480.02,520.347c0-.337.025-.348.667-.348,1.016,0,.826,1.011,1.227,1.011.167,0,.208-.244.208-.506,0-.244-.041-.505-.041-.622l.047-1.071a.216.216,0,0,0-.2-.192c-.129,0-.211.109-.286.359-.167.564-.505.6-1.046.6h-.306c-.215,0-.265-.087-.265-.379V517.66c0-.418.156-.45.675-.45h.279c1.148,0,1.209,1.043,1.55,1.043.178,0,.215-.275.215-.593,0-.265-.018-.536-.018-.758,0-.166-.131-.166-.251-.166l-.4.018-1.473.041c-.295.008-.774,0-1.134,0-.6,0-1.187-.059-1.777-.059-.156,0-.245.067-.245.2,0,.3.439.111.751.4.12.11.146.256.146.7v3.984c0,.68-.089.763-.723.9a.189.189,0,0,0-.174.185.206.206,0,0,0,.233.214c.222,0,.447-.02.664-.04.468-.021.938-.029,1.4-.029,1,0,2.008.049,3.01.049.224,0,.175-.561.261-1.039a3,3,0,0,0,.08-.5.2.2,0,0,0-.208-.213c-.142,0-.225.094-.357.364a1.645,1.645,0,0,1-1.592.974c-.688,0-.912-.367-.912-1.058Z"/><path class="c" d="M491.394,517.241c0-.194-.035-.271-.156-.341a3.241,3.241,0,0,0-1.287-.271,2.39,2.39,0,0,0-2.585,2.1c0,2.019,3.225,1.633,3.225,3.194,0,.641-.563,1.1-1.363,1.1-1.628,0-1.228-1.719-1.75-1.719-.164,0-.212.127-.212.57,0,.1-.005.257-.005.429,0,.276.016.577.131.671a3.718,3.718,0,0,0,1.866.457,2.433,2.433,0,0,0,2.6-2.32c0-2.422-3.2-1.759-3.2-3.129a1.044,1.044,0,0,1,1.1-.925c1.12,0,1.029,1.422,1.427,1.422.185,0,.215-.261.215-.594,0-.2-.014-.436-.014-.64"/><path class="c" d="M499.625,517.379c0-.156.037-.174.29-.174,1.432,0,.971,1.241,1.517,1.241.128,0,.185-.075.2-.292l.157-1.582c0-.127-.029-.254-.176-.254-.105,0-.155.051-.251.2-.119.214-.252.274-.6.274h-3.8c-.227,0-.245-.022-.314-.245-.037-.1-.1-.165-.19-.165-.123,0-.2.076-.251.243l-.378,1.45a.572.572,0,0,0-.022.126.185.185,0,0,0,.187.21c.435,0,.515-1.2,1.706-1.2.236,0,.275.02.275.177v4.632c0,.66-.092.763-.724.9a.19.19,0,0,0-.184.186c0,.134.087.212.24.212.491,0,.99-.06,1.481-.06s.993.06,1.495.06c.155,0,.237-.069.237-.2,0-.215-.279-.215-.416-.242-.483-.1-.483-.409-.483-.855Z"/><path class="c" d="M506.765,520.077c-.315.775-.525,1.6-.887,2.361-.261.555-.835.3-.835.628,0,.146.113.236.3.236.315,0,.64-.061.951-.061s.6.051.908.051c.234,0,.336-.08.336-.226,0-.446-.981-.049-.981-.765a3.3,3.3,0,0,1,.27-1.077c.044-.164.078-.186.265-.186h1.534c.2,0,.225.022.3.222l.4,1.091a.878.878,0,0,1,.066.261c0,.328-.7.1-.7.454,0,.146.1.226.291.226.471,0,.931-.058,1.4-.058.445,0,.882.048,1.326.048.186,0,.3-.077.3-.222,0-.255-.3-.223-.471-.243-.19-.019-.311-.174-.5-.641l-2.138-5.3c-.114-.291-.138-.31-.4-.31-.286,0-.35.057-.488.417Zm1.112-1.649.7,1.9a.356.356,0,0,1,.033.146c0,.07-.033.088-.191.088H507.3c-.121,0-.174-.039-.174-.108a.965.965,0,0,1,.041-.194Z"/><path class="c" d="M520.642,520.844l-1.571-3.934c-.066-.165-.177-.174-.323-.174-.229.009-.464.029-.819.029-.312,0-.628-.029-.939-.029-.271,0-.383.059-.383.217,0,.442.852-.022.852.618v.254a2.3,2.3,0,0,1-.01.263l-.192,4.115c-.032.486-.1.615-.417.673-.354.057-.415.094-.415.24,0,.127.08.195.233.195.323,0,.626-.058.94-.058.286,0,.574.049.86.049.2,0,.3-.077.3-.213,0-.253-.318-.225-.469-.232-.473-.021-.564-.47-.564-.948,0-.269.036-.55.036-.764l.1-2.866,1.89,4.732c.062.154.135.214.275.214.221,0,.263-.042.418-.525.064-.184.128-.37.192-.544L522.2,518.2l.076,4.031c0,.794-.36.505-.76.667a.225.225,0,0,0-.139.207c0,.134.1.212.268.212.411,0,.827-.06,1.235-.06.5,0,1,.06,1.5.06.261,0,.382-.068.382-.225,0-.126-.1-.194-.252-.213l-.236-.019c-.267-.028-.365-.252-.375-.825l-.121-4.156c0-.058-.009-.137-.009-.205a.414.414,0,0,1,.423-.484c.293-.022.412-.1.412-.241s-.094-.217-.279-.217c-.268,0-.547.029-.815.029-.361,0-.734-.029-1.1-.029-.137,0-.137,0-.228.243Z"/><path class="c" d="M535.8,519.991a3.5,3.5,0,0,0-3.669-3.363,3.444,3.444,0,0,0-3.44,3.442,3.558,3.558,0,0,0,7.109-.079m-1.7.269c0,1.649-.684,2.788-1.676,2.788-1.1,0-2.009-1.486-2.009-3.291,0-1.642.684-2.77,1.686-2.77,1.436,0,2,2.07,2,3.273"/><path class="c" d="M544.208,517.241c0-.194-.036-.27-.16-.341a3.239,3.239,0,0,0-1.285-.271,2.385,2.385,0,0,0-2.583,2.1c0,2.019,3.223,1.633,3.223,3.194,0,.641-.567,1.1-1.365,1.1-1.626,0-1.224-1.719-1.745-1.719-.167,0-.218.127-.218.57,0,.1-.007.257-.007.429a1.112,1.112,0,0,0,.131.673,3.738,3.738,0,0,0,1.868.455,2.43,2.43,0,0,0,2.6-2.32c0-2.422-3.2-1.759-3.2-3.129a1.043,1.043,0,0,1,1.1-.925c1.123,0,1.029,1.422,1.429,1.422.184,0,.212-.261.212-.594,0-.2-.008-.436-.008-.64"/><path class="c" d="M336.047,503.924l-1.189,2.967c-.239.6-.629,1.717-.911,2.236-.324.579-.541.619-1.166.726-.282.045-.606.088-.606.452,0,.389.346.453.67.453.67,0,1.362-.044,2.034-.044s1.365.044,2.034.044c.3,0,.713-.064.713-.453,0-.966-2.142-.043-2.142-1.568a6.792,6.792,0,0,1,.476-1.954c.261-.687.2-.645.953-.645h2.836c.777,0,.712-.042.991.709l.7,1.74a2.434,2.434,0,0,1,.215.815c0,.776-1.515.171-1.515.9,0,.409.389.453.691.453,1.04,0,2.081-.087,3.161-.087.864,0,1.731.087,2.638.087.3,0,.737-.022.737-.453,0-.494-.412-.426-.78-.452a.979.979,0,0,1-.887-.514,6.357,6.357,0,0,1-.54-1.094L340.7,497.8c-.26-.6-.241-.863-.953-.863-.869,0-.891.392-1.192,1.1Zm2.314-3.158,1.43,3.677a3.112,3.112,0,0,1,.2.534c0,.258-.563.173-.72.173h-1.879c-.2,0-.646.085-.646-.214a2.9,2.9,0,0,1,.191-.624Z"/><path class="c" d="M357.047,498.469c0-.407.067-.75-.345-.964a7.777,7.777,0,0,0-2.809-.562c-2.489,0-5.627,1.505-5.627,4.339,0,2.149,2.1,3.114,3.807,3.823,1.346.54,3.224,1.055,3.224,2.793,0,1.55-1.58,2.28-2.944,2.28a3.2,3.2,0,0,1-2.25-.775,3.626,3.626,0,0,1-.865-1.785c-.107-.363-.216-1.005-.734-1.005s-.435.813-.435,1.156v1.183c0,.709-.066.989.63,1.332a10.01,10.01,0,0,0,3.654.711,6.177,6.177,0,0,0,3.984-1.289,4.587,4.587,0,0,0,1.73-3.437c0-2.492-1.71-3.589-3.875-4.274l-1.1-.369c-.928-.3-1.99-.73-1.99-1.868,0-1.245,1.318-1.933,2.448-1.933,1.424,0,2.075,1.14,2.484,2.341.09.28.217.579.585.579.475,0,.431-.474.431-.813Z"/><path class="c" d="M367.551,510.995c4.051,0,7.617-2.881,7.617-7.048,0-4.379-3.891-7.005-8-7.005a7.373,7.373,0,0,0-5.344,2.107,6.952,6.952,0,0,0-2.186,4.985,6.708,6.708,0,0,0,2.465,5.221,9.514,9.514,0,0,0,5.452,1.74m.258-.775a4.14,4.14,0,0,1-3.437-2.556,9.436,9.436,0,0,1-.974-4.275c0-2.191.865-5.689,3.634-5.689,3.2,0,4.414,4.249,4.414,6.8,0,2.191-.843,5.715-3.637,5.715"/><path class="c" d="M389.913,507.728c.023-.322.044-.814-.43-.814-.286,0-.434.214-.543.448a6.138,6.138,0,0,1-1.43,1.978,3.63,3.63,0,0,1-2.271.813,4.4,4.4,0,0,1-3.679-2.145,7.855,7.855,0,0,1-1.081-4.124,7.307,7.307,0,0,1,1.193-4.17,4.5,4.5,0,0,1,3.567-1.932c2.922,0,2.989,2.557,3.981,2.557a.365.365,0,0,0,.412-.366,3.017,3.017,0,0,0-.088-.624l-.171-1.1c-.109-.6-.109-.688-.692-.86a12.967,12.967,0,0,0-3.245-.45,10.713,10.713,0,0,0-6.081,1.8,6.657,6.657,0,0,0-2.791,5.33,6.832,6.832,0,0,0,2.747,5.326A9.843,9.843,0,0,0,385,510.995a8.213,8.213,0,0,0,4.156-.988c.67-.388.649-.667.693-1.376Z"/><path class="c" d="M396.614,500.233c0-1.44-.107-1.869,1.361-2.108.263-.04.608-.085.608-.428s-.238-.408-.54-.408c-1.019,0-2.061.083-3.1.083-1.121,0-2.2-.083-3.33-.083-.3,0-.521.064-.521.408,0,.365.434.388.694.428,1.381.239,1.255.8,1.255,2.108v7.627c0,1.4.067,1.76-1.364,1.993-.261.046-.585.154-.585.493s.216.413.521.413c1.04,0,2.077-.087,3.114-.087,1.125,0,2.209.087,3.333.087.282,0,.52-.087.52-.413,0-.386-.412-.447-.692-.493-1.363-.213-1.277-.726-1.277-1.993Z"/><path class="c" d="M402.531,503.923l-1.185,2.968c-.238.6-.626,1.717-.91,2.236-.324.579-.541.619-1.171.726-.277.045-.6.088-.6.452,0,.389.341.453.67.453.669,0,1.363-.044,2.031-.044s1.365.044,2.037.044c.3,0,.71-.064.71-.453,0-.966-2.139-.043-2.139-1.568a6.777,6.777,0,0,1,.477-1.954c.26-.687.191-.645.952-.645h2.834c.777,0,.715-.042.995.709l.692,1.74a2.365,2.365,0,0,1,.215.815c0,.776-1.513.171-1.513.9,0,.409.388.453.693.453,1.038,0,2.076-.087,3.159-.087.868,0,1.73.087,2.64.087.3,0,.736-.024.736-.453,0-.494-.41-.426-.779-.452a.971.971,0,0,1-.888-.514,6.511,6.511,0,0,1-.541-1.094l-4.458-10.44c-.257-.6-.236-.863-.951-.863-.867,0-.888.389-1.19,1.1Zm2.32-3.157,1.428,3.677a3.035,3.035,0,0,1,.2.534c0,.258-.566.173-.715.173h-1.883c-.192,0-.651.085-.651-.214a2.759,2.759,0,0,1,.2-.624Z"/><path class="c" d="M427.735,507.728c.026-.322.044-.814-.431-.814-.284,0-.434.214-.538.448a6.3,6.3,0,0,1-1.433,1.978,3.635,3.635,0,0,1-2.272.813,4.4,4.4,0,0,1-3.677-2.145,7.856,7.856,0,0,1-1.082-4.124,7.306,7.306,0,0,1,1.192-4.17,4.5,4.5,0,0,1,3.567-1.932c2.92,0,2.985,2.557,3.981,2.557a.368.368,0,0,0,.416-.366,2.835,2.835,0,0,0-.092-.624l-.172-1.1c-.108-.6-.108-.688-.69-.86a12.994,12.994,0,0,0-3.246-.45,10.707,10.707,0,0,0-6.082,1.8,6.669,6.669,0,0,0-2.79,5.33,6.828,6.828,0,0,0,2.746,5.326,9.848,9.848,0,0,0,5.69,1.591,8.227,8.227,0,0,0,4.157-.988c.671-.388.649-.667.694-1.376Z"/><path class="c" d="M434.436,500.233c0-1.44-.105-1.869,1.362-2.108.261-.04.607-.087.607-.428s-.239-.408-.538-.408c-1.021,0-2.057.083-3.1.083-1.126,0-2.21-.083-3.331-.083-.309,0-.525.064-.525.408,0,.365.431.388.7.428,1.379.239,1.251.8,1.251,2.108v7.627c0,1.394.069,1.76-1.36,1.993-.26.046-.586.154-.586.493s.216.413.525.413c1.034,0,2.075-.087,3.111-.087,1.124,0,2.207.087,3.331.087.283,0,.522-.087.522-.413,0-.386-.412-.447-.692-.493-1.364-.213-1.277-.726-1.277-1.993Z"/><path class="c" d="M445.353,510.995c4.051,0,7.617-2.881,7.617-7.048,0-4.379-3.89-7.005-8-7.005a7.38,7.38,0,0,0-5.346,2.107,6.943,6.943,0,0,0-2.188,4.985,6.717,6.717,0,0,0,2.471,5.221,9.5,9.5,0,0,0,5.449,1.74m.261-.775a4.145,4.145,0,0,1-3.438-2.556,9.411,9.411,0,0,1-.975-4.275c0-2.191.869-5.692,3.636-5.692,3.2,0,4.413,4.252,4.413,6.808,0,2.191-.846,5.715-3.636,5.715"/><path class="c" d="M466.335,505.6l-6.192-7.6c-.541-.666-.475-.709-1.344-.709h-3.807c-.3,0-.736,0-.736.385,0,.472.5.431.846.451,1.084.067.995,1.033.995,1.872v6.682a8.988,8.988,0,0,1-.2,2.531.854.854,0,0,1-.908.643c-.343.023-.883-.02-.883.452,0,.345.278.454.583.454.672,0,1.364-.088,2.052-.088s1.347.088,2.037.088c.3,0,.647-.088.647-.454,0-.472-.605-.429-.9-.452-.587-.041-1.041-.17-1.255-.815a9.18,9.18,0,0,1-.154-2.08v-7.09l8.55,10.588c.3.388.583.84,1.121.84.736,0,.628-.388.628-.991V500.127c0-.841-.128-1.873.885-2,.372-.039,1.108.109,1.108-.406,0-.366-.282-.43-.605-.43-.631,0-1.28.043-1.91.043s-1.275-.043-1.921-.043c-.328,0-.805,0-.805.451,0,.472.459.346.821.385a1.324,1.324,0,0,1,1.171.732,4.379,4.379,0,0,1,.177,1.525Z"/><path class="c" d="M490.329,507.728c.016-.322.039-.814-.438-.814-.277,0-.428.214-.539.448a6.177,6.177,0,0,1-1.428,1.978,3.633,3.633,0,0,1-2.269.813,4.4,4.4,0,0,1-3.682-2.145,7.887,7.887,0,0,1-1.084-4.125,7.32,7.32,0,0,1,1.192-4.169,4.512,4.512,0,0,1,3.574-1.932c2.921,0,2.982,2.557,3.979,2.557a.364.364,0,0,0,.411-.366,3.388,3.388,0,0,0-.085-.624l-.176-1.1c-.109-.6-.109-.688-.692-.86a12.941,12.941,0,0,0-3.244-.45,10.716,10.716,0,0,0-6.082,1.8,6.672,6.672,0,0,0-2.79,5.33,6.827,6.827,0,0,0,2.746,5.325,9.827,9.827,0,0,0,5.69,1.592,8.214,8.214,0,0,0,4.157-.988c.666-.388.645-.667.692-1.376Z"/><path class="c" d="M497.024,500.233c0-1.44-.109-1.869,1.362-2.108.262-.04.608-.087.608-.428s-.241-.408-.539-.408c-1.018,0-2.057.083-3.1.083-1.126,0-2.207-.083-3.333-.083-.3,0-.521.064-.521.408,0,.365.436.388.693.428,1.39.239,1.258.8,1.258,2.108v7.627c0,1.394.062,1.76-1.366,1.993-.257.046-.585.154-.585.493s.219.413.521.413c1.038,0,2.074-.087,3.115-.087,1.128,0,2.208.087,3.333.087.28,0,.521-.087.521-.413,0-.386-.413-.447-.695-.493-1.361-.213-1.275-.728-1.275-1.993Z"/><path class="c" d="M501.648,507.77c0,1.4.108,1.849-1.3,2.083-.262.046-.586.109-.586.453,0,.319.219.451.519.451.433,0,.823-.086,1.258-.086,2.032,0,4.064.086,6.144.086a6.457,6.457,0,0,0,3.569-.731,3.476,3.476,0,0,0,1.71-3.094c0-2.708-2.141-3.631-4.5-3.739,1.771-.127,3.937-.706,3.937-2.9a3.173,3.173,0,0,0-2.317-2.9,12.868,12.868,0,0,0-3.547-.452,24.047,24.047,0,0,0-6.125.561c-.256.087-.6.151-.6.494,0,.515.6.408.946.408.975,0,.89.645.89,1.5Zm3.569-8.656c0-.3-.085-.838.108-1.028a1.727,1.727,0,0,1,1.126-.325,2.305,2.305,0,0,1,2.337,2.429c0,1.823-1.1,2.6-2.773,2.616-.8,0-.8.047-.8-.878Zm0,5.455c0-.578.024-.881.583-.881a3.813,3.813,0,0,1,2.014.388,3.313,3.313,0,0,1,1.539,2.943c0,1.589-.738,2.965-2.492,2.965-1.428,0-1.644-1.075-1.644-2.32Z"/><path class="c" d="M517.285,503.924l-1.192,2.967c-.238.6-.623,1.718-.908,2.233-.323.58-.538.623-1.167.728-.284.046-.607.089-.607.453,0,.39.343.453.669.453.674,0,1.369-.043,2.035-.043s1.36.043,2.034.043c.3,0,.713-.063.713-.453,0-.965-2.138-.043-2.138-1.569a6.626,6.626,0,0,1,.476-1.952c.254-.688.2-.645.949-.645h2.835c.78,0,.714-.043.995.707l.693,1.741a2.388,2.388,0,0,1,.216.813c0,.778-1.513.172-1.513.9,0,.41.389.453.692.453,1.036,0,2.074-.087,3.159-.087.862,0,1.73.087,2.638.087.307,0,.738-.024.738-.453,0-.493-.415-.429-.779-.453a.981.981,0,0,1-.89-.512,6.8,6.8,0,0,1-.539-1.1l-4.458-10.44c-.261-.6-.238-.864-.952-.864-.863,0-.887.39-1.192,1.1Zm2.315-3.156,1.428,3.675a2.9,2.9,0,0,1,.193.535c0,.258-.559.172-.715.172h-1.88c-.2,0-.649.086-.649-.213a3.077,3.077,0,0,1,.192-.623Z"/><path class="c" d="M537.057,510.995c4.041,0,7.61-2.881,7.61-7.048,0-4.379-3.892-7.005-8-7.005a7.378,7.378,0,0,0-5.347,2.107,6.936,6.936,0,0,0-2.188,4.987,6.724,6.724,0,0,0,2.467,5.219,9.536,9.536,0,0,0,5.46,1.74m.254-.775a4.145,4.145,0,0,1-3.439-2.556,9.461,9.461,0,0,1-.974-4.274c0-2.192.866-5.693,3.634-5.693,3.206,0,4.415,4.25,4.415,6.808,0,2.193-.847,5.715-3.636,5.715"/><path class="c" d="M302.414,503.849A3.592,3.592,0,1,1,306,507.443a3.593,3.593,0,0,1-3.583-3.594"/><path class="c" d="M307.187,521.711H325.1V515.8H307.187Zm11.351-2.627h-5.279v-2.115h5.279Z"/><rect class="a" width="5.761" height="4.972" transform="translate(293.562 516.27)"/><path class="a" d="M314.077,505.728H296.147l-12.815,9.667h1.993l10.848-8.182,10.761,8.182h19.858Z"/><path class="a" d="M290.766,508.652l5.081-3.832.008-.006.295-.222h4.558V487.564c.008-3.375,1.786-4.123,3.852-4.12,1.973,0,3.749.756,3.744,4.134v6.164h9.926v-6.991c.016-8.726-7.556-11.274-13.75-11.283-6.1-.011-13.7,2.511-13.714,11.235Z"/><path class="c" d="M305.821,494.133a3.591,3.591,0,1,1,3.585,3.6,3.595,3.595,0,0,1-3.585-3.6"/><path class="a" d="M305.821,494.133a3.591,3.591,0,1,1,3.585,3.6,3.595,3.595,0,0,1-3.585-3.6"/><path class="c" d="M314.42,487.6A3.591,3.591,0,1,1,318,491.2a3.586,3.586,0,0,1-3.583-3.6"/><path class="a" d="M314.42,487.6A3.591,3.591,0,1,1,318,491.2a3.586,3.586,0,0,1-3.583-3.6"/><path class="c" d="M308.3,527.525V532.8c-.007,3.378-1.782,4.132-3.757,4.13-2.063-.005-3.843-.764-3.839-4.14V522.636h-9.942v10.987c-.016,8.727,7.574,11.272,13.675,11.279,6.194.011,13.773-2.506,13.789-11.23v-6.147Z"/></g></g></svg>