<?xml version="1.0" encoding="utf-8"?>
<!-- Generator: Adobe Illustrator 23.0.3, SVG Export Plug-In . SVG Version: 6.00 Build 0)  -->
<svg version="1.1" id="Capa_1" xmlns="http://www.w3.org/2000/svg" xmlns:xlink="http://www.w3.org/1999/xlink" x="0px" y="0px"
	 viewBox="0 0 273.4 93" style="enable-background:new 0 0 273.4 93;" xml:space="preserve">
<style type="text/css">
	.st0{fill-rule:evenodd;clip-rule:evenodd;fill:#FFFFFF;}
	.st1{fill:#FFFFFF;}
</style>
<g>
	<path class="st0" d="M54.7,58.3c0,1.2-0.9,0.6-0.9,1.1c0,0.1,0.1,0.2,0.2,0.2c0,0,0,0,0,0c0.4,0,0.8-0.1,1.1-0.1
		c0.7,0,1.3,0.1,2,0.1c2,0.1,3.7-1.4,3.8-3.4c0-1.9-1.6-3.2-4-3.2c-0.4,0-3.2,0.1-3.2,0.6c0,0.1,0,0.2,0.1,0.2c0.1,0,0.3,0,0.4,0
		c0.3,0,0.4,0.1,0.4,0.7L54.7,58.3z M56.3,58.1v-3.9c0-0.4,0-0.5,0.1-0.6c0.2-0.1,0.4-0.1,0.6-0.1c1.5,0,2.2,1.5,2.2,2.9
		c0,1.7-0.9,2.9-2.1,2.9C56.3,59.3,56.3,58.7,56.3,58.1"/>
	<path class="st0" d="M67.6,56.7c0-0.3,0-0.3,0.7-0.3c1,0,0.8,1,1.2,1c0.2,0,0.2-0.2,0.2-0.5c0-0.2,0-0.5,0-0.6l0-1.1
		c0-0.1-0.1-0.2-0.2-0.2c-0.1,0-0.2,0.1-0.3,0.4c-0.2,0.6-0.5,0.6-1,0.6h-0.3c-0.2,0-0.3-0.1-0.3-0.4V54c0-0.4,0.2-0.5,0.7-0.5h0.3
		c1.1,0,1.2,1,1.6,1c0.2,0,0.2-0.3,0.2-0.6c0-0.3,0-0.5,0-0.8c0-0.2-0.1-0.2-0.2-0.2l-0.4,0l-1.5,0c-0.3,0-0.8,0-1.1,0
		c-0.6,0-1.2-0.1-1.8-0.1c-0.2,0-0.2,0.1-0.2,0.2c0,0.3,0.4,0.1,0.7,0.4c0.1,0.1,0.1,0.3,0.1,0.7v4c0,0.7-0.1,0.8-0.7,0.9
		c-0.1,0-0.2,0.1-0.2,0.2c0,0.1,0.1,0.2,0.2,0.2c0.2,0,0.4,0,0.7,0c0.5,0,0.9,0,1.4,0c1,0,2,0,3,0c0.2,0,0.2-0.6,0.3-1
		c0-0.2,0.1-0.3,0.1-0.5c0-0.1-0.1-0.2-0.2-0.2c0,0,0,0,0,0c-0.1,0-0.2,0.1-0.4,0.4c-0.3,0.6-0.9,1-1.6,1c-0.7,0-0.9-0.4-0.9-1.1
		L67.6,56.7z"/>
	<path class="st0" d="M82.4,56.4c-0.3,0.8-0.5,1.6-0.9,2.4c-0.3,0.6-0.8,0.3-0.8,0.6c0,0.1,0.1,0.2,0.3,0.2c0.3,0,0.6-0.1,1-0.1
		c0.3,0,0.6,0,0.9,0c0.2,0,0.3-0.1,0.3-0.2c0-0.4-1,0-1-0.8c0-0.4,0.1-0.7,0.3-1.1c0-0.2,0.1-0.2,0.3-0.2h1.5c0.2,0,0.2,0,0.3,0.2
		l0.4,1.1c0,0.1,0.1,0.2,0.1,0.3c0,0.3-0.7,0.1-0.7,0.5c0,0.1,0.1,0.2,0.3,0.2c0.5,0,0.9-0.1,1.4-0.1c0.4,0,0.9,0,1.3,0
		c0.2,0,0.3-0.1,0.3-0.2c0-0.3-0.3-0.2-0.5-0.2c-0.2,0-0.3-0.2-0.5-0.6l-2.1-5.3c-0.1-0.3-0.1-0.3-0.4-0.3c-0.3,0-0.4,0.1-0.5,0.4
		L82.4,56.4z M83.6,54.7l0.7,1.9c0,0,0,0.1,0,0.1c0,0.1,0,0.1-0.2,0.1H83c-0.1,0-0.2,0-0.2-0.1c0-0.1,0-0.1,0-0.2L83.6,54.7z"/>
	<path class="st0" d="M94.9,55.9c-0.2,0-0.2-0.1-0.2-0.3v-1.3c0-0.6,0-0.8,0.5-0.9c0.1,0,0.4,0,0.4-0.2c0-0.1-0.1-0.2-0.2-0.2
		c0,0,0,0-0.1,0c-0.5,0-1,0.1-1.5,0.1s-1-0.1-1.5-0.1c-0.2,0-0.2,0.1-0.2,0.2c0,0.3,0.4,0.1,0.7,0.4c0.1,0.1,0.1,0.3,0.1,0.7v4
		c0,0.7-0.1,0.8-0.7,0.9c-0.1,0-0.2,0.1-0.2,0.2c0,0.1,0.1,0.2,0.2,0.2c0.5,0,1-0.1,1.5-0.1s1,0.1,1.5,0.1c0.2,0,0.2-0.1,0.2-0.2
		c0-0.3-0.5-0.2-0.8-0.4c-0.1-0.1-0.1-0.3-0.1-0.7v-1.7c0-0.3,0-0.3,0.3-0.3h2c0.2,0,0.2,0.1,0.2,0.2v1.7c0,0.7-0.1,0.8-0.7,0.9
		c-0.1,0-0.2,0.1-0.2,0.2c0,0.1,0.1,0.2,0.2,0.2c0,0,0,0,0,0c0.5,0,1-0.1,1.5-0.1s1,0.1,1.5,0.1c0.2,0,0.2-0.1,0.2-0.2
		c0-0.2-0.3-0.2-0.4-0.2c-0.5-0.1-0.5-0.4-0.5-0.9v-4c0,0,0-0.1,0-0.2c0-0.3,0.2-0.6,0.5-0.7h0c0.1,0,0.4,0,0.4-0.2
		c0-0.1-0.1-0.2-0.2-0.2c-0.5,0-1,0.1-1.5,0.1s-1-0.1-1.5-0.1c-0.2,0-0.2,0.1-0.2,0.2c0,0.2,0.3,0.2,0.4,0.2
		c0.5,0.1,0.5,0.4,0.5,0.9v1.3c0,0.2,0,0.3-0.2,0.3L94.9,55.9z"/>
	<path class="st0" d="M110.9,56.3c-0.1-1.9-1.7-3.4-3.6-3.4c0,0,0,0,0,0c-1.9,0-3.4,1.5-3.4,3.4c0.1,2,1.8,3.5,3.7,3.4
		C109.4,59.7,110.8,58.2,110.9,56.3 M109.2,56.6c0,1.6-0.7,2.8-1.7,2.8c-1.1,0-2-1.5-2-3.3c0-1.6,0.7-2.8,1.7-2.8
		C108.6,53.3,109.2,55.4,109.2,56.6"/>
	<path class="st0" d="M119,56.2c0.9-0.1,1.7-0.5,1.7-1.5c0-0.9-0.7-1.6-1.6-1.6c-0.1,0-0.1,0-0.2,0c-0.8,0-1.5,0.1-2.3,0.1
		c-0.5,0-0.9-0.1-1.4-0.1c-0.2,0-0.2,0.1-0.2,0.2c0,0.3,0.4,0.1,0.7,0.4c0.1,0.1,0.1,0.3,0.1,0.7v4c0,0.7-0.1,0.8-0.7,0.9
		c-0.1,0-0.2,0.1-0.2,0.2c0,0.1,0.1,0.2,0.2,0.2c0.5,0,1-0.1,1.4-0.1s1,0.1,1.4,0.1c0.2,0,0.2-0.1,0.2-0.2c0-0.3-0.5-0.2-0.7-0.4
		c-0.1-0.1-0.1-0.3-0.1-0.7v-1.7c0-0.2,0-0.2,0.2-0.2c0.3,0,0.4,0.1,0.8,0.8l1,2.1c0.1,0.2,0.1,0.2,0.3,0.2c0.3,0,0.6,0,0.9,0
		c0.2,0,0.5,0,0.8,0c0.2,0,0.3-0.1,0.3-0.2c0-0.1-0.1-0.2-0.2-0.2c-0.3-0.1-0.4-0.1-0.6-0.6L120,57C119.9,56.6,119.5,56.3,119,56.2
		 M117.4,55.7V54c0-0.2,0-0.5,0.5-0.5c0.7,0.1,1.2,0.8,1.1,1.5c-0.1,0.6-0.7,1.1-1.3,1.1C117.5,56.1,117.4,56,117.4,55.7"/>
	<path class="st0" d="M129.4,56.2c0.9-0.1,1.7-0.5,1.7-1.5c0-0.9-0.7-1.6-1.6-1.6c-0.1,0-0.1,0-0.2,0c-0.8,0-1.5,0.1-2.3,0.1
		c-0.5,0-0.9-0.1-1.4-0.1c-0.2,0-0.2,0.1-0.2,0.2c0,0.3,0.4,0.1,0.7,0.4c0.1,0.1,0.1,0.3,0.1,0.7v4c0,0.7-0.1,0.8-0.7,0.9
		c-0.1,0-0.2,0.1-0.2,0.2c0,0.1,0.1,0.2,0.2,0.2c0,0,0,0,0,0c0.5,0,1-0.1,1.4-0.1s1,0.1,1.4,0.1c0.2,0,0.2-0.1,0.2-0.2
		c0-0.3-0.5-0.2-0.7-0.4c-0.1-0.1-0.2-0.3-0.2-0.7v-1.7c0-0.2,0-0.2,0.2-0.2c0.3,0,0.4,0.1,0.8,0.8l1,2.1c0.1,0.2,0.1,0.2,0.3,0.2
		c0.3,0,0.6,0,0.9,0c0.2,0,0.5,0,0.8,0c0.2,0,0.3-0.1,0.3-0.2c0-0.1,0-0.2-0.2-0.2c-0.3-0.1-0.4-0.1-0.6-0.6l-0.8-1.6
		C130.2,56.6,129.8,56.3,129.4,56.2 M127.8,55.7V54c0-0.2,0-0.5,0.5-0.5c0.7,0.1,1.2,0.8,1.1,1.5c-0.1,0.6-0.7,1.1-1.3,1.1
		C127.8,56.1,127.8,56,127.8,55.7"/>
	<path class="st0" d="M142.7,56.3c-0.1-1.9-1.7-3.4-3.6-3.4c0,0,0,0,0,0c-1.9,0-3.4,1.5-3.4,3.4c0.1,2,1.8,3.5,3.7,3.4
		C141.2,59.7,142.6,58.2,142.7,56.3 M141,56.6c0,1.6-0.7,2.8-1.7,2.8c-1.1,0-2-1.5-2-3.3c0-1.6,0.7-2.8,1.7-2.8
		C140.4,53.3,141,55.4,141,56.6"/>
	<path class="st0" d="M151.1,53.6c0-0.2,0-0.3-0.2-0.3c-0.4-0.2-0.8-0.3-1.3-0.3c-1.3-0.1-2.4,0.8-2.6,2.1c0,2,3.2,1.6,3.2,3.2
		c0,0.6-0.6,1.1-1.4,1.1c-1.6,0-1.2-1.7-1.7-1.7c-0.2,0-0.2,0.1-0.2,0.6c0,0.1,0,0.3,0,0.4c0,0.2,0,0.5,0.1,0.7
		c0.6,0.3,1.2,0.5,1.9,0.5c1.3,0.1,2.5-0.9,2.6-2.3c0,0,0,0,0-0.1c0-2.4-3.2-1.8-3.2-3.1c0.1-0.6,0.5-1,1.1-0.9c1.1,0,1,1.4,1.4,1.4
		c0.2,0,0.2-0.3,0.2-0.6C151.1,54,151.1,53.8,151.1,53.6"/>
	<path class="st0" d="M165.9,56l-1.2-1.9c-0.1-0.1-0.2-0.3-0.2-0.4c0-0.3,0.7,0,0.7-0.4c0-0.2-0.1-0.2-0.3-0.2c-0.5,0-1,0-1.5,0
		c-0.5,0-0.9,0-1.4,0c-0.2,0-0.3,0-0.3,0.2c0,0.3,0.3,0.2,0.5,0.3s0.3,0.2,0.6,0.6l1.8,2.7v1.5c0,0.7-0.1,0.8-0.7,0.9
		c-0.1,0-0.2,0.1-0.2,0.2c0,0,0,0,0,0c0,0.1,0.1,0.2,0.2,0.2c0.5,0,1-0.1,1.5-0.1s1,0.1,1.5,0.1c0.2,0,0.2-0.1,0.2-0.2
		c0-0.2-0.3-0.2-0.4-0.2c-0.5-0.1-0.5-0.4-0.5-0.9v-1.8l1.3-2c0.5-0.7,0.6-0.9,1.2-1c0.2,0,0.2-0.1,0.2-0.2c0-0.1-0.1-0.2-0.3-0.2
		c-0.3,0-0.7,0-1,0c-0.4,0-0.7,0-1.1,0c-0.2,0-0.3,0.1-0.3,0.2c0,0.5,0.9,0.1,0.9,0.6c0,0.2-0.1,0.4-0.3,0.6L165.9,56z"/>
	<path class="st0" d="M181.4,56.8c0-0.1,0-0.2,0.1-0.2c0.4,0,0.8,0.3,1.3,0.3c1.1,0,1.9-0.9,1.9-1.9c0,0,0,0,0-0.1
		c0-1.4-1.2-1.9-2.3-1.9c-0.7,0-1.4,0.1-2.1,0.1c-0.4,0-0.8-0.1-1.3-0.1c-0.2,0-0.2,0.1-0.2,0.2c0,0.3,0.4,0.1,0.7,0.4
		c0.1,0.1,0.2,0.3,0.2,0.7v4c0,0.7-0.1,0.8-0.7,0.9c-0.1,0-0.2,0.1-0.2,0.2c0,0.1,0.1,0.2,0.2,0.2c0.5,0,1-0.1,1.5-0.1
		s1,0.1,1.5,0.1c0.2,0,0.2-0.1,0.2-0.2c0-0.2-0.3-0.2-0.4-0.2c-0.5-0.1-0.5-0.4-0.5-0.9V56.8z M181.4,55.9v-1.6c0-0.4,0-0.9,0.6-0.9
		c0.7,0.1,1.2,0.7,1.2,1.5c0,0.9-0.4,1.4-1.1,1.4C181.7,56.3,181.4,56.3,181.4,55.9"/>
	<path class="st0" d="M192.7,56.2c0.9-0.1,1.7-0.5,1.7-1.5c0-0.9-0.7-1.6-1.6-1.6c-0.1,0-0.1,0-0.2,0c-0.8,0-1.5,0.1-2.3,0.1
		c-0.5,0-0.9-0.1-1.4-0.1c-0.2,0-0.2,0.1-0.2,0.2c0,0.3,0.4,0.1,0.8,0.4c0.1,0.1,0.1,0.3,0.1,0.7v4c0,0.7-0.1,0.8-0.7,0.9
		c-0.1,0-0.2,0.1-0.2,0.2c0,0.1,0.1,0.2,0.2,0.2c0.5,0,1-0.1,1.4-0.1s0.9,0.1,1.4,0.1c0.2,0,0.2-0.1,0.2-0.2c0-0.3-0.5-0.2-0.7-0.4
		c-0.1-0.1-0.1-0.3-0.1-0.7v-1.7c0-0.2,0-0.2,0.2-0.2c0.3,0,0.4,0.1,0.8,0.8l1,2.1c0.1,0.2,0.1,0.2,0.3,0.2c0.3,0,0.6,0,0.9,0
		c0.3,0,0.5,0,0.8,0c0.2,0,0.3-0.1,0.3-0.2c0-0.1-0.1-0.2-0.2-0.2c-0.3-0.1-0.4-0.1-0.6-0.6l-0.8-1.6
		C193.5,56.5,193.2,56.3,192.7,56.2 M191.1,55.7V54c0-0.2,0-0.5,0.5-0.5c0.7,0.1,1.2,0.8,1,1.5c-0.1,0.6-0.7,1.1-1.3,1.1
		C191.2,56.1,191.1,56,191.1,55.7"/>
	<path class="st0" d="M201.6,56.7c0-0.3,0-0.3,0.7-0.3c1,0,0.8,1,1.2,1c0.2,0,0.2-0.2,0.2-0.5c0-0.2,0-0.5,0-0.6l0-1.1
		c0-0.1-0.1-0.2-0.2-0.2c-0.1,0-0.2,0.1-0.3,0.4c-0.2,0.6-0.5,0.6-1,0.6h-0.3c-0.2,0-0.3-0.1-0.3-0.4V54c0-0.4,0.2-0.5,0.7-0.5h0.3
		c1.1,0,1.2,1,1.5,1c0.2,0,0.2-0.3,0.2-0.6c0-0.3,0-0.5,0-0.8c0-0.2-0.1-0.2-0.3-0.2l-0.4,0l-1.5,0c-0.3,0-0.8,0-1.1,0
		c-0.6,0-1.2-0.1-1.8-0.1c-0.2,0-0.2,0.1-0.2,0.2c0,0.3,0.4,0.1,0.8,0.4c0.1,0.1,0.1,0.3,0.1,0.7v4c0,0.7-0.1,0.8-0.7,0.9
		c-0.1,0-0.2,0.1-0.2,0.2c0,0.1,0.1,0.2,0.2,0.2c0,0,0,0,0,0c0.2,0,0.4,0,0.7,0c0.5,0,0.9,0,1.4,0c1,0,2,0,3,0c0.2,0,0.2-0.6,0.3-1
		c0-0.2,0.1-0.3,0.1-0.5c0-0.1-0.1-0.2-0.2-0.2c0,0,0,0,0,0c-0.1,0-0.2,0.1-0.4,0.4c-0.3,0.6-0.9,1-1.6,1c-0.7,0-0.9-0.4-0.9-1.1
		L201.6,56.7z"/>
	<path class="st0" d="M213,53.6c0-0.2,0-0.3-0.2-0.3c-0.4-0.2-0.8-0.3-1.3-0.3c-1.3-0.1-2.4,0.8-2.6,2.1c0,2,3.2,1.6,3.2,3.2
		c0,0.6-0.6,1.1-1.4,1.1c-1.6,0-1.2-1.7-1.8-1.7c-0.2,0-0.2,0.1-0.2,0.6c0,0.1,0,0.3,0,0.4c0,0.3,0,0.6,0.1,0.7
		c0.6,0.3,1.2,0.5,1.9,0.5c1.3,0.1,2.5-0.9,2.6-2.3c0,0,0,0,0-0.1c0-2.4-3.2-1.8-3.2-3.1c0.1-0.6,0.5-1,1.1-0.9c1.1,0,1,1.4,1.4,1.4
		c0.2,0,0.2-0.3,0.2-0.6C213,54,213,53.8,213,53.6"/>
	<path class="st0" d="M221.2,53.7c0-0.2,0-0.2,0.3-0.2c1.4,0,1,1.2,1.5,1.2c0.1,0,0.2-0.1,0.2-0.3l0.2-1.6c0-0.1,0-0.3-0.2-0.3
		c-0.1,0-0.2,0.1-0.3,0.2c-0.1,0.2-0.3,0.3-0.6,0.3h-3.8c-0.2,0-0.2,0-0.3-0.2c0-0.1-0.1-0.2-0.2-0.2c-0.1,0-0.2,0.1-0.3,0.2
		l-0.4,1.5c0,0,0,0.1,0,0.1c0,0.1,0.1,0.2,0.2,0.2c0,0,0,0,0,0c0.4,0,0.5-1.2,1.7-1.2c0.2,0,0.3,0,0.3,0.2v4.6
		c0,0.7-0.1,0.8-0.7,0.9c-0.1,0-0.2,0.1-0.2,0.2c0,0.1,0.1,0.2,0.2,0.2c0.5,0,1-0.1,1.5-0.1s1,0.1,1.5,0.1c0.2,0,0.2-0.1,0.2-0.2
		c0-0.2-0.3-0.2-0.4-0.2c-0.5-0.1-0.5-0.4-0.5-0.9L221.2,53.7z"/>
	<path class="st0" d="M228.3,56.4c-0.3,0.8-0.5,1.6-0.9,2.4c-0.3,0.6-0.8,0.3-0.8,0.6c0,0.1,0.1,0.2,0.3,0.2c0.3,0,0.6-0.1,1-0.1
		s0.6,0.1,0.9,0.1c0.2,0,0.3-0.1,0.3-0.2c0-0.4-1,0-1-0.8c0-0.4,0.1-0.7,0.3-1.1c0-0.2,0.1-0.2,0.3-0.2h1.5c0.2,0,0.2,0,0.3,0.2
		l0.4,1.1c0,0.1,0.1,0.2,0.1,0.3c0,0.3-0.7,0.1-0.7,0.5c0,0.1,0.1,0.2,0.3,0.2c0.5,0,0.9-0.1,1.4-0.1c0.4,0,0.9,0,1.3,0
		c0.2,0,0.3-0.1,0.3-0.2c0-0.3-0.3-0.2-0.5-0.2c-0.2,0-0.3-0.2-0.5-0.6l-2.1-5.3c-0.1-0.3-0.1-0.3-0.4-0.3c-0.3,0-0.4,0.1-0.5,0.4
		L228.3,56.4z M229.5,54.7l0.7,1.9c0,0,0,0.1,0,0.1c0,0.1,0,0.1-0.2,0.1h-1.1c-0.1,0-0.2,0-0.2-0.1c0-0.1,0-0.1,0-0.2L229.5,54.7z"
		/>
	<path class="st0" d="M242.2,57.2l-1.6-3.9c-0.1-0.2-0.2-0.2-0.3-0.2c-0.2,0-0.5,0-0.8,0c-0.3,0-0.6,0-0.9,0c-0.3,0-0.4,0.1-0.4,0.2
		c0,0.4,0.9,0,0.9,0.6v0.3c0,0.1,0,0.2,0,0.3l-0.2,4.1c0,0.5-0.1,0.6-0.4,0.7c-0.4,0.1-0.4,0.1-0.4,0.2c0,0.1,0.1,0.2,0.2,0.2
		c0.3,0,0.6-0.1,0.9-0.1c0.3,0,0.6,0,0.9,0c0.2,0,0.3-0.1,0.3-0.2c0-0.3-0.3-0.2-0.5-0.2c-0.5,0-0.6-0.5-0.6-0.9c0-0.3,0-0.5,0-0.8
		l0.1-2.9l1.9,4.7c0.1,0.2,0.1,0.2,0.3,0.2c0.2,0,0.3,0,0.4-0.5c0.1-0.2,0.1-0.4,0.2-0.5l1.6-4l0.1,4c0,0.8-0.4,0.5-0.8,0.7
		c-0.1,0-0.1,0.1-0.1,0.2c0,0.1,0.1,0.2,0.3,0.2c0.4,0,0.8-0.1,1.2-0.1c0.5,0,1,0.1,1.5,0.1c0.3,0,0.4-0.1,0.4-0.2
		c0-0.1-0.1-0.2-0.3-0.2l-0.2,0c-0.3,0-0.4-0.3-0.4-0.8l-0.1-4.2c0-0.1,0-0.1,0-0.2c0-0.2,0.1-0.4,0.3-0.5c0,0,0.1,0,0.1,0
		c0.3,0,0.4-0.1,0.4-0.2s-0.1-0.2-0.3-0.2c-0.3,0-0.5,0-0.8,0c-0.4,0-0.7,0-1.1,0c-0.1,0-0.1,0-0.2,0.2L242.2,57.2z"/>
	<path class="st0" d="M257.4,56.3c-0.1-1.9-1.7-3.4-3.6-3.4c0,0,0,0,0,0c-1.9,0-3.4,1.5-3.4,3.4c0.1,2,1.8,3.5,3.7,3.4
		C255.9,59.7,257.3,58.2,257.4,56.3 M255.7,56.6c0,1.6-0.7,2.8-1.7,2.8c-1.1,0-2-1.5-2-3.3c0-1.6,0.7-2.8,1.7-2.8
		C255.1,53.3,255.7,55.4,255.7,56.6"/>
	<path class="st0" d="M265.8,53.6c0-0.2,0-0.3-0.2-0.3c-0.4-0.2-0.8-0.3-1.3-0.3c-1.3-0.1-2.4,0.8-2.6,2.1c0,2,3.2,1.6,3.2,3.2
		c0,0.6-0.6,1.1-1.4,1.1c-1.6,0-1.2-1.7-1.7-1.7c-0.2,0-0.2,0.1-0.2,0.6c0,0.1,0,0.3,0,0.4c0,0.2,0,0.5,0.1,0.7
		c0.6,0.3,1.2,0.5,1.9,0.5c1.3,0.1,2.5-0.9,2.6-2.3c0,0,0,0,0-0.1c0-2.4-3.2-1.8-3.2-3.1c0.1-0.6,0.5-1,1.1-0.9c1.1,0,1,1.4,1.4,1.4
		c0.2,0,0.2-0.3,0.2-0.6C265.8,54,265.8,53.8,265.8,53.6"/>
	<path class="st0" d="M57.6,40.2l-1.2,3c-0.2,0.6-0.6,1.7-0.9,2.2c-0.3,0.6-0.5,0.6-1.2,0.7c-0.3,0-0.6,0.1-0.6,0.5
		c0,0.4,0.3,0.5,0.7,0.5c0.7,0,1.4,0,2,0s1.4,0,2,0c0.3,0,0.7-0.1,0.7-0.5c0-1-2.1,0-2.1-1.6c0.1-0.7,0.2-1.3,0.5-2
		c0.3-0.7,0.2-0.6,1-0.6h2.8c0.8,0,0.7,0,1,0.7l0.7,1.7c0.1,0.3,0.2,0.5,0.2,0.8c0,0.8-1.5,0.2-1.5,0.9c0,0.4,0.4,0.5,0.7,0.5
		c1,0,2.1-0.1,3.2-0.1c0.9,0,1.7,0.1,2.6,0.1c0.3,0,0.7,0,0.7-0.5c0-0.5-0.4-0.4-0.8-0.5c-0.4,0-0.7-0.2-0.9-0.5
		c-0.2-0.3-0.4-0.7-0.5-1.1l-4.5-10.4c-0.3-0.6-0.2-0.9-1-0.9c-0.9,0-0.9,0.4-1.2,1.1L57.6,40.2z M59.9,37.1l1.4,3.7
		c0.1,0.2,0.1,0.4,0.2,0.5c0,0.3-0.6,0.2-0.7,0.2H59c-0.2,0-0.6,0.1-0.6-0.2c0-0.2,0.1-0.4,0.2-0.6L59.9,37.1z"/>
	<path class="st0" d="M78.6,34.8c0-0.4,0.1-0.8-0.3-1c-0.9-0.4-1.8-0.6-2.8-0.6c-2.5,0-5.6,1.5-5.6,4.3c0,2.1,2.1,3.1,3.8,3.8
		c1.3,0.5,3.2,1.1,3.2,2.8c0,1.5-1.6,2.3-2.9,2.3c-0.8,0-1.6-0.2-2.3-0.8c-0.4-0.5-0.7-1.1-0.9-1.8c-0.1-0.4-0.2-1-0.7-1
		s-0.4,0.8-0.4,1.2v1.2c0,0.7-0.1,1,0.6,1.3c1.2,0.5,2.4,0.7,3.7,0.7c1.4,0,2.8-0.4,4-1.3c1.1-0.8,1.7-2.1,1.7-3.4
		c0-2.5-1.7-3.6-3.9-4.3l-1.1-0.4c-0.9-0.3-2-0.7-2-1.9c0-1.2,1.3-1.9,2.4-1.9c1.4,0,2.1,1.1,2.5,2.3c0.1,0.3,0.2,0.6,0.6,0.6
		c0.5,0,0.4-0.5,0.4-0.8L78.6,34.8z"/>
	<path class="st0" d="M89.1,47.3c4.1,0,7.6-2.9,7.6-7c0-4.4-3.9-7-8-7c-2,0-3.9,0.7-5.3,2.1c-1.4,1.3-2.2,3.1-2.2,5
		c0,2,0.9,3.9,2.5,5.2C85.3,46.7,87.2,47.3,89.1,47.3 M89.4,46.5c-1.5-0.1-2.9-1.1-3.4-2.6c-0.7-1.3-1-2.8-1-4.3
		c0-2.2,0.9-5.7,3.6-5.7c3.2,0,4.4,4.2,4.4,6.8C93,43,92.2,46.5,89.4,46.5"/>
	<path class="st0" d="M111.5,44c0-0.3,0-0.8-0.4-0.8c-0.3,0-0.4,0.2-0.5,0.4c-0.3,0.7-0.8,1.4-1.4,2c-0.6,0.5-1.4,0.8-2.3,0.8
		c-1.5,0-2.9-0.8-3.7-2.1c-0.7-1.2-1.1-2.7-1.1-4.1c0-1.5,0.4-2.9,1.2-4.2c0.8-1.2,2.1-1.9,3.6-1.9c2.9,0,3,2.6,4,2.6
		c0.2,0,0.4-0.1,0.4-0.3c0,0,0,0,0-0.1c0-0.2,0-0.4-0.1-0.6l-0.2-1.1c-0.1-0.6-0.1-0.7-0.7-0.9c-1.1-0.3-2.1-0.4-3.2-0.5
		c-2.2,0-4.3,0.6-6.1,1.8c-1.7,1.2-2.8,3.2-2.8,5.3c0,2.1,1.1,4.1,2.7,5.3c1.7,1.1,3.7,1.7,5.7,1.6c1.4,0,2.9-0.3,4.2-1
		c0.7-0.4,0.6-0.7,0.7-1.4L111.5,44z"/>
	<path class="st0" d="M118.2,36.6c0-1.4-0.1-1.9,1.4-2.1c0.3,0,0.6-0.1,0.6-0.4s-0.2-0.4-0.5-0.4c-1,0-2.1,0.1-3.1,0.1
		c-1.1,0-2.2-0.1-3.3-0.1c-0.3,0-0.5,0.1-0.5,0.4c0,0.4,0.4,0.4,0.7,0.4c1.4,0.2,1.3,0.8,1.3,2.1v7.6c0,1.4,0.1,1.8-1.4,2
		c-0.3,0-0.6,0.2-0.6,0.5s0.2,0.4,0.5,0.4c1,0,2.1-0.1,3.1-0.1c1.1,0,2.2,0.1,3.3,0.1c0.3,0,0.5-0.1,0.5-0.4c0-0.4-0.4-0.4-0.7-0.5
		c-1.4-0.2-1.3-0.7-1.3-2L118.2,36.6z"/>
	<path class="st0" d="M124.1,40.2l-1.2,3c-0.2,0.6-0.6,1.7-0.9,2.2c-0.3,0.6-0.5,0.6-1.2,0.7c-0.3,0-0.6,0.1-0.6,0.5
		c0,0.4,0.3,0.5,0.7,0.5c0.7,0,1.4,0,2,0s1.4,0,2,0c0.3,0,0.7-0.1,0.7-0.5c0-1-2.1,0-2.1-1.6c0.1-0.7,0.2-1.3,0.5-2
		c0.3-0.7,0.2-0.6,1-0.6h2.8c0.8,0,0.7,0,1,0.7l0.7,1.7c0.1,0.3,0.2,0.5,0.2,0.8c0,0.8-1.5,0.2-1.5,0.9c0,0.4,0.4,0.5,0.7,0.5
		c1,0,2.1-0.1,3.2-0.1c0.9,0,1.7,0.1,2.6,0.1c0.3,0,0.7,0,0.7-0.5c0-0.5-0.4-0.4-0.8-0.5c-0.4,0-0.7-0.2-0.9-0.5
		c-0.2-0.3-0.4-0.7-0.5-1.1l-4.5-10.4c-0.3-0.6-0.2-0.9-1-0.9c-0.9,0-0.9,0.4-1.2,1.1L124.1,40.2z M126.4,37.1l1.4,3.7
		c0.1,0.2,0.2,0.4,0.2,0.5c0,0.3-0.6,0.2-0.7,0.2h-1.9c-0.2,0-0.7,0.1-0.7-0.2c0-0.2,0.1-0.4,0.2-0.6L126.4,37.1z"/>
	<path class="st0" d="M149.3,44c0-0.3,0-0.8-0.4-0.8c-0.3,0-0.4,0.2-0.5,0.4c-0.3,0.7-0.8,1.4-1.4,2c-0.6,0.5-1.4,0.8-2.3,0.8
		c-1.5,0-2.9-0.8-3.7-2.1c-0.7-1.2-1.1-2.7-1.1-4.1c0-1.5,0.4-2.9,1.2-4.2c0.8-1.2,2.1-1.9,3.6-1.9c2.9,0,3,2.6,4,2.6
		c0.2,0,0.4-0.1,0.4-0.3c0,0,0,0,0,0c0-0.2,0-0.4-0.1-0.6l-0.2-1.1c-0.1-0.6-0.1-0.7-0.7-0.9c-1.1-0.3-2.1-0.4-3.2-0.5
		c-2.2,0-4.3,0.6-6.1,1.8c-1.7,1.2-2.8,3.2-2.8,5.3c0,2.1,1.1,4.1,2.7,5.3c1.7,1.1,3.7,1.7,5.7,1.6c1.4,0,2.9-0.3,4.2-1
		c0.7-0.4,0.6-0.7,0.7-1.4L149.3,44z"/>
	<path class="st0" d="M156,36.6c0-1.4-0.1-1.9,1.4-2.1c0.3,0,0.6-0.1,0.6-0.4s-0.2-0.4-0.5-0.4c-1,0-2.1,0.1-3.1,0.1
		c-1.1,0-2.2-0.1-3.3-0.1c-0.3,0-0.5,0.1-0.5,0.4c0,0.4,0.4,0.4,0.7,0.4c1.4,0.2,1.3,0.8,1.3,2.1v7.6c0,1.4,0.1,1.8-1.4,2
		c-0.3,0-0.6,0.2-0.6,0.5s0.2,0.4,0.5,0.4c1,0,2.1-0.1,3.1-0.1c1.1,0,2.2,0.1,3.3,0.1c0.3,0,0.5-0.1,0.5-0.4c0-0.4-0.4-0.4-0.7-0.5
		c-1.4-0.2-1.3-0.7-1.3-2L156,36.6z"/>
	<path class="st0" d="M166.9,47.3c4.1,0,7.6-2.9,7.6-7c0-4.4-3.9-7-8-7c-2,0-3.9,0.7-5.3,2.1c-1.4,1.3-2.2,3.1-2.2,5
		c0,2,0.9,3.9,2.5,5.2C163.1,46.7,165,47.3,166.9,47.3 M167.2,46.5c-1.5-0.1-2.9-1.1-3.4-2.6c-0.7-1.3-1-2.8-1-4.3
		c0-2.2,0.9-5.7,3.6-5.7c3.2,0,4.4,4.3,4.4,6.8C170.8,43,170,46.5,167.2,46.5"/>
	<path class="st0" d="M187.9,41.9l-6.2-7.6c-0.5-0.7-0.5-0.7-1.3-0.7h-3.8c-0.3,0-0.7,0-0.7,0.4c0,0.5,0.5,0.4,0.8,0.5
		c1.1,0.1,1,1,1,1.9V43c0.1,0.8,0,1.7-0.2,2.5c-0.1,0.4-0.5,0.7-0.9,0.6c-0.3,0-0.9,0-0.9,0.5c0,0.3,0.3,0.5,0.6,0.5
		c0.7,0,1.4-0.1,2.1-0.1s1.3,0.1,2,0.1c0.3,0,0.6-0.1,0.6-0.5c0-0.5-0.6-0.4-0.9-0.5c-0.6,0-1-0.2-1.3-0.8c-0.1-0.7-0.2-1.4-0.2-2.1
		v-7.1l8.5,10.6c0.3,0.4,0.6,0.8,1.1,0.8c0.7,0,0.6-0.4,0.6-1V36.4c0-0.8-0.1-1.9,0.9-2c0.4,0,1.1,0.1,1.1-0.4
		c0-0.4-0.3-0.4-0.6-0.4c-0.6,0-1.3,0-1.9,0s-1.3,0-1.9,0c-0.3,0-0.8,0-0.8,0.5c0,0.5,0.5,0.3,0.8,0.4c0.5,0,0.9,0.3,1.2,0.7
		c0.1,0.5,0.2,1,0.2,1.5L187.9,41.9z"/>
	<path class="st0" d="M211.9,44c0-0.3,0-0.8-0.4-0.8c-0.3,0-0.4,0.2-0.5,0.4c-0.3,0.7-0.8,1.4-1.4,2c-0.6,0.5-1.4,0.8-2.3,0.8
		c-1.5,0-2.9-0.8-3.7-2.1c-0.7-1.2-1.1-2.7-1.1-4.1c0-1.5,0.4-2.9,1.2-4.2c0.8-1.2,2.1-1.9,3.6-1.9c2.9,0,3,2.6,4,2.6
		c0.2,0,0.4-0.1,0.4-0.3c0,0,0,0,0-0.1c0-0.2,0-0.4-0.1-0.6l-0.2-1.1c-0.1-0.6-0.1-0.7-0.7-0.9c-1.1-0.3-2.1-0.4-3.2-0.5
		c-2.2,0-4.3,0.6-6.1,1.8c-1.7,1.2-2.8,3.2-2.8,5.3c0,2.1,1.1,4.1,2.7,5.3c1.7,1.1,3.7,1.7,5.7,1.6c1.4,0,2.9-0.3,4.2-1
		c0.7-0.4,0.6-0.7,0.7-1.4L211.9,44z"/>
	<path class="st0" d="M218.6,36.6c0-1.4-0.1-1.9,1.4-2.1c0.3,0,0.6-0.1,0.6-0.4s-0.2-0.4-0.5-0.4c-1,0-2.1,0.1-3.1,0.1
		c-1.1,0-2.2-0.1-3.3-0.1c-0.3,0-0.5,0.1-0.5,0.4c0,0.4,0.4,0.4,0.7,0.4c1.4,0.2,1.3,0.8,1.3,2.1v7.6c0,1.4,0.1,1.8-1.4,2
		c-0.3,0-0.6,0.2-0.6,0.5s0.2,0.4,0.5,0.4c1,0,2.1-0.1,3.1-0.1c1.1,0,2.2,0.1,3.3,0.1c0.3,0,0.5-0.1,0.5-0.4c0-0.4-0.4-0.4-0.7-0.5
		c-1.4-0.2-1.3-0.7-1.3-2L218.6,36.6z"/>
	<path class="st0" d="M223.2,44.1c0,1.4,0.1,1.8-1.3,2.1c-0.3,0-0.6,0.1-0.6,0.5c0,0.3,0.2,0.5,0.5,0.5c0.4,0,0.8-0.1,1.3-0.1
		c2,0,4.1,0.1,6.1,0.1c1.2,0.1,2.5-0.1,3.6-0.7c1.1-0.6,1.7-1.8,1.7-3.1c0-2.7-2.1-3.6-4.5-3.7c1.8-0.1,3.9-0.7,3.9-2.9
		c-0.1-1.4-1-2.5-2.3-2.9c-1.2-0.3-2.3-0.5-3.5-0.5c-2.1-0.1-4.1,0.1-6.1,0.6c-0.3,0.1-0.6,0.2-0.6,0.5c0,0.5,0.6,0.4,0.9,0.4
		c1,0,0.9,0.6,0.9,1.5L223.2,44.1z M226.8,35.4c0-0.3-0.1-0.8,0.1-1c0.3-0.2,0.7-0.4,1.1-0.3c1.3,0,2.3,1,2.3,2.3c0,0.1,0,0.1,0,0.2
		c0,1.8-1.1,2.6-2.8,2.6c-0.8,0-0.8,0-0.8-0.9L226.8,35.4z M226.8,40.9c0-0.6,0-0.9,0.6-0.9c0.7-0.1,1.4,0.1,2,0.4
		c1,0.6,1.6,1.8,1.5,2.9c0,1.6-0.7,3-2.5,3c-1.4,0-1.6-1.1-1.6-2.3V40.9z"/>
	<path class="st0" d="M238.9,40.2l-1.2,3c-0.2,0.6-0.6,1.7-0.9,2.2c-0.3,0.6-0.5,0.6-1.2,0.7c-0.3,0-0.6,0.1-0.6,0.5
		c0,0.4,0.3,0.5,0.7,0.5c0.7,0,1.4,0,2,0s1.4,0,2,0c0.3,0,0.7-0.1,0.7-0.5c0-1-2.1,0-2.1-1.6c0.1-0.7,0.2-1.3,0.5-2
		c0.3-0.7,0.2-0.6,0.9-0.6h2.8c0.8,0,0.7,0,1,0.7l0.7,1.7c0.1,0.3,0.2,0.5,0.2,0.8c0,0.8-1.5,0.2-1.5,0.9c0,0.4,0.4,0.5,0.7,0.5
		c1,0,2.1-0.1,3.2-0.1c0.9,0,1.7,0.1,2.6,0.1c0.3,0,0.7,0,0.7-0.5c0-0.5-0.4-0.4-0.8-0.5c-0.4,0-0.7-0.2-0.9-0.5
		c-0.2-0.3-0.4-0.7-0.5-1.1l-4.5-10.4c-0.3-0.6-0.2-0.9-1-0.9c-0.9,0-0.9,0.4-1.2,1.1L238.9,40.2z M241.2,37.1l1.4,3.7
		c0.1,0.2,0.1,0.4,0.2,0.5c0,0.3-0.6,0.2-0.7,0.2h-1.9c-0.2,0-0.6,0.1-0.6-0.2c0-0.2,0.1-0.4,0.2-0.6L241.2,37.1z"/>
	<path class="st0" d="M258.6,47.3c4,0,7.6-2.9,7.6-7c0-4.4-3.9-7-8-7c-2,0-3.9,0.7-5.3,2.1c-1.4,1.3-2.2,3.1-2.2,5
		c0,2,0.9,3.9,2.5,5.2C254.8,46.7,256.7,47.3,258.6,47.3 M258.9,46.5c-1.5-0.1-2.9-1.1-3.4-2.6c-0.7-1.3-1-2.8-1-4.3
		c0-2.2,0.9-5.7,3.6-5.7c3.2,0,4.4,4.3,4.4,6.8C262.5,43,261.7,46.5,258.9,46.5"/>
	<path class="st0" d="M24,40.2c0-2,1.6-3.6,3.6-3.6c2,0,3.6,1.6,3.6,3.6s-1.6,3.6-3.6,3.6c0,0,0,0,0,0C25.6,43.8,24,42.1,24,40.2"/>
	<path class="st0" d="M28.8,58h17.9v-5.9H28.8V58z M40.1,55.4h-5.3v-2.1h5.3V55.4z"/>
	<rect x="15.1" y="52.6" class="st1" width="5.8" height="5"/>
	<path class="st1" d="M35.7,42H17.7L4.9,51.7h2l10.8-8.2l10.8,8.2h19.9L35.7,42z"/>
	<path class="st1" d="M12.3,45l5.1-3.8l0,0l0.3-0.2h4.6v-17c0-3.4,1.8-4.1,3.9-4.1c2,0,3.7,0.8,3.7,4.1v6.2h9.9v-7
		c0-8.7-7.6-11.3-13.8-11.3c-6.1,0-13.7,2.5-13.7,11.2V45z"/>
	<path class="st0" d="M27.4,30.5c0-2,1.6-3.6,3.6-3.6s3.6,1.6,3.6,3.6c0,2-1.6,3.6-3.6,3.6C29,34,27.4,32.4,27.4,30.5"/>
	<path class="st1" d="M27.4,30.5c0-2,1.6-3.6,3.6-3.6s3.6,1.6,3.6,3.6c0,2-1.6,3.6-3.6,3.6C29,34,27.4,32.4,27.4,30.5"/>
	<path class="st0" d="M36,23.9c0-2,1.6-3.6,3.6-3.6s3.6,1.6,3.6,3.6s-1.6,3.6-3.6,3.6c0,0,0,0,0,0C37.6,27.5,36,25.9,36,23.9
		C36,23.9,36,23.9,36,23.9"/>
	<path class="st1" d="M36,23.9c0-2,1.6-3.6,3.6-3.6s3.6,1.6,3.6,3.6s-1.6,3.6-3.6,3.6c0,0,0,0,0,0C37.6,27.5,36,25.9,36,23.9
		C36,23.9,36,23.9,36,23.9"/>
	<path class="st0" d="M29.9,63.8v5.3c0,3.4-1.8,4.1-3.8,4.1c-2.1,0-3.8-0.8-3.8-4.1V59h-9.9v11c0,8.7,7.6,11.3,13.7,11.3
		c6.2,0,13.8-2.5,13.8-11.2v-6.1H29.9z"/>
</g>
</svg>
