<svg xmlns="http://www.w3.org/2000/svg" width="267.321" height="71.025" viewBox="0 0 267.321 71.025">
  <g id="Group_342" data-name="Group 342" transform="translate(-764.967 -270.831)">
    <path id="Path_305" data-name="Path 305" d="M814.764,317.505c0,1.269-.915.647-.915,1.114a.2.2,0,0,0,.226.22c.379,0,.771-.052,1.146-.052.676,0,1.356.089,2.028.089a3.74,3.74,0,0,0,3.9-3.507c0-1.968-1.649-3.316-4.043-3.316-.418,0-3.3.077-3.3.6,0,.065.049.186.132.186.153-.008.288-.03.389-.03.3,0,.434.12.434.747Zm1.621-.258v-3.974c0-.407.026-.548.141-.636a1.081,1.081,0,0,1,.6-.129c1.487,0,2.258,1.538,2.258,2.93,0,1.732-.939,3-2.2,3-.763,0-.8-.538-.8-1.193" transform="translate(1.119 0.944)" fill="#d70b1a" fill-rule="evenodd"/>
    <path id="Path_306" data-name="Path 306" d="M827.722,315.794c0-.347.028-.356.678-.356,1.041,0,.855,1.034,1.263,1.034.169,0,.2-.25.2-.518,0-.248-.036-.517-.036-.636l.045-1.1a.216.216,0,0,0-.207-.2c-.131,0-.22.111-.292.367-.172.577-.524.618-1.071.618h-.315c-.216,0-.271-.09-.271-.387v-1.579c0-.428.161-.46.688-.46h.284c1.173,0,1.24,1.067,1.592,1.067.18,0,.216-.281.216-.607,0-.271-.019-.548-.019-.775,0-.17-.128-.17-.253-.17l-.406.018-1.507.042c-.3.008-.8,0-1.164,0-.609,0-1.212-.06-1.823-.06-.16,0-.242.069-.242.208,0,.31.447.111.766.405.125.112.15.262.15.716V317.5c0,.7-.1.784-.735.924a.191.191,0,0,0-.181.191c0,.139.083.219.237.219.227,0,.453-.022.679-.041.477-.024.958-.032,1.432-.032,1.021,0,2.051.05,3.077.05.226,0,.179-.574.266-1.063a3.385,3.385,0,0,0,.085-.516.205.205,0,0,0-.219-.218c-.143,0-.226.1-.359.373a1.684,1.684,0,0,1-1.627,1c-.713,0-.937-.375-.937-1.082Z" transform="translate(1.377 0.945)" fill="#d70b1a" fill-rule="evenodd"/>
    <path id="Path_307" data-name="Path 307" d="M842.54,315.522c-.319.793-.535,1.638-.909,2.415-.263.568-.85.309-.85.642,0,.149.116.241.3.241.322,0,.651-.06.975-.06.308,0,.616.05.929.05.233,0,.34-.082.34-.231,0-.456-1-.05-1-.783a3.406,3.406,0,0,1,.274-1.1c.047-.168.086-.189.275-.189h1.571c.2,0,.227.021.3.226l.407,1.116a.9.9,0,0,1,.065.267c0,.337-.721.1-.721.464,0,.149.105.231.3.231.481,0,.949-.058,1.438-.058.456,0,.9.049,1.353.049.189,0,.3-.08.3-.228,0-.261-.3-.228-.474-.249-.2-.019-.324-.178-.512-.656l-2.19-5.426c-.112-.3-.141-.317-.406-.317-.29,0-.36.058-.5.427Zm1.136-1.687.713,1.944a.333.333,0,0,1,.038.149c0,.072-.038.09-.2.09h-1.138c-.12,0-.179-.04-.179-.107a.806.806,0,0,1,.044-.2Z" transform="translate(1.736 0.941)" fill="#d70b1a" fill-rule="evenodd"/>
    <path id="Path_308" data-name="Path 308" d="M855.053,315.009c-.2,0-.245-.059-.245-.257V313.43c0-.569.01-.793.5-.875.152-.031.42-.048.42-.236a.209.209,0,0,0-.237-.22c-.5,0-1,.061-1.511.061s-1.01-.061-1.511-.061c-.163,0-.245.068-.245.206,0,.312.446.113.765.408.125.112.151.262.151.717V317.5c0,.7-.093.781-.739.925a.188.188,0,0,0-.178.19c0,.136.083.216.235.216.5,0,1-.06,1.506-.06s1.013.06,1.516.06c.161,0,.248-.071.248-.209,0-.287-.51-.168-.769-.406-.123-.11-.151-.261-.151-.716v-1.758c0-.259.01-.27.274-.27h2.049c.168,0,.178.11.178.24V317.5c0,.675-.069.781-.739.925a.187.187,0,0,0-.179.19.206.206,0,0,0,.235.216c.5,0,1-.06,1.5-.06s1.016.06,1.528.06c.159,0,.242-.071.242-.209,0-.22-.28-.22-.425-.247-.483-.1-.5-.4-.5-.876V313.43c0-.009-.009-.089-.009-.187a.623.623,0,0,1,.513-.687h-.007c.064,0,.433-.048.433-.236,0-.14-.084-.22-.242-.22-.5,0-1.009.061-1.508.061s-1.011-.061-1.518-.061c-.159,0-.242.068-.242.206,0,.22.275.22.415.251.492.108.5.419.5.875v1.323c0,.217-.027.257-.209.257Z" transform="translate(1.999 0.945)" fill="#d70b1a" fill-rule="evenodd"/>
    <path id="Path_309" data-name="Path 309" d="M871.1,315.432a3.577,3.577,0,0,0-3.753-3.439,3.526,3.526,0,0,0-3.523,3.521,3.642,3.642,0,0,0,7.276-.082m-1.744.277c0,1.685-.7,2.85-1.714,2.85-1.127,0-2.055-1.52-2.055-3.366,0-1.68.7-2.833,1.723-2.833,1.471,0,2.047,2.117,2.047,3.35" transform="translate(2.264 0.943)" fill="#d70b1a" fill-rule="evenodd"/>
    <path id="Path_310" data-name="Path 310" d="M879.166,315.316c.9-.14,1.721-.475,1.721-1.569a1.659,1.659,0,0,0-1.854-1.648c-.787,0-1.568.06-2.357.06-.464,0-.937-.06-1.4-.06-.162,0-.248.069-.248.206,0,.312.444.114.766.408.124.112.152.262.152.717V317.5c0,.7-.093.783-.743.925a.188.188,0,0,0-.176.19c0,.137.086.217.238.217.491,0,.972-.062,1.467-.062s.973.062,1.469.062c.159,0,.244-.072.244-.21,0-.286-.519-.18-.765-.407-.127-.109-.153-.26-.153-.715v-1.688c0-.189.027-.229.172-.229.353,0,.452.107.777.8l1.038,2.192c.086.189.133.232.287.232.312,0,.616-.034.928-.034.255,0,.521.034.775.034.189,0,.292-.07.292-.21,0-.122-.053-.179-.214-.217-.345-.073-.391-.121-.638-.63l-.774-1.6a1.2,1.2,0,0,0-1-.838m-1.639-.5V313.1c0-.239.019-.521.532-.521a1.308,1.308,0,0,1-.264,2.6c-.232,0-.268-.057-.268-.356" transform="translate(2.521 0.945)" fill="#d70b1a" fill-rule="evenodd"/>
    <path id="Path_311" data-name="Path 311" d="M889.509,315.316c.9-.14,1.724-.475,1.724-1.569a1.664,1.664,0,0,0-1.858-1.648c-.784,0-1.574.06-2.359.06-.464,0-.938-.06-1.4-.06-.161,0-.247.069-.247.206,0,.312.442.114.765.408.125.112.154.262.154.717V317.5c0,.7-.094.783-.741.925a.188.188,0,0,0-.178.19.207.207,0,0,0,.236.217c.492,0,.978-.062,1.468-.062s.976.062,1.466.062c.167,0,.246-.072.246-.21,0-.286-.515-.18-.765-.407-.126-.109-.154-.26-.154-.715v-1.688c0-.189.029-.229.174-.229.351,0,.454.107.776.8l1.043,2.192c.084.189.131.232.28.232.314,0,.62-.034.932-.034.255,0,.517.034.771.034.189,0,.293-.07.293-.21,0-.122-.051-.179-.213-.217-.345-.073-.388-.121-.638-.63l-.772-1.6a1.2,1.2,0,0,0-1-.838m-1.643-.5V313.1c0-.239.023-.521.534-.521a1.308,1.308,0,0,1-.265,2.6c-.229,0-.269-.057-.269-.356" transform="translate(2.758 0.945)" fill="#d70b1a" fill-rule="evenodd"/>
    <path id="Path_312" data-name="Path 312" d="M902.9,315.432a3.575,3.575,0,0,0-3.751-3.439,3.525,3.525,0,0,0-3.521,3.521,3.64,3.64,0,0,0,7.272-.082m-1.741.277c0,1.685-.7,2.853-1.719,2.853-1.123,0-2.052-1.523-2.052-3.369,0-1.68.7-2.833,1.725-2.833,1.469,0,2.047,2.117,2.047,3.35" transform="translate(2.993 0.943)" fill="#d70b1a" fill-rule="evenodd"/>
    <path id="Path_313" data-name="Path 313" d="M911.24,312.619c0-.2-.037-.277-.164-.349a3.311,3.311,0,0,0-1.312-.277,2.441,2.441,0,0,0-2.644,2.147c0,2.065,3.3,1.67,3.3,3.267,0,.656-.578,1.122-1.394,1.122-1.666,0-1.256-1.758-1.787-1.758-.169,0-.218.13-.218.583,0,.1-.012.263-.012.439a1.137,1.137,0,0,0,.134.688,3.836,3.836,0,0,0,1.911.465,2.485,2.485,0,0,0,2.661-2.373c0-2.477-3.263-1.8-3.263-3.2a1.063,1.063,0,0,1,1.127-.946c1.144,0,1.047,1.455,1.46,1.455.187,0,.213-.267.213-.608,0-.209-.007-.446-.007-.655" transform="translate(3.253 0.943)" fill="#d70b1a" fill-rule="evenodd"/>
    <path id="Path_314" data-name="Path 314" d="M926.065,315.1l-1.238-1.9a.99.99,0,0,1-.2-.456c0-.346.757-.04.757-.441,0-.154-.1-.2-.341-.2-.519,0-1.038.05-1.565.05-.472,0-.954-.05-1.424-.05-.241,0-.332.05-.332.2,0,.257.295.247.463.27s.329.189.58.565l1.843,2.809V317.5c0,.675-.1.784-.742.924a.181.181,0,0,0-.175.191c0,.137.073.217.236.217.5,0,1.01-.062,1.513-.062s1.016.062,1.514.062c.162,0,.249-.07.249-.21,0-.22-.267-.22-.417-.248-.5-.107-.5-.408-.5-.875v-1.877l1.322-2.025c.463-.715.576-.947,1.231-1.033.171-.035.249-.1.249-.23,0-.141-.107-.21-.3-.21-.336,0-.667.039-.994.039-.363,0-.732-.05-1.094-.05-.2,0-.3.071-.3.211,0,.477.9.072.9.567a1.954,1.954,0,0,1-.269.645Z" transform="translate(3.59 0.945)" fill="#d70b1a" fill-rule="evenodd"/>
    <path id="Path_315" data-name="Path 315" d="M941.482,315.912c0-.119.026-.158.128-.158.37,0,.868.289,1.378.289a1.977,1.977,0,0,0,1.975-2.037c0-1.41-1.191-1.909-2.337-1.909-.725,0-1.436.061-2.159.061-.435,0-.863-.061-1.3-.061-.164,0-.248.069-.248.207,0,.311.444.112.764.407.125.112.156.262.156.717V317.5c0,.7-.094.783-.742.924a.194.194,0,0,0-.178.191c0,.137.084.216.238.216.5,0,.994-.061,1.5-.061s.994.061,1.492.061c.162,0,.248-.071.248-.209,0-.22-.283-.22-.429-.248-.488-.1-.488-.419-.488-.875Zm0-.881V313.44c0-.444.037-.915.593-.915a1.359,1.359,0,0,1,1.187,1.5c0,.873-.454,1.41-1.147,1.41-.275,0-.633-.057-.633-.405" transform="translate(3.984 0.945)" fill="#d70b1a" fill-rule="evenodd"/>
    <path id="Path_316" data-name="Path 316" d="M952.878,315.316c.9-.14,1.722-.475,1.722-1.569a1.663,1.663,0,0,0-1.857-1.648c-.785,0-1.568.06-2.356.06-.463,0-.939-.06-1.4-.06-.158,0-.249.069-.249.206,0,.312.445.114.768.408.123.112.151.262.151.717V317.5c0,.7-.094.781-.743.925a.193.193,0,0,0-.177.19c0,.137.091.217.241.217.489,0,.973-.062,1.467-.062s.971.062,1.469.062c.159,0,.24-.072.24-.21,0-.286-.517-.18-.765-.407-.126-.109-.151-.26-.151-.715v-1.688c0-.189.026-.229.171-.229.351,0,.453.107.779.8l1.041,2.192c.082.189.133.232.279.232.316,0,.621-.034.932-.034.258,0,.517.034.774.034.187,0,.293-.07.293-.21,0-.122-.054-.179-.213-.217-.347-.073-.391-.121-.638-.63l-.774-1.6c-.272-.56-.5-.759-1-.839m-1.64-.5V313.1c0-.239.018-.521.534-.521a1.308,1.308,0,0,1-.27,2.6c-.227,0-.264-.057-.264-.356" transform="translate(4.209 0.945)" fill="#d70b1a" fill-rule="evenodd"/>
    <path id="Path_317" data-name="Path 317" d="M961.714,315.794c0-.345.026-.356.682-.356,1.039,0,.845,1.034,1.255,1.034.171,0,.213-.25.213-.518,0-.25-.042-.517-.042-.636l.048-1.1a.221.221,0,0,0-.21-.2c-.132,0-.216.111-.293.367-.171.577-.516.617-1.07.617h-.313c-.22,0-.271-.089-.271-.388v-1.577c0-.428.16-.46.69-.46h.285c1.174,0,1.237,1.067,1.586,1.067.182,0,.22-.281.22-.607,0-.271-.018-.548-.018-.775,0-.17-.134-.17-.257-.17l-.408.018-1.507.042c-.3.008-.792,0-1.16,0-.609,0-1.214-.06-1.818-.06-.16,0-.251.069-.251.206,0,.312.449.114.768.407.123.112.149.262.149.716V317.5c0,.7-.091.78-.74.924a.193.193,0,0,0-.178.189.21.21,0,0,0,.238.219c.227,0,.457-.02.679-.041.479-.021.959-.03,1.431-.03,1.025,0,2.054.05,3.079.05.229,0,.179-.574.267-1.063a3.065,3.065,0,0,0,.082-.516.2.2,0,0,0-.213-.218c-.145,0-.23.1-.365.372a1.683,1.683,0,0,1-1.628,1c-.7,0-.933-.375-.933-1.082Z" transform="translate(4.446 0.945)" fill="#d70b1a" fill-rule="evenodd"/>
    <path id="Path_318" data-name="Path 318" d="M973.123,312.619c0-.2-.036-.277-.16-.349a3.317,3.317,0,0,0-1.316-.277A2.445,2.445,0,0,0,969,314.14c0,2.065,3.3,1.67,3.3,3.267,0,.656-.576,1.122-1.394,1.122-1.665,0-1.256-1.758-1.79-1.758-.168,0-.217.13-.217.583,0,.1-.005.263-.005.439,0,.282.016.59.134.686a3.8,3.8,0,0,0,1.909.467,2.488,2.488,0,0,0,2.662-2.373c0-2.477-3.272-1.8-3.272-3.2a1.067,1.067,0,0,1,1.13-.946c1.146,0,1.053,1.455,1.46,1.455.189,0,.22-.267.22-.608,0-.209-.014-.446-.014-.655" transform="translate(4.671 0.943)" fill="#d70b1a" fill-rule="evenodd"/>
    <path id="Path_319" data-name="Path 319" d="M981.346,312.767c0-.16.038-.178.3-.178,1.465,0,.993,1.269,1.552,1.269.131,0,.189-.077.209-.3l.161-1.618c0-.13-.03-.26-.18-.26-.107,0-.159.052-.257.208-.122.219-.258.28-.616.28h-3.885c-.232,0-.251-.023-.321-.251-.038-.107-.1-.169-.194-.169-.126,0-.208.078-.257.249l-.387,1.483a.589.589,0,0,0-.022.129.189.189,0,0,0,.191.215c.445,0,.527-1.232,1.745-1.232.241,0,.281.02.281.181v4.738c0,.675-.094.78-.741.925a.194.194,0,0,0-.188.19c0,.137.089.217.245.217.5,0,1.013-.061,1.515-.061s1.016.061,1.529.061c.159,0,.242-.071.242-.21,0-.22-.285-.22-.426-.248-.494-.1-.494-.418-.494-.875Z" transform="translate(4.867 0.936)" fill="#d70b1a" fill-rule="evenodd"/>
    <path id="Path_320" data-name="Path 320" d="M988.438,315.522c-.322.793-.537,1.638-.907,2.415-.267.568-.854.309-.854.642,0,.149.116.241.3.241.322,0,.655-.062.973-.062s.618.052.929.052c.239,0,.344-.082.344-.231,0-.456-1-.05-1-.783a3.378,3.378,0,0,1,.276-1.1c.045-.168.08-.19.271-.19h1.569c.2,0,.23.023.3.227l.407,1.116a.9.9,0,0,1,.068.267c0,.335-.72.1-.72.464,0,.149.1.231.3.231.482,0,.952-.059,1.434-.059.455,0,.9.049,1.356.049.19,0,.307-.079.307-.227,0-.261-.307-.228-.482-.249-.194-.019-.318-.178-.508-.656l-2.187-5.426c-.117-.3-.141-.317-.409-.317-.293,0-.358.058-.5.427Zm1.137-1.687.712,1.944a.363.363,0,0,1,.034.149c0,.072-.034.09-.2.09h-1.137c-.124,0-.178-.04-.178-.11a.982.982,0,0,1,.042-.2Z" transform="translate(5.078 0.941)" fill="#d70b1a" fill-rule="evenodd"/>
    <path id="Path_321" data-name="Path 321" d="M1002.373,316.3l-1.607-4.024c-.068-.169-.181-.178-.33-.178-.234.009-.475.03-.838.03-.319,0-.642-.03-.96-.03-.277,0-.392.06-.392.222,0,.452.872-.022.872.632v.26a2.351,2.351,0,0,1-.01.269l-.2,4.209c-.033.5-.105.629-.427.688-.362.058-.424.1-.424.246,0,.13.082.2.238.2.33,0,.64-.059.962-.059.293,0,.587.05.88.05.2,0,.311-.079.311-.218,0-.259-.325-.23-.48-.237-.484-.021-.577-.481-.577-.97,0-.275.037-.563.037-.781l.1-2.932,1.933,4.84c.063.158.138.219.281.219.226,0,.269-.043.428-.537.065-.188.131-.378.2-.556l1.591-4.043.078,4.123c0,.812-.368.517-.777.682a.231.231,0,0,0-.142.212c0,.137.105.217.274.217.42,0,.846-.061,1.263-.061.509,0,1.022.061,1.532.061.267,0,.391-.07.391-.23,0-.129-.1-.2-.258-.218l-.241-.019c-.273-.029-.373-.258-.384-.844l-.124-4.251c0-.059-.009-.14-.009-.21a.424.424,0,0,1,.433-.5c.3-.022.422-.1.422-.247s-.1-.222-.285-.222c-.274,0-.56.03-.834.03-.369,0-.751-.03-1.12-.03-.14,0-.14,0-.233.249Z" transform="translate(5.339 0.945)" fill="#d70b1a" fill-rule="evenodd"/>
    <path id="Path_322" data-name="Path 322" d="M1017.6,315.432a3.577,3.577,0,0,0-3.753-3.44,3.523,3.523,0,0,0-3.519,3.521,3.64,3.64,0,0,0,7.272-.081m-1.743.275c0,1.687-.7,2.852-1.714,2.852-1.126,0-2.055-1.52-2.055-3.366,0-1.68.7-2.833,1.725-2.833,1.469,0,2.045,2.117,2.045,3.348" transform="translate(5.62 0.943)" fill="#d70b1a" fill-rule="evenodd"/>
    <path id="Path_323" data-name="Path 323" d="M1025.937,312.619c0-.2-.037-.276-.164-.349a3.314,3.314,0,0,0-1.315-.277,2.439,2.439,0,0,0-2.642,2.147c0,2.065,3.3,1.67,3.3,3.267,0,.656-.58,1.122-1.4,1.122-1.663,0-1.252-1.758-1.785-1.758-.171,0-.223.13-.223.583,0,.1-.007.263-.007.439a1.137,1.137,0,0,0,.134.688,3.823,3.823,0,0,0,1.911.465,2.486,2.486,0,0,0,2.661-2.373c0-2.477-3.268-1.8-3.268-3.2a1.066,1.066,0,0,1,1.127-.946c1.149,0,1.053,1.455,1.462,1.455.188,0,.217-.267.217-.608,0-.209-.008-.446-.008-.655" transform="translate(5.881 0.943)" fill="#d70b1a" fill-rule="evenodd"/>
    <path id="Path_324" data-name="Path 324" d="M817.77,299.448l-1.216,3.035c-.245.613-.643,1.756-.932,2.287-.331.592-.553.633-1.193.743-.288.046-.62.09-.62.462,0,.4.354.463.685.463.685,0,1.393-.045,2.081-.045s1.4.045,2.081.045c.308,0,.729-.065.729-.463,0-.988-2.191-.044-2.191-1.6a6.946,6.946,0,0,1,.487-2c.267-.7.2-.66.975-.66h2.9c.795,0,.728-.043,1.014.725l.713,1.78a2.49,2.49,0,0,1,.22.834c0,.794-1.55.175-1.55.924,0,.418.4.463.707.463,1.064,0,2.129-.089,3.233-.089.884,0,1.771.089,2.7.089.31,0,.754-.023.754-.463,0-.505-.421-.436-.8-.462a1,1,0,0,1-.907-.526,6.5,6.5,0,0,1-.552-1.119l-4.557-10.679c-.266-.618-.247-.883-.975-.883-.889,0-.911.4-1.219,1.123Zm2.367-3.23,1.463,3.761a3.184,3.184,0,0,1,.2.546c0,.264-.576.177-.737.177h-1.922c-.2,0-.661.087-.661-.219a2.965,2.965,0,0,1,.2-.638Z" transform="translate(1.119 0.492)" fill="#003882" fill-rule="evenodd"/>
    <path id="Path_325" data-name="Path 325" d="M838.887,293.868c0-.417.068-.768-.353-.987a7.955,7.955,0,0,0-2.873-.575c-2.546,0-5.756,1.539-5.756,4.438,0,2.2,2.147,3.185,3.894,3.912,1.377.551,3.3,1.078,3.3,2.856,0,1.586-1.616,2.332-3.011,2.332a3.27,3.27,0,0,1-2.3-.793,3.708,3.708,0,0,1-.885-1.826c-.109-.371-.221-1.028-.751-1.028s-.445.832-.445,1.182v1.211c0,.724-.067,1.011.644,1.361a10.239,10.239,0,0,0,3.738.727,6.318,6.318,0,0,0,4.075-1.319,4.693,4.693,0,0,0,1.77-3.516c0-2.549-1.749-3.671-3.964-4.371l-1.128-.378c-.949-.3-2.036-.747-2.036-1.91,0-1.275,1.348-1.978,2.5-1.978,1.457,0,2.122,1.167,2.541,2.395.092.286.222.593.6.593.486,0,.441-.486.441-.833Z" transform="translate(1.483 0.492)" fill="#003882" fill-rule="evenodd"/>
    <path id="Path_326" data-name="Path 326" d="M849.367,306.681c4.144,0,7.791-2.947,7.791-7.209,0-4.479-3.98-7.165-8.187-7.165a7.542,7.542,0,0,0-5.466,2.155,7.111,7.111,0,0,0-2.236,5.1,6.861,6.861,0,0,0,2.521,5.341,9.731,9.731,0,0,0,5.577,1.78m.264-.793a4.235,4.235,0,0,1-3.516-2.615,9.652,9.652,0,0,1-1-4.373c0-2.241.885-5.819,3.717-5.819,3.276,0,4.515,4.346,4.515,6.961,0,2.241-.862,5.846-3.72,5.846" transform="translate(1.748 0.492)" fill="#003882" fill-rule="evenodd"/>
    <path id="Path_327" data-name="Path 327" d="M871.854,303.338c.024-.329.045-.833-.44-.833-.293,0-.444.219-.555.458a6.279,6.279,0,0,1-1.463,2.023,3.713,3.713,0,0,1-2.323.832,4.506,4.506,0,0,1-3.763-2.194,8.035,8.035,0,0,1-1.106-4.218,7.474,7.474,0,0,1,1.22-4.266,4.6,4.6,0,0,1,3.649-1.976c2.989,0,3.057,2.616,4.072,2.616a.374.374,0,0,0,.421-.374,3.086,3.086,0,0,0-.09-.638l-.175-1.12c-.112-.613-.112-.7-.708-.88a13.265,13.265,0,0,0-3.319-.46,10.958,10.958,0,0,0-6.22,1.845A6.809,6.809,0,0,0,858.2,299.6a6.988,6.988,0,0,0,2.81,5.448,10.068,10.068,0,0,0,5.819,1.627,8.4,8.4,0,0,0,4.251-1.011c.685-.4.664-.682.709-1.408Z" transform="translate(2.135 0.492)" fill="#003882" fill-rule="evenodd"/>
    <path id="Path_328" data-name="Path 328" d="M878.375,295.663c0-1.473-.109-1.912,1.392-2.156.269-.041.622-.087.622-.438s-.244-.417-.552-.417c-1.042,0-2.108.085-3.168.085-1.147,0-2.254-.085-3.406-.085-.312,0-.533.065-.533.417,0,.373.444.4.71.438,1.413.244,1.284.814,1.284,2.156v7.8c0,1.428.068,1.8-1.4,2.039-.267.047-.6.158-.6.5s.221.422.533.422c1.064,0,2.125-.089,3.185-.089,1.151,0,2.26.089,3.409.089.288,0,.532-.089.532-.422,0-.395-.421-.457-.708-.5-1.394-.218-1.306-.743-1.306-2.039Z" transform="translate(2.468 0.5)" fill="#003882" fill-rule="evenodd"/>
    <path id="Path_329" data-name="Path 329" d="M884.254,299.447l-1.212,3.036c-.243.613-.64,1.756-.931,2.287-.331.592-.553.633-1.2.743-.283.046-.615.09-.615.462,0,.4.349.463.685.463.684,0,1.394-.045,2.078-.045s1.4.045,2.084.045c.307,0,.726-.065.726-.463,0-.988-2.188-.044-2.188-1.6a6.932,6.932,0,0,1,.488-2c.266-.7.2-.66.974-.66h2.9c.795,0,.731-.043,1.018.725l.708,1.78a2.419,2.419,0,0,1,.22.834c0,.794-1.548.175-1.548.924,0,.418.4.463.709.463,1.062,0,2.124-.089,3.231-.089.888,0,1.77.089,2.7.089.31,0,.753-.025.753-.463,0-.505-.419-.436-.8-.462a.993.993,0,0,1-.908-.526,6.657,6.657,0,0,1-.553-1.119l-4.56-10.679c-.263-.618-.241-.883-.973-.883-.887,0-.908.4-1.217,1.123Zm2.373-3.229,1.461,3.761a3.1,3.1,0,0,1,.2.546c0,.264-.579.177-.731.177h-1.926c-.2,0-.666.087-.666-.219a2.822,2.822,0,0,1,.206-.638Z" transform="translate(2.642 0.492)" fill="#003882" fill-rule="evenodd"/>
    <path id="Path_330" data-name="Path 330" d="M909.676,303.338c.027-.329.045-.833-.441-.833-.291,0-.444.219-.55.458a6.443,6.443,0,0,1-1.466,2.023,3.718,3.718,0,0,1-2.324.832,4.5,4.5,0,0,1-3.761-2.194,8.037,8.037,0,0,1-1.107-4.218,7.473,7.473,0,0,1,1.219-4.266,4.6,4.6,0,0,1,3.649-1.976c2.987,0,3.053,2.616,4.072,2.616a.376.376,0,0,0,.426-.374,2.9,2.9,0,0,0-.094-.638l-.176-1.12c-.11-.613-.11-.7-.706-.88a13.293,13.293,0,0,0-3.32-.46,10.952,10.952,0,0,0-6.221,1.845,6.822,6.822,0,0,0-2.854,5.452,6.984,6.984,0,0,0,2.809,5.448,10.073,10.073,0,0,0,5.82,1.627,8.415,8.415,0,0,0,4.252-1.011c.686-.4.664-.682.71-1.408Z" transform="translate(3.002 0.492)" fill="#003882" fill-rule="evenodd"/>
    <path id="Path_331" data-name="Path 331" d="M916.2,295.663c0-1.473-.107-1.912,1.393-2.156.267-.041.621-.089.621-.438s-.245-.417-.55-.417c-1.044,0-2.1.085-3.166.085-1.152,0-2.261-.085-3.407-.085-.316,0-.537.065-.537.417,0,.373.441.4.711.438,1.411.244,1.28.814,1.28,2.156v7.8c0,1.426.071,1.8-1.391,2.039-.266.047-.6.158-.6.5s.221.422.537.422c1.058,0,2.122-.089,3.182-.089,1.15,0,2.258.089,3.407.089.289,0,.534-.089.534-.422,0-.395-.421-.457-.708-.5-1.4-.218-1.306-.743-1.306-2.039Z" transform="translate(3.335 0.5)" fill="#003882" fill-rule="evenodd"/>
    <path id="Path_332" data-name="Path 332" d="M927.168,306.681c4.144,0,7.792-2.947,7.792-7.209,0-4.479-3.979-7.165-8.186-7.165a7.55,7.55,0,0,0-5.468,2.155,7.1,7.1,0,0,0-2.238,5.1,6.87,6.87,0,0,0,2.528,5.341,9.722,9.722,0,0,0,5.574,1.78m.267-.793a4.24,4.24,0,0,1-3.517-2.615,9.626,9.626,0,0,1-1-4.373c0-2.241.889-5.822,3.719-5.822,3.273,0,4.514,4.349,4.514,6.964,0,2.241-.865,5.846-3.719,5.846" transform="translate(3.53 0.492)" fill="#003882" fill-rule="evenodd"/>
    <path id="Path_333" data-name="Path 333" d="M948.249,301.154l-6.334-7.777c-.553-.681-.486-.725-1.375-.725h-3.894c-.307,0-.753,0-.753.394,0,.483.511.441.865.461,1.109.069,1.018,1.057,1.018,1.915v6.835a9.192,9.192,0,0,1-.2,2.589.874.874,0,0,1-.929.658c-.351.024-.9-.02-.9.462,0,.353.284.464.6.464.687,0,1.4-.09,2.1-.09s1.378.09,2.084.09c.31,0,.662-.09.662-.464,0-.483-.619-.439-.925-.462-.6-.042-1.065-.174-1.284-.834a9.392,9.392,0,0,1-.158-2.128V295.29l8.746,10.831c.3.4.6.859,1.147.859.753,0,.642-.4.642-1.014V295.555c0-.86-.131-1.916.905-2.048.381-.04,1.133.111,1.133-.415,0-.374-.289-.44-.619-.44-.645,0-1.309.044-1.954.044s-1.3-.044-1.965-.044c-.336,0-.823,0-.823.461,0,.483.469.354.84.394a1.354,1.354,0,0,1,1.2.749,4.48,4.48,0,0,1,.181,1.56Z" transform="translate(3.912 0.5)" fill="#003882" fill-rule="evenodd"/>
    <path id="Path_334" data-name="Path 334" d="M972.269,303.338c.016-.329.04-.833-.448-.833-.283,0-.438.219-.551.458a6.318,6.318,0,0,1-1.461,2.023,3.716,3.716,0,0,1-2.321.832,4.5,4.5,0,0,1-3.766-2.194,8.068,8.068,0,0,1-1.109-4.219,7.488,7.488,0,0,1,1.219-4.264,4.615,4.615,0,0,1,3.656-1.976c2.988,0,3.05,2.616,4.07,2.616a.373.373,0,0,0,.42-.374,3.468,3.468,0,0,0-.087-.638l-.18-1.12c-.112-.613-.112-.7-.708-.88a13.238,13.238,0,0,0-3.318-.46,10.961,10.961,0,0,0-6.221,1.845,6.825,6.825,0,0,0-2.854,5.452,6.984,6.984,0,0,0,2.809,5.447,10.052,10.052,0,0,0,5.82,1.628,8.4,8.4,0,0,0,4.252-1.011c.681-.4.66-.682.708-1.408Z" transform="translate(4.435 0.492)" fill="#003882" fill-rule="evenodd"/>
    <path id="Path_335" data-name="Path 335" d="M978.785,295.663c0-1.473-.111-1.912,1.393-2.156.268-.041.622-.089.622-.438s-.247-.417-.551-.417c-1.041,0-2.1.085-3.168.085-1.152,0-2.258-.085-3.409-.085-.309,0-.533.065-.533.417,0,.373.446.4.709.438,1.422.244,1.287.814,1.287,2.156v7.8c0,1.426.063,1.8-1.4,2.039-.263.047-.6.158-.6.5s.224.422.533.422c1.062,0,2.122-.089,3.186-.089,1.154,0,2.259.089,3.409.089.286,0,.533-.089.533-.422,0-.395-.422-.457-.711-.5-1.392-.218-1.3-.745-1.3-2.039Z" transform="translate(4.768 0.5)" fill="#003882" fill-rule="evenodd"/>
    <path id="Path_336" data-name="Path 336" d="M983.326,303.382c0,1.429.11,1.891-1.329,2.131-.268.047-.6.111-.6.463,0,.326.224.461.531.461.443,0,.842-.088,1.287-.088,2.079,0,4.157.088,6.285.088a6.605,6.605,0,0,0,3.651-.748,3.556,3.556,0,0,0,1.749-3.165c0-2.77-2.19-3.714-4.6-3.825,1.812-.13,4.027-.722,4.027-2.967a3.245,3.245,0,0,0-2.37-2.964,13.163,13.163,0,0,0-3.628-.462,24.6,24.6,0,0,0-6.265.574c-.262.089-.614.154-.614.505,0,.527.614.417.968.417,1,0,.91.66.91,1.536Zm3.651-8.854c0-.307-.087-.857.111-1.052a1.766,1.766,0,0,1,1.152-.332,2.358,2.358,0,0,1,2.391,2.485c0,1.865-1.129,2.656-2.836,2.676-.816,0-.816.048-.816-.9Zm0,5.58c0-.591.025-.9.6-.9a3.9,3.9,0,0,1,2.06.4,3.389,3.389,0,0,1,1.574,3.01c0,1.625-.755,3.033-2.549,3.033-1.461,0-1.682-1.1-1.682-2.373Z" transform="translate(4.957 0.492)" fill="#003882" fill-rule="evenodd"/>
    <path id="Path_337" data-name="Path 337" d="M999.008,299.447l-1.219,3.036c-.243.613-.637,1.756-.929,2.284-.33.593-.55.637-1.194.745-.291.047-.621.09-.621.462,0,.4.351.464.684.464.689,0,1.4-.045,2.082-.045s1.391.045,2.081.045c.312,0,.729-.065.729-.464,0-.987-2.187-.044-2.187-1.6a6.793,6.793,0,0,1,.487-2c.26-.7.2-.66.971-.66h2.9c.8,0,.73-.044,1.018.724l.709,1.781a2.445,2.445,0,0,1,.221.832c0,.795-1.548.176-1.548.925,0,.419.4.464.708.464,1.06,0,2.121-.09,3.231-.09.882,0,1.77.09,2.7.09.314,0,.755-.026.755-.464,0-.5-.425-.439-.8-.462a1,1,0,0,1-.91-.525,6.964,6.964,0,0,1-.551-1.119l-4.56-10.679c-.267-.616-.244-.884-.974-.884-.883,0-.907.4-1.219,1.121Zm2.368-3.227,1.461,3.758a2.987,2.987,0,0,1,.2.547c0,.264-.572.177-.731.177h-1.923c-.2,0-.664.087-.664-.219a3.167,3.167,0,0,1,.2-.637Z" transform="translate(5.27 0.492)" fill="#003882" fill-rule="evenodd"/>
    <path id="Path_338" data-name="Path 338" d="M1018.874,306.681c4.134,0,7.784-2.947,7.784-7.209,0-4.479-3.981-7.165-8.185-7.165a7.547,7.547,0,0,0-5.469,2.155,7.1,7.1,0,0,0-2.238,5.1,6.878,6.878,0,0,0,2.523,5.339,9.755,9.755,0,0,0,5.585,1.78m.26-.793a4.24,4.24,0,0,1-3.518-2.615,9.677,9.677,0,0,1-1-4.372c0-2.242.886-5.823,3.717-5.823,3.28,0,4.516,4.347,4.516,6.964,0,2.243-.866,5.846-3.719,5.846" transform="translate(5.63 0.492)" fill="#003882" fill-rule="evenodd"/>
    <path id="Path_339" data-name="Path 339" d="M784.048,299.3a3.674,3.674,0,1,1,3.665,3.676,3.675,3.675,0,0,1-3.665-3.676" transform="translate(0.437 0.568)" fill="#d4924b" fill-rule="evenodd"/>
    <path id="Path_340" data-name="Path 340" d="M788.821,317.21h18.318v-6.044H788.821Zm11.611-2.687h-5.4V312.36h5.4Z" transform="translate(0.546 0.924)" fill="#d70b1a" fill-rule="evenodd"/>
    <rect id="Rectangle_141" data-name="Rectangle 141" width="5.893" height="5.086" transform="translate(775.431 312.568)" fill="#d70b1a"/>
    <path id="Path_341" data-name="Path 341" d="M796.415,301.092h-18.34l-13.109,9.888h2.039l11.1-8.369,11.008,8.369h20.313Z" transform="translate(0 0.693)" fill="#d70b1a"/>
    <path id="Path_342" data-name="Path 342" d="M772.4,304.775l5.2-3.92.008-.006.3-.227h4.662V283.2c.008-3.452,1.827-4.217,3.94-4.214,2.018,0,3.835.773,3.83,4.229v6.305h10.153v-7.151c.016-8.926-7.729-11.532-14.065-11.541-6.241-.011-14.015,2.569-14.028,11.492Z" transform="translate(0.17 0)" fill="#003882"/>
    <path id="Path_343" data-name="Path 343" d="M787.455,289.579a3.673,3.673,0,1,1,3.667,3.682,3.677,3.677,0,0,1-3.667-3.682" transform="translate(0.515 0.345)" fill="#fff" fill-rule="evenodd"/>
    <path id="Path_344" data-name="Path 344" d="M787.455,289.579a3.673,3.673,0,1,1,3.667,3.682,3.677,3.677,0,0,1-3.667-3.682" transform="translate(0.515 0.345)" fill="#d4924b"/>
    <path id="Path_345" data-name="Path 345" d="M796.054,283.049a3.674,3.674,0,1,1,3.665,3.679,3.668,3.668,0,0,1-3.665-3.679" transform="translate(0.712 0.196)" fill="#fff" fill-rule="evenodd"/>
    <path id="Path_346" data-name="Path 346" d="M796.054,283.049a3.674,3.674,0,1,1,3.665,3.679,3.668,3.668,0,0,1-3.665-3.679" transform="translate(0.712 0.196)" fill="#d4924b"/>
    <path id="Path_347" data-name="Path 347" d="M790.341,323v5.4c-.007,3.455-1.823,4.227-3.843,4.225-2.11-.005-3.931-.781-3.927-4.235V318H772.4v11.239c-.016,8.927,7.747,11.53,13.988,11.537,6.336.011,14.089-2.563,14.1-11.487V323Z" transform="translate(0.17 1.08)" fill="#003882" fill-rule="evenodd"/>
  </g>
</svg>
