<svg xmlns="http://www.w3.org/2000/svg" width="16.355" height="12.458" viewBox="0 0 16.355 12.458">
  <path id="Path_14" data-name="Path 14" d="M14.918,61H1.437A1.44,1.44,0,0,0,0,62.437v9.583a1.44,1.44,0,0,0,1.437,1.437h13.48a1.44,1.44,0,0,0,1.437-1.437V62.437A1.44,1.44,0,0,0,14.918,61Zm-.2.958L8.208,68.47,1.641,61.958ZM.958,71.822V62.631l4.615,4.576Zm.678.678,4.618-4.618,1.618,1.6a.479.479,0,0,0,.676,0l1.578-1.578L14.719,72.5ZM15.4,71.822,10.8,67.229,15.4,62.636Z" transform="translate(0 -61)" fill="#fff"/>
</svg>
