<?xml version="1.0" encoding="utf-8"?>
<!-- Generator: Adobe Illustrator 23.0.3, SVG Export Plug-In . SVG Version: 6.00 Build 0)  -->
<svg version="1.1" id="Capa_1" xmlns="http://www.w3.org/2000/svg" xmlns:xlink="http://www.w3.org/1999/xlink" x="0px" y="0px"
	 viewBox="0 0 91.1 91.1" style="enable-background:new 0 0 91.1 91.1;" xml:space="preserve">
<style type="text/css">
	.st0{fill:#1176B0;stroke:#FFFFFF;}
</style>
<g id="paper" transform="translate(0.5 0.5)">
	<path id="Path_208" class="st0" d="M88.6,0H57c-2.4,0-4.6,1.1-6,3c-1.4-1.9-3.6-3-6-3H13.5C12.7,0,12,0.7,12,1.5V27h3V3h30
		c2.5,0,4.5,2,4.5,4.5v48c-0.2-0.2-0.5-0.3-0.8-0.5l-1.5,2.6c0.9,0.5,1.6,1.4,2,2.4H48v3h40.5c0.8,0,1.5-0.7,1.5-1.5v-60
		C90.1,0.7,89.4,0,88.6,0z M57,3h30v51H57c-1.6,0-3.2,0.5-4.5,1.5v-48C52.5,5,54.5,3,57,3z M87.1,60H52.8c0.6-1.8,2.3-3,4.2-3h30
		L87.1,60z"/>
	<path id="Path_209" class="st0" d="M85.6,75h-1.5v-4.5c0-0.8-0.7-1.5-1.5-1.5H69v3h12v3H54c-0.3,0-0.6,0.1-0.8,0.3l-4.5,3
		c-0.7,0.5-0.9,1.4-0.4,2.1c0.1,0.2,0.3,0.3,0.4,0.4l4.5,3C53.4,84,53.7,84,54,84h31.5c2.5,0,4.5-2,4.5-4.5S88,75,85.6,75L85.6,75z
		 M52.2,79.5l2.3-1.5H81v3H54.5L52.2,79.5z M85.6,81h-1.5v-3h1.5c0.8,0,1.5,0.7,1.5,1.5S86.4,81,85.6,81z"/>
	<path id="Path_210" class="st0" d="M6,90.1h33c3.3,0,6-2.7,6-6V36c0-3.3-2.7-6-6-6H6c-3.3,0-6,2.7-6,6v48C0,87.4,2.7,90.1,6,90.1
		C6,90.1,6,90.1,6,90.1z M3,36c0-1.7,1.3-3,3-3h33c1.7,0,3,1.3,3,3v48c0,1.7-1.3,3-3,3H6c-1.7,0-3-1.3-3-3V36z"/>
	<path id="Path_211" class="st0" d="M7.5,48h30c0.8,0,1.5-0.7,1.5-1.5v-9c0-0.8-0.7-1.5-1.5-1.5h-30C6.7,36,6,36.7,6,37.5v9
		C6,47.4,6.7,48,7.5,48C7.5,48,7.5,48,7.5,48z M9,39h27v6H9V39z"/>
	<path id="Path_212" class="st0" d="M7.5,60h6c0.8,0,1.5-0.7,1.5-1.5v-6c0-0.8-0.7-1.5-1.5-1.5h-6C6.7,51,6,51.7,6,52.5v6
		C6,59.4,6.7,60,7.5,60z M9,54h3v3H9V54z"/>
	<path id="Path_213" class="st0" d="M25.5,51h-6c-0.8,0-1.5,0.7-1.5,1.5v6c0,0.8,0.7,1.5,1.5,1.5h6c0.8,0,1.5-0.7,1.5-1.5v-6
		C27,51.7,26.3,51,25.5,51z M24,57h-3v-3h3V57z"/>
	<path id="Path_214" class="st0" d="M37.5,51h-6c-0.8,0-1.5,0.7-1.5,1.5v6c0,0.8,0.7,1.5,1.5,1.5h6c0.8,0,1.5-0.7,1.5-1.5v-6
		C39,51.7,38.3,51,37.5,51z M36,57h-3v-3h3V57z"/>
	<path id="Path_215" class="st0" d="M7.5,72h6c0.8,0,1.5-0.7,1.5-1.5v-6c0-0.8-0.7-1.5-1.5-1.5h-6C6.7,63,6,63.7,6,64.5v6
		C6,71.4,6.7,72,7.5,72z M9,66h3v3H9V66z"/>
	<path id="Path_216" class="st0" d="M25.5,63h-6c-0.8,0-1.5,0.7-1.5,1.5v6c0,0.8,0.7,1.5,1.5,1.5h6c0.8,0,1.5-0.7,1.5-1.5v-6
		C27,63.7,26.3,63,25.5,63z M24,69h-3v-3h3V69z"/>
	<path id="Path_217" class="st0" d="M37.5,63h-6c-0.8,0-1.5,0.7-1.5,1.5v18c0,0.8,0.7,1.5,1.5,1.5h6c0.8,0,1.5-0.7,1.5-1.5v-18
		C39,63.7,38.3,63,37.5,63z M36,81h-3V66h3V81z"/>
	<path id="Path_218" class="st0" d="M7.5,84.1h6c0.8,0,1.5-0.7,1.5-1.5v-6c0-0.8-0.7-1.5-1.5-1.5h-6c-0.8,0-1.5,0.7-1.5,1.5v6
		C6,83.4,6.7,84.1,7.5,84.1z M9,78.1h3v3H9V78.1z"/>
	<path id="Path_219" class="st0" d="M25.5,75h-6c-0.8,0-1.5,0.7-1.5,1.5v6c0,0.8,0.7,1.5,1.5,1.5h6c0.8,0,1.5-0.7,1.5-1.5v-6
		C27,75.7,26.3,75,25.5,75z M24,81h-3v-3h3V81z"/>
	<path id="Path_220" class="st0" d="M57,31.5h16.5v3H57V31.5z"/>
	<path id="Path_221" class="st0" d="M76.5,31.5h6v3h-6V31.5z"/>
	<path id="Path_222" class="st0" d="M57,9h25.5v3H57V9z"/>
	<path id="Path_223" class="st0" d="M57,16.5h16.5v3H57V16.5z"/>
	<path id="Path_224" class="st0" d="M76.5,16.5h6v3h-6V16.5z"/>
	<path id="Path_225" class="st0" d="M57,24h16.5v3H57V24z"/>
	<path id="Path_226" class="st0" d="M76.5,24h6v3h-6V24z"/>
	<path id="Path_227" class="st0" d="M57,39h16.5v3H57V39z"/>
	<path id="Path_228" class="st0" d="M76.5,39h6v3h-6V39z"/>
	<path id="Path_229" class="st0" d="M57,46.5h16.5v3H57V46.5z"/>
	<path id="Path_230" class="st0" d="M76.5,46.5h6v3h-6V46.5z"/>
	<path id="Path_231" class="st0" d="M19.5,9H45v3H19.5V9z"/>
	<path id="Path_232" class="st0" d="M19.5,16.5H36v3H19.5V16.5z"/>
	<path id="Path_233" class="st0" d="M39,16.5h6v3h-6V16.5z"/>
	<path id="Path_234" class="st0" d="M19.5,24H36v3H19.5V24z"/>
	<path id="Path_235" class="st0" d="M39,24h6v3h-6V24z"/>
</g>
</svg>
