<?xml version="1.0" encoding="utf-8"?>
<!-- Generator: Adobe Illustrator 23.0.3, SVG Export Plug-In . SVG Version: 6.00 Build 0)  -->
<svg version="1.1" id="Capa_1" xmlns="http://www.w3.org/2000/svg" xmlns:xlink="http://www.w3.org/1999/xlink" x="0px" y="0px"
	 viewBox="0 0 108.4 85.2" style="enable-background:new 0 0 108.4 85.2;" xml:space="preserve">
<style type="text/css">
	.st0{fill:#FFFFFF;}
	.st1{fill:#1176B0;}
	.st2{fill:#575757;}
</style>
<g id="Group_345" transform="translate(-949.999 -1058.983)">
	<path id="Rectangle_9" class="st0" d="M958.7,1080.9l73.2-19.6c4.8-1.3,9.7,1.6,11,6.4l11.7,43.5c1.3,4.8-1.6,9.7-6.4,11
		l-73.2,19.6c-4.8,1.3-9.7-1.6-11-6.4l-11.7-43.5C951,1087.2,953.9,1082.2,958.7,1080.9z"/>
	<path id="Path_14" class="st1" d="M1036.8,1060.3l-81.1,21.7c-2.6,0.7-4.2,3.4-3.5,6.1l13.7,51.2c0.7,2.6,3.4,4.2,6.1,3.5
		l81.1-21.7c2.6-0.7,4.2-3.4,3.5-6.1l-13.7-51.2C1042.2,1061.1,1039.5,1059.6,1036.8,1060.3z M956.4,1084.5l81.1-21.7
		c1.3-0.3,2.6,0.4,2.9,1.7l1.4,5.1l-85.7,23l-1.4-5.1C954.4,1086.1,955.2,1084.8,956.4,1084.5z M1044.1,1078.2l-85.7,23l-1.7-6.2
		l85.7-23L1044.1,1078.2z M1052.5,1118.6l-81.1,21.7c-1.3,0.3-2.6-0.4-2.9-1.7l-9.4-35l85.7-23l9.4,35
		C1054.5,1116.9,1053.7,1118.2,1052.5,1118.6z"/>
	<path id="Path_15" class="st2" d="M1035.7,1099.1c-2.4-1.4-5.4-0.6-6.8,1.8c0,0,0,0,0,0l-1.6,2.8l-2.8-1.6
		c-2.4-1.4-5.4-0.6-6.8,1.8c0,0,0,0,0,0l-3.4,5.9c-1.4,2.4-0.6,5.4,1.8,6.8l5.9,3.4c2.4,1.4,5.4,0.6,6.8-1.8c0,0,0,0,0,0l1.6-2.8
		l2.8,1.6c2.4,1.4,5.4,0.6,6.8-1.8c0,0,0,0,0,0l3.4-5.9c1.4-2.4,0.6-5.4-1.8-6.8L1035.7,1099.1z M1026.7,1116.9
		c-0.7,1.1-2.1,1.5-3.3,0.9l-6-3.4c-1.1-0.7-1.5-2.1-0.9-3.3l3.4-6c0.7-1.1,2.1-1.5,3.3-0.9l6,3.4c1.1,0.7,1.5,2.1,0.9,3.2
		c0,0,0,0,0,0l-1.2,2.1L1026.7,1116.9z M1041.2,1108l-3.4,6c-0.7,1.1-2.1,1.5-3.3,0.9l-2.8-1.6l0.6-1c1.4-2.4,0.6-5.4-1.8-6.8
		c0,0,0,0,0,0l-1-0.6l1.6-2.8c0.7-1.1,2.1-1.5,3.3-0.9l6,3.4C1041.5,1105.4,1041.9,1106.8,1041.2,1108L1041.2,1108z"/>
	<path id="Path_16" class="st2" d="M1005.2,1123.4l-33.1,8.9c-0.7,0.2-1.1,0.9-1,1.5c0.2,0.7,0.9,1.1,1.5,1c0,0,0,0,0.1,0l33.1-8.9
		c0.7-0.2,1.1-0.9,1-1.5C1006.6,1123.7,1005.9,1123.2,1005.2,1123.4C1005.2,1123.4,1005.2,1123.4,1005.2,1123.4z"/>
	<path id="Path_17" class="st2" d="M1003.5,1117.4l-33.1,8.9c-0.7,0.2-1.1,0.9-0.9,1.6c0.2,0.7,0.9,1,1.5,0.9l33.1-8.9
		c0.7-0.2,1.1-0.9,1-1.5C1005,1117.6,1004.3,1117.2,1003.5,1117.4C1003.6,1117.3,1003.6,1117.3,1003.5,1117.4z"/>
	<path id="Path_18" class="st2" d="M1001.9,1111.3l-33.1,8.9c-0.7,0.2-1.1,0.9-0.9,1.6c0.2,0.7,0.9,1,1.5,0.9l33.1-8.9
		c0.7-0.2,1.1-0.9,1-1.5C1003.4,1111.5,1002.7,1111.1,1001.9,1111.3C1002,1111.3,1001.9,1111.3,1001.9,1111.3z"/>
	<path id="Rectangle_10" class="st0" d="M973.6,1081.1h75.8c5,0,9,4,9,9v45c0,5-4,9-9,9h-75.8c-5,0-9-4-9-9v-45
		C964.6,1085.1,968.6,1081.1,973.6,1081.1z"/>
	<path id="credit-card_1_" class="st1" d="M1055.3,1127.8v-39.3c0-2.2-2.1-4-4.7-4h-78.2c-2.6,0-4.7,1.8-4.7,4v48.7
		c0,2.2,2.1,4,4.7,4h78.2c2.6,0,4.7-1.8,4.7-4c0.1-0.9,0.9-1.5,1.8-1.3c0.7,0.1,1.2,0.6,1.3,1.3c0,3.7-3.5,6.7-7.8,6.7h-78.2
		c-4.3,0-7.8-3-7.8-6.7v-48.7c0-3.7,3.5-6.7,7.8-6.7h78.2c4.3,0,7.8,3,7.8,6.7v39.3c-0.1,0.9-0.9,1.5-1.8,1.3
		C1055.9,1129,1055.4,1128.5,1055.3,1127.8L1055.3,1127.8z M982.6,1095.2h8.2c0.7,0.1,1.4-0.4,1.5-1.1c0.1-0.7-0.4-1.4-1.1-1.5
		c-0.1,0-0.3,0-0.4,0h-8.2c-3.4,0-6.3,2.4-6.3,5.4v8.7c0,3,2.8,5.4,6.3,5.4h10.2c3.4,0,6.3-2.4,6.3-5.4v-8.7
		c-0.1-0.9-0.9-1.5-1.8-1.3c-0.7,0.1-1.2,0.6-1.3,1.3v8.7c-0.1,1.6-1.5,2.8-3.1,2.7h-10.2c-1.6,0.1-3-1.1-3.1-2.7v-8.7
		C979.6,1096.3,981,1095.1,982.6,1095.2z M1028.6,1108.9c-0.2-1.6,0.9-3.1,2.5-3.4s3.1,0.9,3.4,2.5s-0.9,3.1-2.5,3.4
		c-0.1,0-0.3,0-0.4,0C1030,1111.5,1028.7,1110.4,1028.6,1108.9L1028.6,1108.9z M1038.7,1104.6c0.5-0.4,0.6-1.2,0.2-1.7
		c-0.1-0.1-0.1-0.1-0.2-0.2c-4.2-3.4-10.2-3.4-14.4,0c-0.5,0.4-0.6,1.2-0.2,1.7c0.1,0.1,0.1,0.1,0.2,0.2c0.6,0.5,1.6,0.5,2.2,0
		c2.9-2.4,7.1-2.4,9.9,0C1037.2,1105.1,1038.1,1105.1,1038.7,1104.6L1038.7,1104.6z M1044.5,1099.6c0.5-0.4,0.6-1.2,0.2-1.7
		c-0.1-0.1-0.1-0.1-0.2-0.2c-7.6-6.2-18.4-6.2-26,0c-0.5,0.4-0.6,1.2-0.2,1.7c0.1,0.1,0.1,0.1,0.2,0.2c0.6,0.5,1.6,0.5,2.2,0
		c6.3-5.1,15.3-5.1,21.6,0C1043,1100.1,1043.9,1100.1,1044.5,1099.6L1044.5,1099.6z M1012.1,1121.6c-0.1-0.8-0.8-1.4-1.6-1.3h-32.6
		c-0.7-0.1-1.4,0.4-1.5,1.1c-0.1,0.7,0.4,1.4,1.1,1.5c0.1,0,0.3,0,0.4,0h32.6C1011.3,1123,1012,1122.4,1012.1,1121.6z
		 M1022.5,1120.3h-3.9c-0.7-0.1-1.4,0.4-1.5,1.1c-0.1,0.7,0.4,1.4,1.1,1.5c0.1,0,0.3,0,0.4,0h3.9c0.7,0.1,1.4-0.4,1.5-1.1
		c0.1-0.7-0.4-1.4-1.1-1.5C1022.7,1120.2,1022.6,1120.2,1022.5,1120.3z M1030.1,1122.9h3.7c0.7,0.1,1.4-0.4,1.5-1.1
		c0.1-0.7-0.4-1.4-1.1-1.5c-0.1,0-0.3,0-0.4,0h-3.7c-0.7-0.1-1.4,0.4-1.5,1.1c-0.1,0.7,0.4,1.4,1.1,1.5
		C1029.8,1123,1030,1123,1030.1,1122.9z M977.9,1129.5c-0.7-0.1-1.4,0.4-1.5,1.1c-0.1,0.7,0.4,1.4,1.1,1.5c0.1,0,0.3,0,0.4,0h13.7
		c0.7,0.1,1.4-0.4,1.5-1.1s-0.4-1.4-1.1-1.5c-0.1,0-0.3,0-0.4,0H977.9z M998,1129.5c-0.7-0.1-1.4,0.4-1.5,1.1
		c-0.1,0.7,0.4,1.4,1.1,1.5c0.1,0,0.3,0,0.4,0h1c0.7,0.1,1.4-0.4,1.5-1.1s-0.4-1.4-1.1-1.5c-0.1,0-0.3,0-0.4,0H998z"/>
</g>
</svg>
