<svg xmlns="http://www.w3.org/2000/svg" width="108.432" height="85.183" viewBox="0 0 108.432 85.183">
  <g id="Group_345" data-name="Group 345" transform="translate(-949.999 -1058.983)">
    <rect id="Rectangle_9" data-name="Rectangle 9" width="93.811" height="63.029" rx="9" transform="translate(949.999 1083.28) rotate(-15.009)" fill="#fff"/>
    <path id="Path_14" data-name="Path 14" d="M88.864,0H4.947A4.953,4.953,0,0,0,0,4.947v53.04a4.953,4.953,0,0,0,4.947,4.947H88.864a4.953,4.953,0,0,0,4.947-4.947V4.947A4.953,4.953,0,0,0,88.864,0ZM4.947,2.565H88.864a2.385,2.385,0,0,1,2.382,2.382v5.316H2.565V4.947A2.385,2.385,0,0,1,4.947,2.565Zm86.3,16.653H2.565v-6.39h88.68ZM88.864,60.369H4.947a2.385,2.385,0,0,1-2.382-2.382V21.782h88.68V57.987A2.385,2.385,0,0,1,88.864,60.369Z" transform="translate(950.999 1083.28) rotate(-15.009)" fill="#174896"/>
    <path id="Path_15" data-name="Path 15" d="M24.811,1.451a4.946,4.946,0,0,0-7,0L15.56,3.709,13.3,1.451a4.947,4.947,0,0,0-7,0L1.448,6.31a4.953,4.953,0,0,0,0,7L6.3,18.165a4.947,4.947,0,0,0,7,0L15.56,15.9l2.257,2.258a4.946,4.946,0,0,0,7,0L29.672,13.3a4.953,4.953,0,0,0,0-7Zm-13.324,14.9a2.441,2.441,0,0,1-3.371,0L3.257,11.492a2.386,2.386,0,0,1,0-3.371L8.115,3.263a2.44,2.44,0,0,1,3.371,0l4.858,4.859a2.38,2.38,0,0,1,0,3.371L14.65,13.187Zm16.369-4.859L23,16.351a2.44,2.44,0,0,1-3.371,0l-2.255-2.26.787-.787a4.946,4.946,0,0,0,0-7l-.787-.788,2.258-2.257a2.438,2.438,0,0,1,3.371,0l4.858,4.858a2.386,2.386,0,0,1,0,3.371Z" transform="translate(1011.334 1104.102) rotate(-15.009)" fill="#575757"/>
    <path id="Path_16" data-name="Path 16" d="M35.587,0H1.319a1.283,1.283,0,1,0,0,2.565H35.587a1.283,1.283,0,1,0,0-2.565Z" transform="translate(970.781 1132.627) rotate(-15.009)" fill="#575757"/>
    <path id="Path_17" data-name="Path 17" d="M35.515,0H1.247a1.283,1.283,0,0,0,0,2.565H35.515a1.283,1.283,0,1,0,0-2.565Z" transform="translate(969.226 1126.55) rotate(-15.009)" fill="#575757"/>
    <path id="Path_18" data-name="Path 18" d="M35.515,0H1.247a1.283,1.283,0,0,0,0,2.565H35.515a1.283,1.283,0,1,0,0-2.565Z" transform="translate(967.602 1120.492) rotate(-15.009)" fill="#575757"/>
    <rect id="Rectangle_10" data-name="Rectangle 10" width="93.811" height="63.029" rx="9" transform="translate(964.62 1081.059)" fill="#fff"/>
    <path id="credit-card_1_" data-name="credit-card (1)" d="M90.684,101.02V61.72c0-2.223-2.1-4.031-4.691-4.031H7.818c-2.586,0-4.691,1.808-4.691,4.031v48.707c0,2.223,2.1,4.031,4.691,4.031H85.993c2.586,0,4.691-1.808,4.691-4.031a1.582,1.582,0,0,1,3.127,0c0,3.7-3.507,6.718-7.818,6.718H7.818c-4.311,0-7.818-3.015-7.818-6.72V61.718C0,58.014,3.507,55,7.818,55H85.993c4.311,0,7.818,3.014,7.818,6.718v39.3a1.581,1.581,0,0,1-3.127,0ZM17.98,68.436h8.208a1.359,1.359,0,1,0,0-2.687H17.98c-3.449,0-6.254,2.411-6.254,5.375v8.734c0,2.964,2.806,5.375,6.254,5.375H28.143c3.449,0,6.254-2.411,6.254-5.375V71.124a1.582,1.582,0,0,0-3.127,0v8.734a2.936,2.936,0,0,1-3.127,2.687H17.98a2.936,2.936,0,0,1-3.127-2.687V71.124A2.936,2.936,0,0,1,17.98,68.436Zm46,13.654a2.965,2.965,0,1,1,2.931,2.519,2.747,2.747,0,0,1-2.935-2.519ZM74.1,77.815a1.214,1.214,0,0,0,0-1.9,11.366,11.366,0,0,0-14.373,0,1.215,1.215,0,0,0,0,1.9,1.75,1.75,0,0,0,2.211,0,7.869,7.869,0,0,1,9.95,0,1.75,1.75,0,0,0,2.211,0Zm5.8-4.988a1.215,1.215,0,0,0,0-1.9,20.546,20.546,0,0,0-25.981,0,1.215,1.215,0,0,0,0,1.9,1.75,1.75,0,0,0,2.211,0,17.048,17.048,0,0,1,21.558,0,1.75,1.75,0,0,0,2.215,0ZM47.492,94.805a1.466,1.466,0,0,0-1.564-1.344H13.29a1.359,1.359,0,1,0,0,2.687H45.928a1.466,1.466,0,0,0,1.564-1.343ZM57.85,93.462H53.941a1.359,1.359,0,1,0,0,2.687H57.85a1.359,1.359,0,1,0,0-2.687Zm7.622,2.687h3.713a1.359,1.359,0,1,0,0-2.687H65.472a1.359,1.359,0,1,0,0,2.687ZM13.29,102.7a1.359,1.359,0,1,0,0,2.687H26.971a1.359,1.359,0,1,0,0-2.687Zm20.13,0a1.359,1.359,0,1,0,0,2.687h.98a1.359,1.359,0,1,0,0-2.687Z" transform="translate(964.62 1026.792)" fill="#174896"/>
  </g>
</svg>
