<?xml version="1.0" encoding="utf-8"?>
<!-- Generator: Adobe Illustrator 23.0.3, SVG Export Plug-In . SVG Version: 6.00 Build 0)  -->
<svg version="1.1" id="Capa_1" xmlns="http://www.w3.org/2000/svg" xmlns:xlink="http://www.w3.org/1999/xlink" x="0px" y="0px"
	 viewBox="0 0 98.3 111.5" style="enable-background:new 0 0 98.3 111.5;" xml:space="preserve">
<style type="text/css">
	.st0{fill:#1176B0;}
</style>
<g id="Group_344" transform="translate(-577 -1046.043)">
	<path id="Path_7" class="st0" d="M627.4,1106.9c-0.2,0-0.4-0.1-0.6,0c-2.1-0.2-3.7-2-3.7-4.1c0-1-0.9-1.8-1.9-1.8
		c-1,0-1.8,0.8-1.8,1.8c0,3.5,2.4,6.6,5.8,7.5v1.8c0,1,0.8,1.8,1.8,1.9c1,0,1.8-0.8,1.9-1.8c0,0,0-0.1,0-0.1v-1.7
		c4.2-0.9,6.9-5,6-9.2c-0.8-3.6-3.9-6.2-7.6-6.2c-2.3,0-4.2-1.9-4.2-4.2c0-2.3,1.9-4.2,4.2-4.2c2.3,0,4.2,1.9,4.2,4.2c0,0,0,0,0,0
		c0,1,0.9,1.8,1.9,1.8c1,0,1.8-0.8,1.8-1.8c0-3.7-2.6-6.9-6.2-7.6v-1.7c0-1-0.9-1.8-1.9-1.8c-1,0-1.8,0.8-1.8,1.8v1.8
		c-4.2,1.1-6.6,5.4-5.5,9.6c0.9,3.4,4,5.7,7.5,5.8c2.3,0,4.1,1.9,4.1,4.2C631.4,1105,629.6,1106.8,627.4,1106.9L627.4,1106.9z"/>
	<path id="Path_8" class="st0" d="M600.8,1096.9c0,14.7,11.9,26.5,26.5,26.5c14.7,0,26.5-11.9,26.5-26.5s-11.9-26.5-26.5-26.5l0,0
		C612.6,1070.4,600.8,1082.2,600.8,1096.9z M627.3,1074c12.6,0,22.9,10.2,22.9,22.9c0,12.6-10.2,22.9-22.9,22.9
		c-12.6,0-22.9-10.2-22.9-22.9C604.4,1084.3,614.7,1074,627.3,1074L627.3,1074z"/>
	<path id="Path_9" class="st0" d="M662.8,1127.9l-14.3,6.8c-2-3.7-5.8-6-10-6.1l-13.2-0.4c-2.1-0.1-4.2-0.6-6-1.6l-1.3-0.7
		c-6.9-3.6-15.1-3.6-22,0l0.1-3.1c0-1-0.8-1.9-1.8-1.9c0,0,0,0,0,0l-14.5-0.4c-1,0-1.9,0.8-1.9,1.8c0,0,0,0,0,0l-0.9,31.8
		c0,1,0.8,1.9,1.8,1.9c0,0,0,0,0,0l14.5,0.4h0c1,0,1.8-0.8,1.8-1.8l0-1.5l3.8-2c1.5-0.8,3.2-1,4.8-0.5l22.5,6.3c0,0,0.1,0,0.1,0
		c1.6,0.3,3.3,0.5,4.9,0.5c3.5,0,7-0.8,10.2-2.2c0.1,0,0.2-0.1,0.2-0.1l32.6-21.1c0.8-0.5,1.1-1.6,0.6-2.4
		C672.6,1127.3,667.2,1125.7,662.8,1127.9L662.8,1127.9z M580.7,1152.5l0.8-28.2l10.8,0.3l-0.8,28.2L580.7,1152.5z M639.9,1152.1
		c-4,1.8-8.4,2.3-12.7,1.4l-22.4-6.3c-2.5-0.7-5.2-0.4-7.5,0.8l-1.9,1l0.5-18.7c6.1-4.1,13.9-4.5,20.4-1.1l1.3,0.7
		c2.4,1.2,5,1.9,7.6,2l13.2,0.4c3.7,0.1,6.9,2.8,7.6,6.4l-19.7-0.5c-1,0-1.9,0.7-1.9,1.7c0,1,0.7,1.9,1.7,1.9c0,0,0,0,0.1,0
		l21.8,0.6h0.1c1,0,1.8-0.8,1.8-1.8c0-0.8,0-1.6-0.2-2.4l14.7-6.9l0,0c2.1-1.1,4.6-0.7,6.3,0.9L639.9,1152.1z"/>
	<path id="Path_10" class="st0" d="M629.1,1065.2v-17.4c0-1-0.9-1.8-1.9-1.8c-1,0-1.8,0.8-1.8,1.8v17.4c0,1,0.9,1.8,1.9,1.8
		C628.3,1067,629.1,1066.2,629.1,1065.2z"/>
	<path id="Path_11" class="st0" d="M642.8,1065.2v-8.2c0-1-0.9-1.8-1.9-1.8c-1,0-1.8,0.8-1.8,1.8v8.2c0,1,0.9,1.8,1.9,1.8
		C642,1067,642.8,1066.2,642.8,1065.2L642.8,1065.2z"/>
	<path id="Path_12" class="st0" d="M615.4,1065.2v-8.2c0-1-0.8-1.8-1.8-1.9c-1,0-1.8,0.8-1.9,1.8c0,0,0,0.1,0,0.1v8.2
		c0,1,0.8,1.8,1.8,1.9S615.4,1066.3,615.4,1065.2C615.4,1065.3,615.4,1065.2,615.4,1065.2L615.4,1065.2z"/>
</g>
</svg>
