<svg xmlns="http://www.w3.org/2000/svg" width="98.276" height="111.504" viewBox="0 0 98.276 111.504">
  <g id="Group_344" data-name="Group 344" transform="translate(-577 -1046.043)">
    <path id="Path_7" data-name="Path 7" d="M194,174.257a1.741,1.741,0,0,0-.627-.021,4.16,4.16,0,0,1-3.679-4.125,1.83,1.83,0,0,0-3.659,0,7.827,7.827,0,0,0,5.755,7.537v1.83a1.83,1.83,0,1,0,3.659,0v-1.719a7.813,7.813,0,0,0-1.6-15.46A4.154,4.154,0,1,1,198,158.145a1.83,1.83,0,0,0,3.659,0,7.828,7.828,0,0,0-6.213-7.648V148.83a1.83,1.83,0,0,0-3.659,0v1.777a7.813,7.813,0,0,0,2.058,15.349,4.152,4.152,0,0,1,.152,8.3Zm0,0" transform="translate(433.428 932.62)" fill="#174896"/>
    <path id="Path_8" data-name="Path 8" d="M104.2,133.024a26.532,26.532,0,1,0,26.532-26.532A26.532,26.532,0,0,0,104.2,133.024Zm26.532-22.873a22.873,22.873,0,1,1-22.873,22.873,22.873,22.873,0,0,1,22.873-22.873Zm0,0" transform="translate(496.553 963.864)" fill="#174896"/>
    <path id="Path_9" data-name="Path 9" d="M86.192,333.646l-14.333,6.772a11.674,11.674,0,0,0-9.952-6.141l-13.231-.364a13.974,13.974,0,0,1-6.013-1.553l-1.346-.7a23.748,23.748,0,0,0-22,.023l.084-3.05a1.83,1.83,0,0,0-1.779-1.88l-14.509-.4a1.829,1.829,0,0,0-1.879,1.779L.361,359.975a1.83,1.83,0,0,0,1.779,1.88l14.509.4h.05a1.83,1.83,0,0,0,1.83-1.78l.042-1.523,3.769-2.018a6.466,6.466,0,0,1,4.825-.528l22.508,6.317a1.215,1.215,0,0,0,.119.029,24.09,24.09,0,0,0,4.947.51,24.412,24.412,0,0,0,10.2-2.225,1.7,1.7,0,0,0,.227-.125L97.8,339.8a1.831,1.831,0,0,0,.6-2.437,9.243,9.243,0,0,0-12.208-3.717Zm-82.123,24.6.775-28.181,10.85.3-.775,28.182Zm59.219-.479A20.746,20.746,0,0,1,50.6,359.184l-22.447-6.3a10.117,10.117,0,0,0-7.542.825l-1.926,1.032L19.2,336a20.112,20.112,0,0,1,20.432-1.09l1.346.7a17.671,17.671,0,0,0,7.6,1.962l13.232.364a8.025,8.025,0,0,1,7.627,6.395l-19.709-.544a1.83,1.83,0,1,0-.1,3.658l21.751.6h.051a1.83,1.83,0,0,0,1.828-1.78,11.614,11.614,0,0,0-.177-2.374l14.7-6.946.043-.021a5.59,5.59,0,0,1,6.322.885Zm0,0" transform="translate(576.64 794.285)" fill="#174896"/>
    <path id="Path_10" data-name="Path 10" d="M215.862,19.212V1.83a1.83,1.83,0,0,0-3.659,0V19.212a1.83,1.83,0,0,0,3.659,0Zm0,0" transform="translate(413.248 1046)" fill="#174896"/>
    <path id="Path_11" data-name="Path 11" d="M275.862,50.063V41.83a1.83,1.83,0,0,0-3.659,0v8.234a1.83,1.83,0,0,0,3.659,0Zm0,0" transform="translate(366.97 1015.148)" fill="#174896"/>
    <path id="Path_12" data-name="Path 12" d="M155.862,50.063V41.83a1.83,1.83,0,1,0-3.659,0v8.234a1.83,1.83,0,1,0,3.659,0Zm0,0" transform="translate(459.525 1015.148)" fill="#174896"/>
  </g>
</svg>
