<svg xmlns="http://www.w3.org/2000/svg" width="111.82" height="108.253" viewBox="0 0 111.82 108.253"><defs><style>.a{fill:#1176b0;stroke:#fff;}</style></defs><g transform="translate(-7.501 -15.497)"><path class="a" d="M126.209,171.664c7.885,0,14.3-5.212,14.3-11.618a1.787,1.787,0,0,0-3.575,0c0,3.978-3.872,7.289-8.937,7.93V162.3a4.038,4.038,0,0,0,.542-.326l3.033-2.165h0a4.328,4.328,0,0,0,1.786-3.529,4.205,4.205,0,0,0-4.116-4.28h-6.067a4.205,4.205,0,0,0-4.116,4.28,4.328,4.328,0,0,0,1.786,3.529l3.033,2.165a4.02,4.02,0,0,0,.543.326v5.673c-5.065-.64-8.937-3.951-8.937-7.93a1.787,1.787,0,0,0-3.575,0C111.91,166.452,118.325,171.664,126.209,171.664ZM122.923,156.9a.761.761,0,0,1-.288-.619.649.649,0,0,1,.541-.7h6.067a.648.648,0,0,1,.541.7.761.761,0,0,1-.288.619l-3.033,2.165a.415.415,0,0,1-.507,0Z" transform="translate(-80.693 -105.612)"/><circle class="a" cx="1.787" cy="1.787" r="1.787" transform="translate(54.454 42.815)"/><circle class="a" cx="1.787" cy="1.787" r="1.787" transform="translate(33.005 42.815)"/><path class="a" d="M359.15,262.3a7.15,7.15,0,1,0-7.15-7.15A7.15,7.15,0,0,0,359.15,262.3Zm0-10.725a3.575,3.575,0,1,1-3.575,3.575,3.575,3.575,0,0,1,3.575-3.575Z" transform="translate(-267.14 -180.161)"/><path class="a" d="M117.034,85.714H106.309V62.477a1.778,1.778,0,0,0-.324-1.024h0L93.473,43.578a1.787,1.787,0,0,0-2.929,0L78.033,61.453h0a1.778,1.778,0,0,0-.322,1.024V73.663a28.229,28.229,0,0,0-9.746-8.127,26.546,26.546,0,0,0,6.151-17.358A28.237,28.237,0,0,0,72.8,39.583,12.512,12.512,0,1,0,55.8,22.874a34.024,34.024,0,0,0-10.281-1.507,34.015,34.015,0,0,0-10.28,1.508A12.512,12.512,0,1,0,18.229,39.583a28.237,28.237,0,0,0-1.311,8.595,26.549,26.549,0,0,0,6.151,17.358,26.753,26.753,0,0,0-14.885,21.7c0,.022,0,.045-.006.067L8.005,89.76a1.718,1.718,0,0,0,0,.242,10.747,10.747,0,0,0,7.138,9.4,17.574,17.574,0,0,0-1.78,7.761c0,8.87,6.415,16.087,14.3,16.087a13.64,13.64,0,0,0,10.683-5.41,15.009,15.009,0,0,0,14.382,0,13.64,13.64,0,0,0,10.683,5.41c5.6,0,10.46-3.645,12.8-8.937h40.818a1.787,1.787,0,0,0,1.787-1.787V87.5A1.787,1.787,0,0,0,117.034,85.714ZM92.01,47.72l9.079,12.97H82.931ZM81.285,64.265h21.449V85.714H82.644a29.1,29.1,0,0,0-1.359-5.362ZM75.925,99.389a10.791,10.791,0,0,0,4.387-2.951h2.761v7.15H77.35a17.243,17.243,0,0,0-1.425-4.2Zm3.368-11.8.161,2.291a7.164,7.164,0,0,1-5.541,6.377A13.817,13.817,0,0,0,65.161,91.2c-.326-7.27-2.776-13.978-6.78-18.675a26.129,26.129,0,0,0,6.937-4.318c8.188,3.922,13.012,10.6,13.975,19.381ZM66.966,19.579a8.937,8.937,0,0,1,4.509,16.655,24.95,24.95,0,0,0-5-7.025,25.854,25.854,0,0,0-7.314-5.037,8.957,8.957,0,0,1,7.81-4.592ZM15.13,28.516a8.937,8.937,0,0,1,16.748-4.345,25.847,25.847,0,0,0-7.314,5.037,24.944,24.944,0,0,0-5,7.025,8.957,8.957,0,0,1-4.429-7.718Zm11.941,3.242c4.535-4.459,10.914-6.816,18.446-6.816S59.427,27.3,63.962,31.758a22.737,22.737,0,0,1,6.578,16.42A22.737,22.737,0,0,1,63.962,64.6c-4.535,4.459-10.913,6.817-18.446,6.817S31.606,69.057,27.071,64.6a22.737,22.737,0,0,1-6.578-16.42A22.737,22.737,0,0,1,27.071,31.758ZM11.58,89.882l.16-2.291c.963-8.783,5.787-15.46,13.975-19.383a26.134,26.134,0,0,0,6.97,4.331c-3.992,4.7-6.445,11.426-6.773,18.661a13.822,13.822,0,0,0-8.758,5.066,7.164,7.164,0,0,1-5.575-6.384Zm16.082,29.793c-5.914,0-10.725-5.613-10.725-12.512s4.811-12.512,10.725-12.512,10.725,5.613,10.725,12.512S33.576,119.675,27.662,119.675ZM45.537,116.1a11.551,11.551,0,0,1-5.291-1.3,17.592,17.592,0,0,0,1.716-7.635c0-8.173-5.447-14.936-12.47-15.951.344-6.971,2.848-13.343,6.87-17.4A36.212,36.212,0,0,0,54.7,73.805c4.034,4.055,6.539,10.4,6.88,17.408-7.024,1.013-12.471,7.777-12.471,15.95a17.592,17.592,0,0,0,1.716,7.635A11.551,11.551,0,0,1,45.537,116.1Zm17.874,3.575c-5.914,0-10.725-5.613-10.725-12.512S57.5,94.651,63.411,94.651s10.725,5.613,10.725,12.512S69.325,119.675,63.411,119.675Zm14.3-12.512h7.15a1.787,1.787,0,0,0,1.787-1.787V94.651a1.787,1.787,0,0,0-1.787-1.787H82.438A10.638,10.638,0,0,0,83.029,90a1.782,1.782,0,0,0,0-.242L83,89.289h7.227v21.449H77.35a17.979,17.979,0,0,0,.36-3.575Zm37.536,3.575H93.8V89.289h21.449Z"/><path class="a" d="M409.788,374.3h10.725a1.787,1.787,0,0,0,1.6-2.587l-5.362-10.725a1.787,1.787,0,0,0-3.2,0l-5.362,10.725a1.787,1.787,0,0,0,1.6,2.587Zm5.362-8.515,2.47,4.94h-4.94Z" transform="translate(-310.628 -267.137)"/></g></svg>