<svg xmlns="http://www.w3.org/2000/svg" width="30.759" height="24.998" viewBox="0 0 30.759 24.998">
  <path id="Twitter" d="M30.759,3.781a12.621,12.621,0,0,1-3.625.994A6.329,6.329,0,0,0,29.91,1.284,12.638,12.638,0,0,1,25.9,2.815,6.317,6.317,0,0,0,15.149,8.571,17.916,17.916,0,0,1,2.141,1.977,6.318,6.318,0,0,0,4.094,10.4a6.285,6.285,0,0,1-2.858-.789c0,.026,0,.053,0,.079A6.315,6.315,0,0,0,6.3,15.88a6.319,6.319,0,0,1-2.85.108,6.317,6.317,0,0,0,5.895,4.383,12.662,12.662,0,0,1-7.837,2.7A12.838,12.838,0,0,1,0,22.984,17.862,17.862,0,0,0,9.674,25.82c11.608,0,17.955-9.616,17.955-17.955q0-.411-.018-.816a12.826,12.826,0,0,0,3.149-3.267" transform="translate(0 -0.822)" fill="#1176b0"/>
</svg>
