<svg xmlns="http://www.w3.org/2000/svg" width="72.647" height="88.951" viewBox="0 0 72.647 88.951">
  <g id="shield" transform="translate(1 1.001)">
    <path id="Path_64" data-name="Path 64" d="M83.324,86.95a2.715,2.715,0,0,1-1.44-.413l-18.239-11.4A33.286,33.286,0,0,1,48,46.911V9.51a2.717,2.717,0,0,1,2.163-2.66L82.769.057a2.719,2.719,0,0,1,1.108,0L116.484,6.85a2.717,2.717,0,0,1,2.163,2.66v37.4A33.286,33.286,0,0,1,103,75.138l-18.239,11.4A2.715,2.715,0,0,1,83.324,86.95ZM53.434,11.72V46.911a27.693,27.693,0,0,0,13.09,23.618l16.8,10.5,16.8-10.5a27.693,27.693,0,0,0,13.09-23.618V11.72L83.324,5.493Z" transform="translate(-48 0)" fill="#fff" stroke="#174896" stroke-width="2"/>
    <path id="Path_65" data-name="Path 65" d="M213.738,135.248a10.881,10.881,0,0,0-10.869-10.869,5.434,5.434,0,1,1,5.358-6.344,2.718,2.718,0,1,0,5.36-.9,10.818,10.818,0,0,0-8-8.719v-1.7a2.717,2.717,0,0,0-5.434,0v1.7a10.869,10.869,0,0,0,2.717,21.394,5.434,5.434,0,1,1-5.358,6.344,2.718,2.718,0,0,0-5.36.9,10.818,10.818,0,0,0,8,8.719v1.7a2.717,2.717,0,1,0,5.434,0v-1.7a10.889,10.889,0,0,0,8.152-10.525Z" transform="translate(-167.545 -86.338)" fill="#fff" stroke="#174896" stroke-width="2"/>
  </g>
</svg>
