<svg xmlns="http://www.w3.org/2000/svg" width="67.196" height="79.241" viewBox="0 0 67.196 79.241"><defs><style>.a{fill:#1176b0;}</style></defs><g transform="translate(-38.915 0)"><g transform="translate(38.915 0)"><path class="a" d="M185.352,174.289a1.161,1.161,0,0,0,1.616,1.666,1.5,1.5,0,0,1,2.073,0,1.161,1.161,0,0,0,1.616-1.667A3.839,3.839,0,0,0,185.352,174.289Z" transform="translate(-162.39 -146.415)"/><path class="a" d="M289.084,176.293a1.157,1.157,0,0,0,.808-.327,1.5,1.5,0,0,1,2.075,0,1.161,1.161,0,1,0,1.613-1.67,3.844,3.844,0,0,0-5.3,0,1.161,1.161,0,0,0,.809,1.994Z" transform="translate(-249.384 -146.425)"/><path class="a" d="M234.951,233.234a2.594,2.594,0,0,1-1.85-.768,1.161,1.161,0,0,0-1.644,1.639,4.934,4.934,0,0,0,6.988,0,1.161,1.161,0,0,0-1.644-1.639A2.594,2.594,0,0,1,234.951,233.234Z" transform="translate(-201.371 -196.199)"/><path class="a" d="M106.091,76.174l-1.035-14.631a12.7,12.7,0,0,0-4.749-9.01,27.125,27.125,0,0,0-8.261-4.5L93.1,44.124a3.847,3.847,0,0,0-.571-3.376,3.592,3.592,0,0,0-2.941-1.357H85.748a21.731,21.731,0,0,0,4.434-7.29c3.118-.314,6.027-2.2,6.027-5.509V24.921a3.844,3.844,0,0,0-2.65-3.66c2.183-2.072,3.457-5.217,3.8-9.4l0-.061c.083-1.028.148-1.841-.614-2.321A2.047,2.047,0,0,0,94.58,9.8a12.362,12.362,0,0,1-4.009,1.564,14.835,14.835,0,0,0-5.99-8.146A19.636,19.636,0,0,0,74.538.021,18.463,18.463,0,0,0,65.944,1.6a9.91,9.91,0,0,0-5.007,4.776A6.246,6.246,0,0,0,56.61,7.959c-2.263,2.071-2.6,5.579-2.6,7.485v5.635H52.626a3.83,3.83,0,0,0-3.811,3.841v1.672c0,3.308,2.909,5.195,6.027,5.509a22.148,22.148,0,0,0,4.45,7.29H55.438a3.6,3.6,0,0,0-2.946,1.358,3.847,3.847,0,0,0-.57,3.376l1.061,3.906c-5.144,1.894-8.669,4.249-10.757,7.181a1.161,1.161,0,1,0,1.891,1.346c1.843-2.589,5.1-4.7,9.933-6.445l7.211,7.81V76.917H52.926v-6.3a1.161,1.161,0,0,0-2.322,0v6.305H41.886a.633.633,0,0,1-.636-.582l1.035-14.631a1.161,1.161,0,0,0-2.316-.164L38.933,76.175a2.942,2.942,0,0,0,.583,2.313,3.1,3.1,0,0,0,2.37.753h61.257a3.092,3.092,0,0,0,2.37-.755,2.933,2.933,0,0,0,.578-2.313ZM51.137,26.592V24.921a1.525,1.525,0,0,1,1.489-1.52h1.384v4.143a12.4,12.4,0,0,0,.186,2.1C52.517,29.253,51.137,28.216,51.137,26.592Zm42.751-1.672v1.672c0,1.623-1.379,2.66-3.057,3.055a12.266,12.266,0,0,0,.189-2.1V23.4H92.4A1.523,1.523,0,0,1,93.888,24.921ZM56.814,30.659a11.032,11.032,0,0,1-.483-3.115V22.577c1.937-2.975,5.155-5.222,7.374-3.939a32.445,32.445,0,0,0,6.771,2.874,1.161,1.161,0,0,0,.677-2.22,30.139,30.139,0,0,1-6.286-2.663c-2.749-1.59-6.033-.207-8.537,2.285V15.444c0-1.228.18-4.248,1.847-5.773a4.266,4.266,0,0,1,3.44-.95,1.161,1.161,0,0,0,1.208-.8c1.137-3.543,5.911-5.835,11.608-5.579,5.153.234,11.635,2.822,13.78,9.269-3.523.093-7.554-.909-9.174-2.377a1.161,1.161,0,0,0-1.559,1.72c2.2,2,6.546,2.986,10.248,2.986a18.216,18.216,0,0,0,2.1-.116h.016a13.77,13.77,0,0,0,5.143-1.59c-.49,4.668-2.259,7.573-5.4,8.866l-.049.008a51.588,51.588,0,0,1-13.375-.616,1.161,1.161,0,1,0-.409,2.285,54.847,54.847,0,0,0,9.544.838c1.149,0,2.283-.039,3.393-.113v4.047q0,.182-.008.369a11.377,11.377,0,0,1-.48,2.747A20.609,20.609,0,0,1,76.451,43.141a10.094,10.094,0,0,1-7.881,0,17.489,17.489,0,0,1-3.894-2.058,20.636,20.636,0,0,1-7.862-10.423ZM62.95,50.785l-1.12,4.334-6.4-6.932-1.268-4.669a1.558,1.558,0,0,1,.173-1.357,1.353,1.353,0,0,1,1.1-.448H61.69q.615.518,1.261.989v8.083ZM81.442,76.917H63.583V63.55a32.3,32.3,0,0,0,17.859.076V76.917Zm0-15.729A29.576,29.576,0,0,1,63.583,61.1V57.617l.851-3.292,1.481-.047c.687,0,.859.116,1.417,1.422l.509,1.18a1.161,1.161,0,1,0,2.132-.919l-.507-1.177c-.51-1.194-1.208-2.828-3.568-2.828H65.86l-.822.026.2-.76a1.164,1.164,0,0,0,.037-.29V44.174a18.651,18.651,0,0,0,2.493,1.143,12.389,12.389,0,0,0,9.494,0,18.848,18.848,0,0,0,2.5-1.147v6.762a1.166,1.166,0,0,0,.037.29l.189.734H79.4c-2.351,0-3.054,1.633-3.568,2.828l-.5,1.18a1.161,1.161,0,1,0,2.135.913l.5-1.177c.567-1.316.736-1.422,1.435-1.422h1.186l.86,3.338ZM82.623,52.9a1.171,1.171,0,0,0-.037-.142l-.508-1.971V42.7q.645-.468,1.262-.983h6.25a1.347,1.347,0,0,1,1.1.446,1.559,1.559,0,0,1,.173,1.358L89.6,48.187l-6.4,6.931Zm20.52,24.021H94.419V70.614a1.161,1.161,0,0,0-2.322,0v6.3H83.763V57.924l7.215-7.81c7.654,2.763,11.4,6.458,11.761,11.592l1.035,14.633A.629.629,0,0,1,103.143,76.92Z" transform="translate(-38.915 0)"/><path class="a" d="M218.587,63.71a22.768,22.768,0,0,1-12.144-5.644,1.161,1.161,0,0,0-1.675,1.608c2.489,2.593,8.082,5.7,13.547,6.342a1.185,1.185,0,0,0,.138.008,1.161,1.161,0,0,0,.135-2.313Z" transform="translate(-178.826 -48.778)"/></g></g></svg>