<svg xmlns="http://www.w3.org/2000/svg" width="35.552" height="24.998" viewBox="0 0 35.552 24.998">
  <path id="youtube" d="M49.742,67.911A4.467,4.467,0,0,0,46.6,64.748C43.827,64,32.709,64,32.709,64s-11.117,0-13.89.748a4.467,4.467,0,0,0-3.143,3.164c-.743,2.791-.743,8.613-.743,8.613s0,5.822.743,8.613a4.4,4.4,0,0,0,3.143,3.113C21.592,89,32.709,89,32.709,89s11.117,0,13.89-.748a4.4,4.4,0,0,0,3.143-3.113c.743-2.791.743-8.613.743-8.613S50.485,70.7,49.742,67.911ZM29.073,81.81V71.238l9.292,5.286Z" transform="translate(-14.933 -64)" fill="#1176b0"/>
</svg>
